<svg width="24" height="24" viewBox="0 0 24 24" fill="none" xmlns="http://www.w3.org/2000/svg">
<path d="M12 22C9.68333 21.4167 7.77067 20.0873 6.262 18.012C4.75333 15.9367 3.99933 13.6327 4 11.1V5L12 2L20 5V11.1C20 13.6333 19.246 15.9377 17.738 18.013C16.23 20.0883 14.3173 21.4173 12 22ZM10 16H14C14.2833 16 14.521 15.904 14.713 15.712C14.905 15.52 15.0007 15.2827 15 15V12C15 11.7167 14.904 11.4793 14.712 11.288C14.52 11.0967 14.2827 11.0007 14 11V10C14 9.45 13.8043 8.97933 13.413 8.588C13.0217 8.19667 12.5507 8.00067 12 8C11.4493 7.99933 10.9787 8.19533 10.588 8.588C10.1973 8.98067 10.0013 9.45133 10 10V11C9.71667 11 9.47933 11.096 9.288 11.288C9.09667 11.48 9.00067 11.7173 9 12V15C9 15.2833 9.096 15.521 9.288 15.713C9.48 15.905 9.71733 16.0007 10 16ZM11 11V10C11 9.71667 11.096 9.47933 11.288 9.288C11.48 9.09667 11.7173 9.00067 12 9C12.2827 8.99933 12.5203 9.09533 12.713 9.288C12.9057 9.48067 13.0013 9.718 13 10V11H11Z" fill="#C8CCD3"/>
</svg>
