<svg width="16" height="12" viewBox="0 0 16 12" fill="none" xmlns="http://www.w3.org/2000/svg">
<path fill-rule="evenodd" clip-rule="evenodd" d="M9.2237 0.55876C9.34089 0.441718 9.49974 0.375977 9.66537 0.375977C9.83099 0.375977 9.98984 0.441718 10.107 0.55876L15.107 5.55876C15.2241 5.67595 15.2898 5.8348 15.2898 6.00043C15.2898 6.16605 15.2241 6.3249 15.107 6.44209L10.107 11.4421C10.0498 11.5035 9.98081 11.5528 9.90415 11.5869C9.82748 11.6211 9.74472 11.6394 9.6608 11.6409C9.57688 11.6424 9.49352 11.627 9.4157 11.5955C9.33788 11.5641 9.26718 11.5173 9.20783 11.458C9.14848 11.3986 9.1017 11.3279 9.07026 11.2501C9.03883 11.1723 9.02339 11.0889 9.02487 11.005C9.02635 10.9211 9.04472 10.8383 9.07888 10.7616C9.11304 10.685 9.16229 10.616 9.2237 10.5588L13.157 6.62543H1.33203C1.16627 6.62543 1.0073 6.55958 0.890089 6.44237C0.772879 6.32516 0.707031 6.16619 0.707031 6.00043C0.707031 5.83467 0.772879 5.6757 0.890089 5.55849C1.0073 5.44127 1.16627 5.37543 1.33203 5.37543H13.157L9.2237 1.44209C9.10666 1.32491 9.04091 1.16605 9.04091 1.00043C9.04091 0.834801 9.10666 0.675948 9.2237 0.55876Z" fill="#C8CCD3"/>
</svg>
