<svg width="760" height="479" viewBox="0 0 760 479" fill="none" xmlns="http://www.w3.org/2000/svg">
<path d="M758.645 91.805L758.645 352.531L740.768 352.531" stroke="#31A6E4" stroke-width="0.827521" stroke-miterlimit="10"/>
<path d="M758.645 0.687466L575.461 0.68745L562.123 31.5469" stroke="#31A6E4" stroke-width="0.905261" stroke-miterlimit="10"/>
<path d="M758.645 86.3984L758.645 83.3993" stroke="#31A6E4" stroke-width="1.05837" stroke-miterlimit="10"/>
<path d="M758.645 77.7559L758.645 74.7568" stroke="#31A6E4" stroke-width="1.05837" stroke-miterlimit="10"/>
<path d="M758.645 69.1143L758.645 66.1152" stroke="#31A6E4" stroke-width="1.05837" stroke-miterlimit="10"/>
<path d="M758.645 60.4717L758.645 57.4725" stroke="#31A6E4" stroke-width="1.05837" stroke-miterlimit="10"/>
<path d="M758.645 51.8291L758.645 48.8299" stroke="#31A6E4" stroke-width="1.05837" stroke-miterlimit="10"/>
<path d="M758.645 43.1875L758.645 40.1884" stroke="#31A6E4" stroke-width="1.05837" stroke-miterlimit="10"/>
<path d="M758.645 34.5449L758.645 31.5458" stroke="#31A6E4" stroke-width="1.05837" stroke-miterlimit="10"/>
<path d="M758.645 25.9023L758.645 22.8637" stroke="#31A6E4" stroke-width="1.05837" stroke-miterlimit="10"/>
<path d="M758.645 17.2607L758.645 14.2222" stroke="#31A6E4" stroke-width="1.05837" stroke-miterlimit="10"/>
<path d="M758.645 8.61816L758.645 5.57956" stroke="#31A6E4" stroke-width="1.05837" stroke-miterlimit="10"/>
<path d="M1.20778 91.805L1.20776 352.531L19.1235 352.531" stroke="#BD338A" stroke-width="0.827521" stroke-miterlimit="10"/>
<path d="M1.20818 0.687449L184.391 0.687465L197.966 31.5469" stroke="#BD338A" stroke-width="0.905261" stroke-miterlimit="10"/>
<path d="M1.20801 86.3984L1.20801 83.3993" stroke="#BD338A" stroke-width="1.05837" stroke-miterlimit="10"/>
<path d="M1.20801 77.7559L1.20801 74.7568" stroke="#BD338A" stroke-width="1.05837" stroke-miterlimit="10"/>
<path d="M1.20801 69.1133L1.20801 66.1142" stroke="#BD338A" stroke-width="1.05837" stroke-miterlimit="10"/>
<path d="M1.20801 60.4717L1.20801 57.4725" stroke="#BD338A" stroke-width="1.05837" stroke-miterlimit="10"/>
<path d="M1.20801 51.8291L1.20801 48.8299" stroke="#BD338A" stroke-width="1.05837" stroke-miterlimit="10"/>
<path d="M1.20801 43.1865L1.20801 40.1874" stroke="#BD338A" stroke-width="1.05837" stroke-miterlimit="10"/>
<path d="M1.20801 34.5449L1.20801 31.5458" stroke="#BD338A" stroke-width="1.05837" stroke-miterlimit="10"/>
<path d="M1.20801 25.9023L1.20801 22.8637" stroke="#BD338A" stroke-width="1.05837" stroke-miterlimit="10"/>
<path d="M1.20801 17.2598L1.20801 14.2212" stroke="#BD338A" stroke-width="1.05837" stroke-miterlimit="10"/>
<path d="M1.20801 8.61816L1.20801 5.57956" stroke="#BD338A" stroke-width="1.05837" stroke-miterlimit="10"/>
<path d="M297.568 478.534L314.734 460.342L379.097 460.342L443.46 460.342L460.586 478.534L740.768 478.534L740.768 477.627L460.981 477.627L443.855 459.434L379.097 459.434L314.34 459.434L297.213 477.626L17.4268 477.626L17.4268 478.534L297.568 478.534Z" fill="url(#paint0_linear_59_661)"/>
<path d="M740.768 468.984L740.768 464.407" stroke="#06F0F6" stroke-width="0.733601" stroke-miterlimit="10"/>
<path d="M740.768 457.027L740.768 452.45" stroke="#20DAF7" stroke-width="0.733601" stroke-miterlimit="10"/>
<path d="M740.768 445.07L740.768 440.453" stroke="#39C4F7" stroke-width="0.733601" stroke-miterlimit="10"/>
<path d="M740.768 433.073L740.768 428.496" stroke="#53AEF8" stroke-width="0.733601" stroke-miterlimit="10"/>
<path d="M740.768 421.116L740.768 416.539" stroke="#6C98F9" stroke-width="0.733601" stroke-miterlimit="10"/>
<path d="M740.768 409.159L740.768 404.542" stroke="#8681F9" stroke-width="0.733601" stroke-miterlimit="10"/>
<path d="M740.768 397.163L740.768 392.585" stroke="#9F6BFA" stroke-width="0.733601" stroke-miterlimit="10"/>
<path d="M740.768 385.206L740.768 380.628" stroke="#B955FB" stroke-width="0.733601" stroke-miterlimit="10"/>
<path d="M740.768 373.249L740.768 368.632" stroke="#D23FFB" stroke-width="0.733601" stroke-miterlimit="10"/>
<path d="M740.768 361.252L740.768 356.674" stroke="#EC29FC" stroke-width="0.733601" stroke-miterlimit="10"/>
<path d="M19.124 468.984L19.124 464.407" stroke="#06F0F6" stroke-width="0.733601" stroke-miterlimit="10"/>
<path d="M19.124 457.027L19.124 452.45" stroke="#20DAF7" stroke-width="0.733601" stroke-miterlimit="10"/>
<path d="M19.124 445.07L19.124 440.453" stroke="#39C4F7" stroke-width="0.733601" stroke-miterlimit="10"/>
<path d="M19.124 433.073L19.124 428.496" stroke="#53AEF8" stroke-width="0.733601" stroke-miterlimit="10"/>
<path d="M19.124 421.116L19.124 416.539" stroke="#6C98F9" stroke-width="0.733601" stroke-miterlimit="10"/>
<path d="M19.124 409.159L19.124 404.542" stroke="#8681F9" stroke-width="0.733601" stroke-miterlimit="10"/>
<path d="M19.124 397.163L19.124 392.585" stroke="#9F6BFA" stroke-width="0.733601" stroke-miterlimit="10"/>
<path d="M19.124 385.206L19.124 380.628" stroke="#B955FB" stroke-width="0.733601" stroke-miterlimit="10"/>
<path d="M19.124 373.249L19.124 368.632" stroke="#D23FFB" stroke-width="0.733601" stroke-miterlimit="10"/>
<path d="M19.124 361.252L19.124 356.674" stroke="#EC29FC" stroke-width="0.733601" stroke-miterlimit="10"/>
<defs>
<linearGradient id="paint0_linear_59_661" x1="550.528" y1="403.805" x2="536.542" y2="521.244" gradientUnits="userSpaceOnUse">
<stop stop-color="#1BBEE9"/>
<stop offset="0.1063" stop-color="#15A9D0"/>
<stop offset="0.2375" stop-color="#0C89A9"/>
<stop offset="0.3819" stop-color="#057D9B"/>
<stop offset="0.5356" stop-color="#D6248E"/>
<stop offset="0.6969" stop-color="#EF30A2"/>
<stop offset="0.8618" stop-color="#F276C0"/>
<stop offset="1" stop-color="#FFADDE"/>
</linearGradient>
</defs>
</svg>
