<svg width="902" height="599" viewBox="0 0 902 599" fill="none" xmlns="http://www.w3.org/2000/svg">
<g filter="url(#filter0_d_59_616)">
<path d="M38.4492 389.936C35.424 387.329 30.7343 389.478 30.7343 393.472L30.7343 539.288C30.7343 550.334 39.6887 559.288 50.7343 559.288L290.004 559.288C294.766 559.288 299.323 557.345 302.62 553.909C305.904 550.487 310.437 548.545 315.179 548.53L442.998 548.106C445.901 548.096 447.452 551.522 445.529 553.697C443.61 555.868 445.152 559.288 448.05 559.288L451.045 559.288L454.028 559.288C456.926 559.288 458.465 555.865 456.542 553.697C454.615 551.525 456.163 548.096 459.067 548.106L586.872 548.53C591.615 548.545 596.147 550.487 599.431 553.909C602.728 557.345 607.285 559.288 612.048 559.288L851.356 559.288C862.402 559.288 871.356 550.334 871.356 539.288L871.356 393.472C871.356 389.478 866.667 387.329 863.642 389.936C860.616 392.544 855.927 390.395 855.927 386.401L855.927 215.817C855.927 210.6 857.965 205.59 861.607 201.855L865.676 197.682C869.318 193.947 871.356 188.936 871.356 183.72L871.356 41.4983C871.356 30.4526 862.402 21.4983 851.356 21.4983L451.045 21.4983L50.7344 21.4982C39.6886 21.4982 30.7344 30.4525 30.7344 41.4982L30.7343 183.719C30.7343 188.936 32.7728 193.947 36.4148 197.682L40.4836 201.855C44.1256 205.59 46.1641 210.6 46.1641 215.817L46.1641 386.401C46.1641 390.394 41.4744 392.544 38.4492 389.936Z" fill="#111827"/>
</g>
<defs>
<filter id="filter0_d_59_616" x="0.734375" y="0.498047" width="900.622" height="597.79" filterUnits="userSpaceOnUse" color-interpolation-filters="sRGB">
<feFlood flood-opacity="0" result="BackgroundImageFix"/>
<feColorMatrix in="SourceAlpha" type="matrix" values="0 0 0 0 0 0 0 0 0 0 0 0 0 0 0 0 0 0 127 0" result="hardAlpha"/>
<feOffset dy="9"/>
<feGaussianBlur stdDeviation="15"/>
<feComposite in2="hardAlpha" operator="out"/>
<feColorMatrix type="matrix" values="0 0 0 0 0.0241333 0 0 0 0 0.0444561 0 0 0 0 0.0851018 0 0 0 1 0"/>
<feBlend mode="normal" in2="BackgroundImageFix" result="effect1_dropShadow_59_616"/>
<feBlend mode="normal" in="SourceGraphic" in2="effect1_dropShadow_59_616" result="shape"/>
</filter>
</defs>
</svg>
