<svg width="902" height="599" viewBox="0 0 902 599" fill="none" xmlns="http://www.w3.org/2000/svg">
<g filter="url(#filter0_d_288_1523)">
<path d="M38.4492 389.936C35.424 387.329 30.7344 389.478 30.7344 393.472L30.7343 539.288C30.7343 550.334 39.6886 559.288 50.7343 559.288L290.004 559.288C294.766 559.288 299.323 557.345 302.62 553.909V553.909C305.904 550.487 310.437 548.545 315.179 548.53L442.998 548.106C445.901 548.096 447.452 551.522 445.529 553.697V553.697C443.61 555.868 445.152 559.288 448.05 559.288L451.045 559.288L454.028 559.288C456.926 559.288 458.465 555.865 456.542 553.697V553.697C454.614 551.525 456.163 548.096 459.067 548.106L586.872 548.53C591.615 548.545 596.147 550.487 599.431 553.909V553.909C602.728 557.345 607.285 559.288 612.048 559.288L851.356 559.288C862.402 559.288 871.356 550.334 871.356 539.288L871.356 393.472C871.356 389.478 866.667 387.329 863.642 389.936V389.936C860.616 392.544 855.927 390.395 855.927 386.401L855.927 215.817C855.927 210.6 857.965 205.59 861.607 201.855L865.676 197.682C869.318 193.947 871.356 188.936 871.356 183.72L871.356 41.4983C871.356 30.4526 862.402 21.4983 851.356 21.4983L451.045 21.4982L50.7344 21.4982C39.6887 21.4982 30.7344 30.4525 30.7344 41.4982L30.7344 183.719C30.7344 188.936 32.7728 193.947 36.4148 197.682L40.4836 201.855C44.1257 205.59 46.1641 210.6 46.1641 215.817L46.1641 386.401C46.1641 390.394 41.4744 392.544 38.4492 389.936V389.936Z" fill="#111827"/>
</g>
<path d="M37.7188 380.248L37.7188 366.989L20.0002 349.389L20.0002 362.53L37.7188 380.248Z" fill="url(#paint0_linear_288_1523)"/>
<path d="M37.7188 357.794L37.7188 344.535L20.0002 326.935L20.0002 340.075L37.7188 357.794Z" fill="url(#paint1_linear_288_1523)"/>
<path d="M37.7188 335.341L37.7188 322.042L20.0002 304.442L20.0002 317.583L37.7188 335.341Z" fill="url(#paint2_linear_288_1523)"/>
<path d="M37.7188 312.847L37.7188 299.587L20.0002 281.987L20.0002 295.128L37.7188 312.847Z" fill="url(#paint3_linear_288_1523)"/>
<path d="M37.7188 290.393L37.7188 277.133L20.0002 259.533L20.0002 272.674L37.7188 290.393Z" fill="url(#paint4_linear_288_1523)"/>
<path d="M37.7188 267.9L37.7188 254.641L20.0002 237.041L20.0002 250.182L37.7188 267.9Z" fill="url(#paint5_linear_288_1523)"/>
<path d="M37.7188 245.445L37.7188 232.186L20.0002 214.586L20.0002 227.727L37.7188 245.445Z" fill="url(#paint6_linear_288_1523)"/>
<path d="M37.7188 222.991L37.7188 209.692L20.0002 192.092L20.0002 205.233L37.7188 222.991Z" fill="url(#paint7_linear_288_1523)"/>
<path d="M66.8023 529.534L82.7056 529.534L82.7056 526.061L66.8023 526.061L66.8023 529.534Z" fill="url(#paint8_linear_288_1523)"/>
<path d="M66.8023 521.8L82.7056 521.8L82.7056 518.327L66.8023 518.327L66.8023 521.8Z" fill="url(#paint9_linear_288_1523)"/>
<path d="M66.8023 514.025L82.7056 514.025L82.7056 510.553L66.8023 510.553L66.8023 514.025Z" fill="url(#paint10_linear_288_1523)"/>
<path d="M66.8023 506.291L82.7056 506.291L82.7056 502.818L66.8023 502.818L66.8023 506.291Z" fill="url(#paint11_linear_288_1523)"/>
<path d="M66.8023 498.556L82.7056 498.556L82.7056 495.083L66.8023 495.083L66.8023 498.556Z" fill="url(#paint12_linear_288_1523)"/>
<path d="M66.8023 490.782L82.7056 490.782L82.7056 487.31L66.8023 487.31L66.8023 490.782Z" fill="url(#paint13_linear_288_1523)"/>
<path d="M66.8023 483.047L82.7056 483.047L82.7056 479.574L66.8023 479.574L66.8023 483.047Z" fill="url(#paint14_linear_288_1523)"/>
<path d="M66.8023 475.273L82.7056 475.273L82.7056 471.801L66.8023 471.801L66.8023 475.273Z" fill="url(#paint15_linear_288_1523)"/>
<path d="M66.8023 467.539L82.7056 467.539L82.7056 464.066L66.8023 464.066L66.8023 467.539Z" fill="url(#paint16_linear_288_1523)"/>
<path d="M66.8023 459.766L82.7056 459.766L82.7056 456.293L66.8023 456.293L66.8023 459.766Z" fill="url(#paint17_linear_288_1523)"/>
<path d="M66.8023 452.031L82.7056 452.031L82.7056 448.559L66.8023 448.559L66.8023 452.031Z" fill="url(#paint18_linear_288_1523)"/>
<path d="M66.8023 444.296L82.7056 444.296L82.7056 440.823L66.8023 440.823L66.8023 444.296Z" fill="url(#paint19_linear_288_1523)"/>
<path d="M66.8023 436.522L82.7056 436.522L82.7056 433.05L66.8023 433.05L66.8023 436.522Z" fill="url(#paint20_linear_288_1523)"/>
<path d="M66.8023 428.788L82.7056 428.788L82.7056 425.315L66.8023 425.315L66.8023 428.788Z" fill="url(#paint21_linear_288_1523)"/>
<path d="M66.8023 421.014L82.7056 421.014L82.7056 417.541L66.8023 417.541L66.8023 421.014Z" fill="url(#paint22_linear_288_1523)"/>
<path d="M66.8023 413.279L82.7056 413.279L82.7056 409.807L66.8023 409.807L66.8023 413.279Z" fill="url(#paint23_linear_288_1523)"/>
<path d="M865.2 380.248L865.2 366.989L882.919 349.389L882.919 362.53L865.2 380.248Z" fill="url(#paint24_linear_288_1523)"/>
<path d="M865.2 357.794L865.2 344.535L882.919 326.935L882.919 340.075L865.2 357.794Z" fill="url(#paint25_linear_288_1523)"/>
<path d="M865.2 335.341L865.2 322.042L882.919 304.442L882.919 317.583L865.2 335.341Z" fill="url(#paint26_linear_288_1523)"/>
<path d="M865.2 312.847L865.2 299.587L882.919 281.987L882.919 295.128L865.2 312.847Z" fill="url(#paint27_linear_288_1523)"/>
<path d="M865.2 290.393L865.2 277.133L882.919 259.533L882.919 272.674L865.2 290.393Z" fill="url(#paint28_linear_288_1523)"/>
<path d="M865.2 267.9L865.2 254.641L882.919 237.041L882.919 250.182L865.2 267.9Z" fill="url(#paint29_linear_288_1523)"/>
<path d="M865.2 245.446L865.2 232.187L882.919 214.587L882.919 227.728L865.2 245.446Z" fill="url(#paint30_linear_288_1523)"/>
<path d="M865.2 222.991L865.2 209.692L882.919 192.092L882.919 205.233L865.2 222.991Z" fill="url(#paint31_linear_288_1523)"/>
<path d="M832.645 142.805L832.645 403.531L814.768 403.531" stroke="#31A6E4" stroke-width="0.827521" stroke-miterlimit="10"/>
<path d="M832.645 51.6875L649.461 51.6874L636.123 82.5469" stroke="#31A6E4" stroke-width="0.905261" stroke-miterlimit="10"/>
<path d="M832.645 137.398L832.645 134.399" stroke="#31A6E4" stroke-width="1.05837" stroke-miterlimit="10"/>
<path d="M832.645 128.756L832.645 125.757" stroke="#31A6E4" stroke-width="1.05837" stroke-miterlimit="10"/>
<path d="M832.645 120.114L832.645 117.115" stroke="#31A6E4" stroke-width="1.05837" stroke-miterlimit="10"/>
<path d="M832.645 111.472L832.645 108.473" stroke="#31A6E4" stroke-width="1.05837" stroke-miterlimit="10"/>
<path d="M832.645 102.829L832.645 99.8299" stroke="#31A6E4" stroke-width="1.05837" stroke-miterlimit="10"/>
<path d="M832.645 94.1875L832.645 91.1884" stroke="#31A6E4" stroke-width="1.05837" stroke-miterlimit="10"/>
<path d="M832.645 85.5449L832.645 82.5458" stroke="#31A6E4" stroke-width="1.05837" stroke-miterlimit="10"/>
<path d="M832.645 76.9023L832.645 73.8637" stroke="#31A6E4" stroke-width="1.05837" stroke-miterlimit="10"/>
<path d="M832.645 68.2607L832.645 65.2222" stroke="#31A6E4" stroke-width="1.05837" stroke-miterlimit="10"/>
<path d="M832.645 59.6182L832.645 56.5796" stroke="#31A6E4" stroke-width="1.05837" stroke-miterlimit="10"/>
<path d="M75.2078 142.805L75.2078 403.531L93.1235 403.531" stroke="#BD338A" stroke-width="0.827521" stroke-miterlimit="10"/>
<path d="M75.2082 51.6874L258.391 51.6875L271.966 82.5469" stroke="#BD338A" stroke-width="0.905261" stroke-miterlimit="10"/>
<path d="M75.208 137.398L75.208 134.399" stroke="#BD338A" stroke-width="1.05837" stroke-miterlimit="10"/>
<path d="M75.208 128.756L75.208 125.757" stroke="#BD338A" stroke-width="1.05837" stroke-miterlimit="10"/>
<path d="M75.208 120.113L75.208 117.114" stroke="#BD338A" stroke-width="1.05837" stroke-miterlimit="10"/>
<path d="M75.208 111.472L75.208 108.473" stroke="#BD338A" stroke-width="1.05837" stroke-miterlimit="10"/>
<path d="M75.208 102.829L75.208 99.8299" stroke="#BD338A" stroke-width="1.05837" stroke-miterlimit="10"/>
<path d="M75.208 94.1865L75.208 91.1874" stroke="#BD338A" stroke-width="1.05837" stroke-miterlimit="10"/>
<path d="M75.208 85.5449L75.208 82.5458" stroke="#BD338A" stroke-width="1.05837" stroke-miterlimit="10"/>
<path d="M75.208 76.9023L75.208 73.8637" stroke="#BD338A" stroke-width="1.05837" stroke-miterlimit="10"/>
<path d="M75.208 68.2598L75.208 65.2212" stroke="#BD338A" stroke-width="1.05837" stroke-miterlimit="10"/>
<path d="M75.208 59.6182L75.208 56.5796" stroke="#BD338A" stroke-width="1.05837" stroke-miterlimit="10"/>
<path d="M371.568 529.534L388.734 511.342L453.097 511.342L517.46 511.342L534.586 529.534L814.768 529.534L814.768 528.627L534.981 528.627L517.855 510.434L453.097 510.434L388.34 510.434L371.213 528.626L91.4268 528.626L91.4268 529.534L371.568 529.534Z" fill="url(#paint32_linear_288_1523)"/>
<path d="M814.768 519.984L814.768 515.407" stroke="#06F0F6" stroke-width="0.733601" stroke-miterlimit="10"/>
<path d="M814.768 508.027L814.768 503.45" stroke="#20DAF7" stroke-width="0.733601" stroke-miterlimit="10"/>
<path d="M814.768 496.07L814.768 491.453" stroke="#39C4F7" stroke-width="0.733601" stroke-miterlimit="10"/>
<path d="M814.768 484.073L814.768 479.496" stroke="#53AEF8" stroke-width="0.733601" stroke-miterlimit="10"/>
<path d="M814.768 472.116L814.768 467.539" stroke="#6C98F9" stroke-width="0.733601" stroke-miterlimit="10"/>
<path d="M814.768 460.159L814.768 455.542" stroke="#8681F9" stroke-width="0.733601" stroke-miterlimit="10"/>
<path d="M814.768 448.163L814.768 443.585" stroke="#9F6BFA" stroke-width="0.733601" stroke-miterlimit="10"/>
<path d="M814.768 436.206L814.768 431.628" stroke="#B955FB" stroke-width="0.733601" stroke-miterlimit="10"/>
<path d="M814.768 424.249L814.768 419.632" stroke="#D23FFB" stroke-width="0.733601" stroke-miterlimit="10"/>
<path d="M814.768 412.252L814.768 407.674" stroke="#EC29FC" stroke-width="0.733601" stroke-miterlimit="10"/>
<path d="M93.124 519.984L93.124 515.407" stroke="#06F0F6" stroke-width="0.733601" stroke-miterlimit="10"/>
<path d="M93.124 508.027L93.124 503.45" stroke="#20DAF7" stroke-width="0.733601" stroke-miterlimit="10"/>
<path d="M93.124 496.07L93.124 491.453" stroke="#39C4F7" stroke-width="0.733601" stroke-miterlimit="10"/>
<path d="M93.124 484.073L93.124 479.496" stroke="#53AEF8" stroke-width="0.733601" stroke-miterlimit="10"/>
<path d="M93.124 472.116L93.124 467.539" stroke="#6C98F9" stroke-width="0.733601" stroke-miterlimit="10"/>
<path d="M93.124 460.159L93.124 455.542" stroke="#8681F9" stroke-width="0.733601" stroke-miterlimit="10"/>
<path d="M93.124 448.163L93.124 443.585" stroke="#9F6BFA" stroke-width="0.733601" stroke-miterlimit="10"/>
<path d="M93.124 436.206L93.124 431.628" stroke="#B955FB" stroke-width="0.733601" stroke-miterlimit="10"/>
<path d="M93.124 424.249L93.124 419.632" stroke="#D23FFB" stroke-width="0.733601" stroke-miterlimit="10"/>
<path d="M93.124 412.252L93.124 407.674" stroke="#EC29FC" stroke-width="0.733601" stroke-miterlimit="10"/>
<path d="M611.498 571.126L597.45 571.126L578.823 552.342L592.754 552.342L611.498 571.126Z" fill="url(#paint33_linear_288_1523)"/>
<path d="M587.702 571.126L573.654 571.126L555.028 552.342L568.958 552.342L587.702 571.126Z" fill="url(#paint34_linear_288_1523)"/>
<path d="M563.907 571.126L549.858 571.126L531.232 552.342L545.162 552.342L563.907 571.126Z" fill="url(#paint35_linear_288_1523)"/>
<path d="M540.151 571.126L526.102 571.126L507.437 552.342L521.367 552.342L540.151 571.126Z" fill="url(#paint36_linear_288_1523)"/>
<path d="M516.355 571.126L502.306 571.126L483.68 552.342L497.571 552.342L516.355 571.126Z" fill="url(#paint37_linear_288_1523)"/>
<path d="M492.56 571.126L478.511 571.126L459.885 552.342L473.815 552.342L492.56 571.126Z" fill="url(#paint38_linear_288_1523)"/>
<path d="M293.473 571.126L307.521 571.126L326.147 552.342L312.217 552.342L293.473 571.126Z" fill="url(#paint39_linear_288_1523)"/>
<path d="M317.268 571.126L331.317 571.126L349.943 552.342L336.013 552.342L317.268 571.126Z" fill="url(#paint40_linear_288_1523)"/>
<path d="M341.064 571.126L355.073 571.126L373.739 552.342L359.809 552.342L341.064 571.126Z" fill="url(#paint41_linear_288_1523)"/>
<path d="M364.82 571.126L378.869 571.126L397.495 552.342L383.604 552.342L364.82 571.126Z" fill="url(#paint42_linear_288_1523)"/>
<path d="M388.615 571.126L402.664 571.126L421.29 552.342L407.399 552.342L388.615 571.126Z" fill="url(#paint43_linear_288_1523)"/>
<path d="M412.411 571.126L426.46 571.126L445.086 552.342L431.156 552.342L412.411 571.126Z" fill="url(#paint44_linear_288_1523)"/>
<path d="M819.345 529.534L835.248 529.534L835.248 526.061L819.345 526.061L819.345 529.534Z" fill="url(#paint45_linear_288_1523)"/>
<path d="M819.345 521.8L835.248 521.8L835.248 518.327L819.345 518.327L819.345 521.8Z" fill="url(#paint46_linear_288_1523)"/>
<path d="M819.345 514.025L835.248 514.025L835.248 510.553L819.345 510.553L819.345 514.025Z" fill="url(#paint47_linear_288_1523)"/>
<path d="M819.345 506.291L835.248 506.291L835.248 502.818L819.345 502.818L819.345 506.291Z" fill="url(#paint48_linear_288_1523)"/>
<path d="M819.345 498.556L835.248 498.556L835.248 495.083L819.345 495.083L819.345 498.556Z" fill="url(#paint49_linear_288_1523)"/>
<path d="M819.345 490.782L835.248 490.782L835.248 487.31L819.345 487.31L819.345 490.782Z" fill="url(#paint50_linear_288_1523)"/>
<path d="M819.345 483.047L835.248 483.047L835.248 479.574L819.345 479.574L819.345 483.047Z" fill="url(#paint51_linear_288_1523)"/>
<path d="M819.345 475.273L835.248 475.273L835.248 471.801L819.345 471.801L819.345 475.273Z" fill="url(#paint52_linear_288_1523)"/>
<path d="M819.345 467.539L835.248 467.539L835.248 464.066L819.345 464.066L819.345 467.539Z" fill="url(#paint53_linear_288_1523)"/>
<path d="M819.345 459.766L835.248 459.766L835.248 456.293L819.345 456.293L819.345 459.766Z" fill="url(#paint54_linear_288_1523)"/>
<path d="M819.345 452.031L835.248 452.031L835.248 448.559L819.345 448.559L819.345 452.031Z" fill="url(#paint55_linear_288_1523)"/>
<path d="M819.345 444.296L835.248 444.296L835.248 440.823L819.345 440.823L819.345 444.296Z" fill="url(#paint56_linear_288_1523)"/>
<path d="M819.345 436.522L835.248 436.522L835.248 433.05L819.345 433.05L819.345 436.522Z" fill="url(#paint57_linear_288_1523)"/>
<path d="M819.345 428.788L835.248 428.788L835.248 425.315L819.345 425.315L819.345 428.788Z" fill="url(#paint58_linear_288_1523)"/>
<path d="M819.345 421.014L835.248 421.014L835.248 417.541L819.345 417.541L819.345 421.014Z" fill="url(#paint59_linear_288_1523)"/>
<path d="M819.345 413.279L835.248 413.279L835.248 409.807L819.345 409.807L819.345 413.279Z" fill="url(#paint60_linear_288_1523)"/>
<path d="M781.223 21.8711L744.469 120.525L188.793 120.525L151.54 21.871L781.223 21.8711Z" fill="url(#paint61_linear_288_1523)"/>
<g filter="url(#filter1_d_288_1523)">
<path d="M762.954 21.8712L728.272 113.218L204.865 113.218L169.809 21.8711L762.954 21.8712Z" fill="#111827"/>
</g>
<path d="M852.217 165.377C854.663 165.377 856.676 221.927 856.676 291.656C856.676 361.386 854.663 417.896 852.217 417.896C849.77 417.896 847.757 361.386 847.757 291.656C847.757 221.887 849.77 165.377 852.217 165.377Z" fill="url(#paint62_radial_288_1523)"/>
<path d="M49.8339 386.996C52.32 386.996 54.3325 424.012 54.3325 469.67C54.3325 515.327 52.32 552.343 49.8338 552.343C47.3477 552.343 45.3352 515.327 45.3352 469.67C45.3352 424.012 47.3477 386.996 49.8339 386.996Z" fill="url(#paint63_radial_288_1523)"/>
<path d="M151.922 559.287C151.922 556.801 188.938 554.789 234.595 554.789C280.253 554.789 317.269 556.801 317.269 559.287C317.269 561.774 280.253 563.786 234.595 563.786C188.938 563.786 151.922 561.774 151.922 559.287Z" fill="url(#paint64_radial_288_1523)"/>
<path d="M384.433 21.4984C384.433 19.0123 421.448 16.9997 467.106 16.9997C512.764 16.9997 549.779 19.0123 549.779 21.4984C549.779 23.9845 512.764 25.9971 467.106 25.9971C421.448 25.9971 384.433 23.9845 384.433 21.4984Z" fill="url(#paint65_radial_288_1523)" fill-opacity="0.1"/>
<defs>
<filter id="filter0_d_288_1523" x="0.734375" y="0.498047" width="900.622" height="597.79" filterUnits="userSpaceOnUse" color-interpolation-filters="sRGB">
<feFlood flood-opacity="0" result="BackgroundImageFix"/>
<feColorMatrix in="SourceAlpha" type="matrix" values="0 0 0 0 0 0 0 0 0 0 0 0 0 0 0 0 0 0 127 0" result="hardAlpha"/>
<feOffset dy="9"/>
<feGaussianBlur stdDeviation="15"/>
<feComposite in2="hardAlpha" operator="out"/>
<feColorMatrix type="matrix" values="0 0 0 0 0.0241333 0 0 0 0 0.0444561 0 0 0 0 0.0851018 0 0 0 1 0"/>
<feBlend mode="normal" in2="BackgroundImageFix" result="effect1_dropShadow_288_1523"/>
<feBlend mode="normal" in="SourceGraphic" in2="effect1_dropShadow_288_1523" result="shape"/>
</filter>
<filter id="filter1_d_288_1523" x="139.809" y="0.871094" width="653.144" height="151.347" filterUnits="userSpaceOnUse" color-interpolation-filters="sRGB">
<feFlood flood-opacity="0" result="BackgroundImageFix"/>
<feColorMatrix in="SourceAlpha" type="matrix" values="0 0 0 0 0 0 0 0 0 0 0 0 0 0 0 0 0 0 127 0" result="hardAlpha"/>
<feOffset dy="9"/>
<feGaussianBlur stdDeviation="15"/>
<feComposite in2="hardAlpha" operator="out"/>
<feColorMatrix type="matrix" values="0 0 0 0 0.0241333 0 0 0 0 0.0444561 0 0 0 0 0.0851018 0 0 0 0.3 0"/>
<feBlend mode="normal" in2="BackgroundImageFix" result="effect1_dropShadow_288_1523"/>
<feBlend mode="normal" in="SourceGraphic" in2="effect1_dropShadow_288_1523" result="shape"/>
</filter>
<linearGradient id="paint0_linear_288_1523" x1="33.0588" y1="259.509" x2="8.95238" y2="262.577" gradientUnits="userSpaceOnUse">
<stop stop-color="#1BBEE9"/>
<stop offset="0.1063" stop-color="#15A9D0"/>
<stop offset="0.2375" stop-color="#0C89A9"/>
<stop offset="0.3819" stop-color="#057D9B"/>
<stop offset="0.5356" stop-color="#D6248E"/>
<stop offset="0.6969" stop-color="#EF30A2"/>
<stop offset="0.8618" stop-color="#F276C0"/>
<stop offset="1" stop-color="#FFADDE"/>
</linearGradient>
<linearGradient id="paint1_linear_288_1523" x1="33.0588" y1="237.055" x2="8.95238" y2="240.123" gradientUnits="userSpaceOnUse">
<stop stop-color="#1BBEE9"/>
<stop offset="0.1063" stop-color="#15A9D0"/>
<stop offset="0.2375" stop-color="#0C89A9"/>
<stop offset="0.3819" stop-color="#057D9B"/>
<stop offset="0.5356" stop-color="#D6248E"/>
<stop offset="0.6969" stop-color="#EF30A2"/>
<stop offset="0.8618" stop-color="#F276C0"/>
<stop offset="1" stop-color="#FFADDE"/>
</linearGradient>
<linearGradient id="paint2_linear_288_1523" x1="33.0588" y1="214.447" x2="8.9514" y2="217.512" gradientUnits="userSpaceOnUse">
<stop stop-color="#1BBEE9"/>
<stop offset="0.1063" stop-color="#15A9D0"/>
<stop offset="0.2375" stop-color="#0C89A9"/>
<stop offset="0.3819" stop-color="#057D9B"/>
<stop offset="0.5356" stop-color="#D6248E"/>
<stop offset="0.6969" stop-color="#EF30A2"/>
<stop offset="0.8618" stop-color="#F276C0"/>
<stop offset="1" stop-color="#FFADDE"/>
</linearGradient>
<linearGradient id="paint3_linear_288_1523" x1="33.0588" y1="192.107" x2="8.95238" y2="195.176" gradientUnits="userSpaceOnUse">
<stop stop-color="#1BBEE9"/>
<stop offset="0.1063" stop-color="#15A9D0"/>
<stop offset="0.2375" stop-color="#0C89A9"/>
<stop offset="0.3819" stop-color="#057D9B"/>
<stop offset="0.5356" stop-color="#D6248E"/>
<stop offset="0.6969" stop-color="#EF30A2"/>
<stop offset="0.8618" stop-color="#F276C0"/>
<stop offset="1" stop-color="#FFADDE"/>
</linearGradient>
<linearGradient id="paint4_linear_288_1523" x1="33.0588" y1="169.653" x2="8.95238" y2="172.722" gradientUnits="userSpaceOnUse">
<stop stop-color="#1BBEE9"/>
<stop offset="0.1063" stop-color="#15A9D0"/>
<stop offset="0.2375" stop-color="#0C89A9"/>
<stop offset="0.3819" stop-color="#057D9B"/>
<stop offset="0.5356" stop-color="#D6248E"/>
<stop offset="0.6969" stop-color="#EF30A2"/>
<stop offset="0.8618" stop-color="#F276C0"/>
<stop offset="1" stop-color="#FFADDE"/>
</linearGradient>
<linearGradient id="paint5_linear_288_1523" x1="33.0588" y1="147.161" x2="8.95238" y2="150.23" gradientUnits="userSpaceOnUse">
<stop stop-color="#1BBEE9"/>
<stop offset="0.1063" stop-color="#15A9D0"/>
<stop offset="0.2375" stop-color="#0C89A9"/>
<stop offset="0.3819" stop-color="#057D9B"/>
<stop offset="0.5356" stop-color="#D6248E"/>
<stop offset="0.6969" stop-color="#EF30A2"/>
<stop offset="0.8618" stop-color="#F276C0"/>
<stop offset="1" stop-color="#FFADDE"/>
</linearGradient>
<linearGradient id="paint6_linear_288_1523" x1="33.0588" y1="124.706" x2="8.95238" y2="127.775" gradientUnits="userSpaceOnUse">
<stop stop-color="#1BBEE9"/>
<stop offset="0.1063" stop-color="#15A9D0"/>
<stop offset="0.2375" stop-color="#0C89A9"/>
<stop offset="0.3819" stop-color="#057D9B"/>
<stop offset="0.5356" stop-color="#D6248E"/>
<stop offset="0.6969" stop-color="#EF30A2"/>
<stop offset="0.8618" stop-color="#F276C0"/>
<stop offset="1" stop-color="#FFADDE"/>
</linearGradient>
<linearGradient id="paint7_linear_288_1523" x1="33.0588" y1="102.098" x2="8.9514" y2="105.162" gradientUnits="userSpaceOnUse">
<stop stop-color="#1BBEE9"/>
<stop offset="0.1063" stop-color="#15A9D0"/>
<stop offset="0.2375" stop-color="#0C89A9"/>
<stop offset="0.415" stop-color="#057D9B"/>
<stop offset="0.5356" stop-color="#D6248E"/>
<stop offset="0.6969" stop-color="#EF30A2"/>
<stop offset="0.8618" stop-color="#F276C0"/>
<stop offset="1" stop-color="#FFADDE"/>
</linearGradient>
<linearGradient id="paint8_linear_288_1523" x1="78.523" y1="515.947" x2="67.6965" y2="526.939" gradientUnits="userSpaceOnUse">
<stop stop-color="#1BBEE9"/>
<stop offset="0.1063" stop-color="#15A9D0"/>
<stop offset="0.2375" stop-color="#0C89A9"/>
<stop offset="0.3819" stop-color="#057D9B"/>
<stop offset="0.5356" stop-color="#D6248E"/>
<stop offset="0.6969" stop-color="#EF30A2"/>
<stop offset="0.8618" stop-color="#F276C0"/>
<stop offset="1" stop-color="#FFADDE"/>
</linearGradient>
<linearGradient id="paint9_linear_288_1523" x1="78.523" y1="508.213" x2="67.6965" y2="519.205" gradientUnits="userSpaceOnUse">
<stop stop-color="#1BBEE9"/>
<stop offset="0.1063" stop-color="#15A9D0"/>
<stop offset="0.2375" stop-color="#0C89A9"/>
<stop offset="0.3819" stop-color="#057D9B"/>
<stop offset="0.5356" stop-color="#D6248E"/>
<stop offset="0.6969" stop-color="#EF30A2"/>
<stop offset="0.8618" stop-color="#F276C0"/>
<stop offset="1" stop-color="#FFADDE"/>
</linearGradient>
<linearGradient id="paint10_linear_288_1523" x1="78.523" y1="500.438" x2="67.6965" y2="511.431" gradientUnits="userSpaceOnUse">
<stop stop-color="#1BBEE9"/>
<stop offset="0.1063" stop-color="#15A9D0"/>
<stop offset="0.2375" stop-color="#0C89A9"/>
<stop offset="0.3819" stop-color="#057D9B"/>
<stop offset="0.5356" stop-color="#D6248E"/>
<stop offset="0.6969" stop-color="#EF30A2"/>
<stop offset="0.8618" stop-color="#F276C0"/>
<stop offset="1" stop-color="#FFADDE"/>
</linearGradient>
<linearGradient id="paint11_linear_288_1523" x1="78.523" y1="492.704" x2="67.6965" y2="503.696" gradientUnits="userSpaceOnUse">
<stop stop-color="#1BBEE9"/>
<stop offset="0.1063" stop-color="#15A9D0"/>
<stop offset="0.2375" stop-color="#0C89A9"/>
<stop offset="0.3819" stop-color="#057D9B"/>
<stop offset="0.5356" stop-color="#D6248E"/>
<stop offset="0.6969" stop-color="#EF30A2"/>
<stop offset="0.8618" stop-color="#F276C0"/>
<stop offset="1" stop-color="#FFADDE"/>
</linearGradient>
<linearGradient id="paint12_linear_288_1523" x1="78.523" y1="484.969" x2="67.6965" y2="495.961" gradientUnits="userSpaceOnUse">
<stop stop-color="#1BBEE9"/>
<stop offset="0.1063" stop-color="#15A9D0"/>
<stop offset="0.2375" stop-color="#0C89A9"/>
<stop offset="0.3819" stop-color="#057D9B"/>
<stop offset="0.5356" stop-color="#D6248E"/>
<stop offset="0.6969" stop-color="#EF30A2"/>
<stop offset="0.8618" stop-color="#F276C0"/>
<stop offset="1" stop-color="#FFADDE"/>
</linearGradient>
<linearGradient id="paint13_linear_288_1523" x1="78.523" y1="477.195" x2="67.6965" y2="488.187" gradientUnits="userSpaceOnUse">
<stop stop-color="#1BBEE9"/>
<stop offset="0.1063" stop-color="#15A9D0"/>
<stop offset="0.2375" stop-color="#0C89A9"/>
<stop offset="0.3819" stop-color="#057D9B"/>
<stop offset="0.5356" stop-color="#D6248E"/>
<stop offset="0.6969" stop-color="#EF30A2"/>
<stop offset="0.8618" stop-color="#F276C0"/>
<stop offset="1" stop-color="#FFADDE"/>
</linearGradient>
<linearGradient id="paint14_linear_288_1523" x1="78.523" y1="469.46" x2="67.6965" y2="480.452" gradientUnits="userSpaceOnUse">
<stop stop-color="#1BBEE9"/>
<stop offset="0.1063" stop-color="#15A9D0"/>
<stop offset="0.2375" stop-color="#0C89A9"/>
<stop offset="0.3819" stop-color="#057D9B"/>
<stop offset="0.5356" stop-color="#D6248E"/>
<stop offset="0.6969" stop-color="#EF30A2"/>
<stop offset="0.8618" stop-color="#F276C0"/>
<stop offset="1" stop-color="#FFADDE"/>
</linearGradient>
<linearGradient id="paint15_linear_288_1523" x1="78.523" y1="461.686" x2="67.6965" y2="472.679" gradientUnits="userSpaceOnUse">
<stop stop-color="#1BBEE9"/>
<stop offset="0.1063" stop-color="#15A9D0"/>
<stop offset="0.2375" stop-color="#0C89A9"/>
<stop offset="0.3819" stop-color="#057D9B"/>
<stop offset="0.5356" stop-color="#D6248E"/>
<stop offset="0.6969" stop-color="#EF30A2"/>
<stop offset="0.8618" stop-color="#F276C0"/>
<stop offset="1" stop-color="#FFADDE"/>
</linearGradient>
<linearGradient id="paint16_linear_288_1523" x1="78.523" y1="453.952" x2="67.6965" y2="464.944" gradientUnits="userSpaceOnUse">
<stop stop-color="#1BBEE9"/>
<stop offset="0.1063" stop-color="#15A9D0"/>
<stop offset="0.2375" stop-color="#0C89A9"/>
<stop offset="0.3819" stop-color="#057D9B"/>
<stop offset="0.5356" stop-color="#D6248E"/>
<stop offset="0.6969" stop-color="#EF30A2"/>
<stop offset="0.8618" stop-color="#F276C0"/>
<stop offset="1" stop-color="#FFADDE"/>
</linearGradient>
<linearGradient id="paint17_linear_288_1523" x1="78.523" y1="446.179" x2="67.6965" y2="457.171" gradientUnits="userSpaceOnUse">
<stop stop-color="#1BBEE9"/>
<stop offset="0.1063" stop-color="#15A9D0"/>
<stop offset="0.2375" stop-color="#0C89A9"/>
<stop offset="0.3819" stop-color="#057D9B"/>
<stop offset="0.5356" stop-color="#D6248E"/>
<stop offset="0.6969" stop-color="#EF30A2"/>
<stop offset="0.8618" stop-color="#F276C0"/>
<stop offset="1" stop-color="#FFADDE"/>
</linearGradient>
<linearGradient id="paint18_linear_288_1523" x1="78.523" y1="438.444" x2="67.6965" y2="449.437" gradientUnits="userSpaceOnUse">
<stop stop-color="#1BBEE9"/>
<stop offset="0.1063" stop-color="#15A9D0"/>
<stop offset="0.2375" stop-color="#0C89A9"/>
<stop offset="0.3819" stop-color="#057D9B"/>
<stop offset="0.5356" stop-color="#D6248E"/>
<stop offset="0.6969" stop-color="#EF30A2"/>
<stop offset="0.8618" stop-color="#F276C0"/>
<stop offset="1" stop-color="#FFADDE"/>
</linearGradient>
<linearGradient id="paint19_linear_288_1523" x1="78.523" y1="430.709" x2="67.6965" y2="441.701" gradientUnits="userSpaceOnUse">
<stop stop-color="#1BBEE9"/>
<stop offset="0.1063" stop-color="#15A9D0"/>
<stop offset="0.2375" stop-color="#0C89A9"/>
<stop offset="0.3819" stop-color="#057D9B"/>
<stop offset="0.5356" stop-color="#D6248E"/>
<stop offset="0.6969" stop-color="#EF30A2"/>
<stop offset="0.8618" stop-color="#F276C0"/>
<stop offset="1" stop-color="#FFADDE"/>
</linearGradient>
<linearGradient id="paint20_linear_288_1523" x1="78.523" y1="422.935" x2="67.6965" y2="433.928" gradientUnits="userSpaceOnUse">
<stop stop-color="#1BBEE9"/>
<stop offset="0.1063" stop-color="#15A9D0"/>
<stop offset="0.2375" stop-color="#0C89A9"/>
<stop offset="0.3819" stop-color="#057D9B"/>
<stop offset="0.5356" stop-color="#D6248E"/>
<stop offset="0.6969" stop-color="#EF30A2"/>
<stop offset="0.8618" stop-color="#F276C0"/>
<stop offset="1" stop-color="#FFADDE"/>
</linearGradient>
<linearGradient id="paint21_linear_288_1523" x1="78.523" y1="415.201" x2="67.6965" y2="426.193" gradientUnits="userSpaceOnUse">
<stop stop-color="#1BBEE9"/>
<stop offset="0.1063" stop-color="#15A9D0"/>
<stop offset="0.2375" stop-color="#0C89A9"/>
<stop offset="0.3819" stop-color="#057D9B"/>
<stop offset="0.5356" stop-color="#D6248E"/>
<stop offset="0.6969" stop-color="#EF30A2"/>
<stop offset="0.8618" stop-color="#F276C0"/>
<stop offset="1" stop-color="#FFADDE"/>
</linearGradient>
<linearGradient id="paint22_linear_288_1523" x1="78.523" y1="407.427" x2="67.6965" y2="418.419" gradientUnits="userSpaceOnUse">
<stop stop-color="#1BBEE9"/>
<stop offset="0.1063" stop-color="#15A9D0"/>
<stop offset="0.2375" stop-color="#0C89A9"/>
<stop offset="0.3819" stop-color="#057D9B"/>
<stop offset="0.5356" stop-color="#D6248E"/>
<stop offset="0.6969" stop-color="#EF30A2"/>
<stop offset="0.8618" stop-color="#F276C0"/>
<stop offset="1" stop-color="#FFADDE"/>
</linearGradient>
<linearGradient id="paint23_linear_288_1523" x1="78.523" y1="399.692" x2="67.6965" y2="410.685" gradientUnits="userSpaceOnUse">
<stop stop-color="#1BBEE9"/>
<stop offset="0.1063" stop-color="#15A9D0"/>
<stop offset="0.2375" stop-color="#0C89A9"/>
<stop offset="0.3819" stop-color="#057D9B"/>
<stop offset="0.5356" stop-color="#D6248E"/>
<stop offset="0.6969" stop-color="#EF30A2"/>
<stop offset="0.8618" stop-color="#F276C0"/>
<stop offset="1" stop-color="#FFADDE"/>
</linearGradient>
<linearGradient id="paint24_linear_288_1523" x1="878.259" y1="259.509" x2="854.153" y2="262.577" gradientUnits="userSpaceOnUse">
<stop stop-color="#1BBEE9"/>
<stop offset="0.1063" stop-color="#15A9D0"/>
<stop offset="0.2375" stop-color="#0C89A9"/>
<stop offset="0.3819" stop-color="#057D9B"/>
<stop offset="0.5356" stop-color="#D6248E"/>
<stop offset="0.6969" stop-color="#EF30A2"/>
<stop offset="0.8618" stop-color="#F276C0"/>
<stop offset="1" stop-color="#FFADDE"/>
</linearGradient>
<linearGradient id="paint25_linear_288_1523" x1="878.259" y1="237.055" x2="854.153" y2="240.123" gradientUnits="userSpaceOnUse">
<stop stop-color="#1BBEE9"/>
<stop offset="0.1063" stop-color="#15A9D0"/>
<stop offset="0.2375" stop-color="#0C89A9"/>
<stop offset="0.3819" stop-color="#057D9B"/>
<stop offset="0.5356" stop-color="#D6248E"/>
<stop offset="0.6969" stop-color="#EF30A2"/>
<stop offset="0.8618" stop-color="#F276C0"/>
<stop offset="1" stop-color="#FFADDE"/>
</linearGradient>
<linearGradient id="paint26_linear_288_1523" x1="878.259" y1="214.447" x2="854.152" y2="217.512" gradientUnits="userSpaceOnUse">
<stop stop-color="#1BBEE9"/>
<stop offset="0.1063" stop-color="#15A9D0"/>
<stop offset="0.2375" stop-color="#0C89A9"/>
<stop offset="0.3819" stop-color="#057D9B"/>
<stop offset="0.5356" stop-color="#D6248E"/>
<stop offset="0.6969" stop-color="#EF30A2"/>
<stop offset="0.8618" stop-color="#F276C0"/>
<stop offset="1" stop-color="#FFADDE"/>
</linearGradient>
<linearGradient id="paint27_linear_288_1523" x1="878.259" y1="192.107" x2="854.153" y2="195.176" gradientUnits="userSpaceOnUse">
<stop stop-color="#1BBEE9"/>
<stop offset="0.1063" stop-color="#15A9D0"/>
<stop offset="0.2375" stop-color="#0C89A9"/>
<stop offset="0.3819" stop-color="#057D9B"/>
<stop offset="0.5356" stop-color="#D6248E"/>
<stop offset="0.6969" stop-color="#EF30A2"/>
<stop offset="0.8618" stop-color="#F276C0"/>
<stop offset="1" stop-color="#FFADDE"/>
</linearGradient>
<linearGradient id="paint28_linear_288_1523" x1="878.259" y1="169.653" x2="854.153" y2="172.722" gradientUnits="userSpaceOnUse">
<stop stop-color="#1BBEE9"/>
<stop offset="0.1063" stop-color="#15A9D0"/>
<stop offset="0.2375" stop-color="#0C89A9"/>
<stop offset="0.3819" stop-color="#057D9B"/>
<stop offset="0.5356" stop-color="#D6248E"/>
<stop offset="0.6969" stop-color="#EF30A2"/>
<stop offset="0.8618" stop-color="#F276C0"/>
<stop offset="1" stop-color="#FFADDE"/>
</linearGradient>
<linearGradient id="paint29_linear_288_1523" x1="878.259" y1="147.161" x2="854.153" y2="150.23" gradientUnits="userSpaceOnUse">
<stop stop-color="#1BBEE9"/>
<stop offset="0.1063" stop-color="#15A9D0"/>
<stop offset="0.2375" stop-color="#0C89A9"/>
<stop offset="0.3819" stop-color="#057D9B"/>
<stop offset="0.5356" stop-color="#D6248E"/>
<stop offset="0.6969" stop-color="#EF30A2"/>
<stop offset="0.8618" stop-color="#F276C0"/>
<stop offset="1" stop-color="#FFADDE"/>
</linearGradient>
<linearGradient id="paint30_linear_288_1523" x1="878.259" y1="124.707" x2="854.153" y2="127.776" gradientUnits="userSpaceOnUse">
<stop stop-color="#1BBEE9"/>
<stop offset="0.1063" stop-color="#15A9D0"/>
<stop offset="0.2375" stop-color="#0C89A9"/>
<stop offset="0.3819" stop-color="#057D9B"/>
<stop offset="0.5356" stop-color="#D6248E"/>
<stop offset="0.6969" stop-color="#EF30A2"/>
<stop offset="0.8618" stop-color="#F276C0"/>
<stop offset="1" stop-color="#FFADDE"/>
</linearGradient>
<linearGradient id="paint31_linear_288_1523" x1="878.259" y1="102.098" x2="854.152" y2="105.162" gradientUnits="userSpaceOnUse">
<stop stop-color="#1BBEE9"/>
<stop offset="0.1063" stop-color="#15A9D0"/>
<stop offset="0.2375" stop-color="#0C89A9"/>
<stop offset="0.3819" stop-color="#057D9B"/>
<stop offset="0.5356" stop-color="#D6248E"/>
<stop offset="0.6969" stop-color="#EF30A2"/>
<stop offset="0.8618" stop-color="#F276C0"/>
<stop offset="1" stop-color="#FFADDE"/>
</linearGradient>
<linearGradient id="paint32_linear_288_1523" x1="624.528" y1="454.805" x2="610.542" y2="572.244" gradientUnits="userSpaceOnUse">
<stop stop-color="#1BBEE9"/>
<stop offset="0.1063" stop-color="#15A9D0"/>
<stop offset="0.2375" stop-color="#0C89A9"/>
<stop offset="0.3819" stop-color="#057D9B"/>
<stop offset="0.5356" stop-color="#D6248E"/>
<stop offset="0.6969" stop-color="#EF30A2"/>
<stop offset="0.8618" stop-color="#F276C0"/>
<stop offset="1" stop-color="#FFADDE"/>
</linearGradient>
<linearGradient id="paint33_linear_288_1523" x1="602.905" y1="497.632" x2="563.579" y2="512.799" gradientUnits="userSpaceOnUse">
<stop stop-color="#1BBEE9"/>
<stop offset="0.1063" stop-color="#15A9D0"/>
<stop offset="0.2375" stop-color="#0C89A9"/>
<stop offset="0.3819" stop-color="#057D9B"/>
<stop offset="0.5356" stop-color="#D6248E"/>
<stop offset="0.6969" stop-color="#EF30A2"/>
<stop offset="0.8618" stop-color="#F276C0"/>
<stop offset="1" stop-color="#FFADDE"/>
</linearGradient>
<linearGradient id="paint34_linear_288_1523" x1="579.109" y1="497.632" x2="539.783" y2="512.799" gradientUnits="userSpaceOnUse">
<stop stop-color="#1BBEE9"/>
<stop offset="0.1063" stop-color="#15A9D0"/>
<stop offset="0.2375" stop-color="#0C89A9"/>
<stop offset="0.3819" stop-color="#057D9B"/>
<stop offset="0.5356" stop-color="#D6248E"/>
<stop offset="0.6969" stop-color="#EF30A2"/>
<stop offset="0.8618" stop-color="#F276C0"/>
<stop offset="1" stop-color="#FFADDE"/>
</linearGradient>
<linearGradient id="paint35_linear_288_1523" x1="555.313" y1="497.632" x2="515.988" y2="512.799" gradientUnits="userSpaceOnUse">
<stop stop-color="#1BBEE9"/>
<stop offset="0.1063" stop-color="#15A9D0"/>
<stop offset="0.2375" stop-color="#0C89A9"/>
<stop offset="0.3819" stop-color="#057D9B"/>
<stop offset="0.5356" stop-color="#D6248E"/>
<stop offset="0.6969" stop-color="#EF30A2"/>
<stop offset="0.8618" stop-color="#F276C0"/>
<stop offset="1" stop-color="#FFADDE"/>
</linearGradient>
<linearGradient id="paint36_linear_288_1523" x1="531.547" y1="497.632" x2="492.186" y2="512.831" gradientUnits="userSpaceOnUse">
<stop stop-color="#1BBEE9"/>
<stop offset="0.1063" stop-color="#15A9D0"/>
<stop offset="0.2375" stop-color="#0C89A9"/>
<stop offset="0.3819" stop-color="#057D9B"/>
<stop offset="0.5356" stop-color="#D6248E"/>
<stop offset="0.6969" stop-color="#EF30A2"/>
<stop offset="0.8618" stop-color="#F276C0"/>
<stop offset="1" stop-color="#FFADDE"/>
</linearGradient>
<linearGradient id="paint37_linear_288_1523" x1="507.762" y1="497.632" x2="468.436" y2="512.799" gradientUnits="userSpaceOnUse">
<stop stop-color="#1BBEE9"/>
<stop offset="0.1063" stop-color="#15A9D0"/>
<stop offset="0.2375" stop-color="#0C89A9"/>
<stop offset="0.3819" stop-color="#057D9B"/>
<stop offset="0.5356" stop-color="#D6248E"/>
<stop offset="0.6969" stop-color="#EF30A2"/>
<stop offset="0.8618" stop-color="#F276C0"/>
<stop offset="1" stop-color="#FFADDE"/>
</linearGradient>
<linearGradient id="paint38_linear_288_1523" x1="483.966" y1="497.632" x2="444.64" y2="512.799" gradientUnits="userSpaceOnUse">
<stop stop-color="#1BBEE9"/>
<stop offset="0.1063" stop-color="#15A9D0"/>
<stop offset="0.2375" stop-color="#0C89A9"/>
<stop offset="0.3819" stop-color="#057D9B"/>
<stop offset="0.5356" stop-color="#D6248E"/>
<stop offset="0.6969" stop-color="#EF30A2"/>
<stop offset="0.8618" stop-color="#F276C0"/>
<stop offset="1" stop-color="#FFADDE"/>
</linearGradient>
<linearGradient id="paint39_linear_288_1523" x1="317.554" y1="497.632" x2="278.228" y2="512.799" gradientUnits="userSpaceOnUse">
<stop stop-color="#1BBEE9"/>
<stop offset="0.1063" stop-color="#15A9D0"/>
<stop offset="0.2375" stop-color="#0C89A9"/>
<stop offset="0.3819" stop-color="#057D9B"/>
<stop offset="0.5356" stop-color="#D6248E"/>
<stop offset="0.6969" stop-color="#EF30A2"/>
<stop offset="0.8618" stop-color="#F276C0"/>
<stop offset="1" stop-color="#FFADDE"/>
</linearGradient>
<linearGradient id="paint40_linear_288_1523" x1="341.349" y1="497.632" x2="302.024" y2="512.799" gradientUnits="userSpaceOnUse">
<stop stop-color="#1BBEE9"/>
<stop offset="0.1063" stop-color="#15A9D0"/>
<stop offset="0.2375" stop-color="#0C89A9"/>
<stop offset="0.3819" stop-color="#057D9B"/>
<stop offset="0.5356" stop-color="#D6248E"/>
<stop offset="0.6969" stop-color="#EF30A2"/>
<stop offset="0.8618" stop-color="#F276C0"/>
<stop offset="1" stop-color="#FFADDE"/>
</linearGradient>
<linearGradient id="paint41_linear_288_1523" x1="365.145" y1="497.632" x2="325.82" y2="512.799" gradientUnits="userSpaceOnUse">
<stop stop-color="#1BBEE9"/>
<stop offset="0.1063" stop-color="#15A9D0"/>
<stop offset="0.2375" stop-color="#0C89A9"/>
<stop offset="0.3819" stop-color="#057D9B"/>
<stop offset="0.5356" stop-color="#D6248E"/>
<stop offset="0.6969" stop-color="#EF30A2"/>
<stop offset="0.8618" stop-color="#F276C0"/>
<stop offset="1" stop-color="#FFADDE"/>
</linearGradient>
<linearGradient id="paint42_linear_288_1523" x1="388.901" y1="497.632" x2="349.575" y2="512.799" gradientUnits="userSpaceOnUse">
<stop stop-color="#1BBEE9"/>
<stop offset="0.1063" stop-color="#15A9D0"/>
<stop offset="0.2375" stop-color="#0C89A9"/>
<stop offset="0.3819" stop-color="#057D9B"/>
<stop offset="0.5356" stop-color="#D6248E"/>
<stop offset="0.6969" stop-color="#EF30A2"/>
<stop offset="0.8618" stop-color="#F276C0"/>
<stop offset="1" stop-color="#FFADDE"/>
</linearGradient>
<linearGradient id="paint43_linear_288_1523" x1="412.697" y1="497.632" x2="373.371" y2="512.799" gradientUnits="userSpaceOnUse">
<stop stop-color="#1BBEE9"/>
<stop offset="0.1063" stop-color="#15A9D0"/>
<stop offset="0.2375" stop-color="#0C89A9"/>
<stop offset="0.3819" stop-color="#057D9B"/>
<stop offset="0.5356" stop-color="#D6248E"/>
<stop offset="0.6969" stop-color="#EF30A2"/>
<stop offset="0.8618" stop-color="#F276C0"/>
<stop offset="1" stop-color="#FFADDE"/>
</linearGradient>
<linearGradient id="paint44_linear_288_1523" x1="436.492" y1="497.632" x2="397.167" y2="512.799" gradientUnits="userSpaceOnUse">
<stop stop-color="#1BBEE9"/>
<stop offset="0.1063" stop-color="#15A9D0"/>
<stop offset="0.2375" stop-color="#0C89A9"/>
<stop offset="0.3819" stop-color="#057D9B"/>
<stop offset="0.5356" stop-color="#D6248E"/>
<stop offset="0.6969" stop-color="#EF30A2"/>
<stop offset="0.8618" stop-color="#F276C0"/>
<stop offset="1" stop-color="#FFADDE"/>
</linearGradient>
<linearGradient id="paint45_linear_288_1523" x1="831.065" y1="515.947" x2="820.239" y2="526.939" gradientUnits="userSpaceOnUse">
<stop stop-color="#1BBEE9"/>
<stop offset="0.1063" stop-color="#15A9D0"/>
<stop offset="0.2375" stop-color="#0C89A9"/>
<stop offset="0.3819" stop-color="#057D9B"/>
<stop offset="0.5356" stop-color="#D6248E"/>
<stop offset="0.6969" stop-color="#EF30A2"/>
<stop offset="0.8618" stop-color="#F276C0"/>
<stop offset="1" stop-color="#FFADDE"/>
</linearGradient>
<linearGradient id="paint46_linear_288_1523" x1="831.065" y1="508.213" x2="820.239" y2="519.205" gradientUnits="userSpaceOnUse">
<stop stop-color="#1BBEE9"/>
<stop offset="0.1063" stop-color="#15A9D0"/>
<stop offset="0.2375" stop-color="#0C89A9"/>
<stop offset="0.3819" stop-color="#057D9B"/>
<stop offset="0.5356" stop-color="#D6248E"/>
<stop offset="0.6969" stop-color="#EF30A2"/>
<stop offset="0.8618" stop-color="#F276C0"/>
<stop offset="1" stop-color="#FFADDE"/>
</linearGradient>
<linearGradient id="paint47_linear_288_1523" x1="831.065" y1="500.438" x2="820.239" y2="511.431" gradientUnits="userSpaceOnUse">
<stop stop-color="#1BBEE9"/>
<stop offset="0.1063" stop-color="#15A9D0"/>
<stop offset="0.2375" stop-color="#0C89A9"/>
<stop offset="0.3819" stop-color="#057D9B"/>
<stop offset="0.5356" stop-color="#D6248E"/>
<stop offset="0.6969" stop-color="#EF30A2"/>
<stop offset="0.8618" stop-color="#F276C0"/>
<stop offset="1" stop-color="#FFADDE"/>
</linearGradient>
<linearGradient id="paint48_linear_288_1523" x1="831.065" y1="492.704" x2="820.239" y2="503.696" gradientUnits="userSpaceOnUse">
<stop stop-color="#1BBEE9"/>
<stop offset="0.1063" stop-color="#15A9D0"/>
<stop offset="0.2375" stop-color="#0C89A9"/>
<stop offset="0.3819" stop-color="#057D9B"/>
<stop offset="0.5356" stop-color="#D6248E"/>
<stop offset="0.6969" stop-color="#EF30A2"/>
<stop offset="0.8618" stop-color="#F276C0"/>
<stop offset="1" stop-color="#FFADDE"/>
</linearGradient>
<linearGradient id="paint49_linear_288_1523" x1="831.065" y1="484.969" x2="820.239" y2="495.961" gradientUnits="userSpaceOnUse">
<stop stop-color="#1BBEE9"/>
<stop offset="0.1063" stop-color="#15A9D0"/>
<stop offset="0.2375" stop-color="#0C89A9"/>
<stop offset="0.3819" stop-color="#057D9B"/>
<stop offset="0.5356" stop-color="#D6248E"/>
<stop offset="0.6969" stop-color="#EF30A2"/>
<stop offset="0.8618" stop-color="#F276C0"/>
<stop offset="1" stop-color="#FFADDE"/>
</linearGradient>
<linearGradient id="paint50_linear_288_1523" x1="831.065" y1="477.195" x2="820.239" y2="488.187" gradientUnits="userSpaceOnUse">
<stop stop-color="#1BBEE9"/>
<stop offset="0.1063" stop-color="#15A9D0"/>
<stop offset="0.2375" stop-color="#0C89A9"/>
<stop offset="0.3819" stop-color="#057D9B"/>
<stop offset="0.5356" stop-color="#D6248E"/>
<stop offset="0.6969" stop-color="#EF30A2"/>
<stop offset="0.8618" stop-color="#F276C0"/>
<stop offset="1" stop-color="#FFADDE"/>
</linearGradient>
<linearGradient id="paint51_linear_288_1523" x1="831.065" y1="469.46" x2="820.239" y2="480.452" gradientUnits="userSpaceOnUse">
<stop stop-color="#1BBEE9"/>
<stop offset="0.1063" stop-color="#15A9D0"/>
<stop offset="0.2375" stop-color="#0C89A9"/>
<stop offset="0.3819" stop-color="#057D9B"/>
<stop offset="0.5356" stop-color="#D6248E"/>
<stop offset="0.6969" stop-color="#EF30A2"/>
<stop offset="0.8618" stop-color="#F276C0"/>
<stop offset="1" stop-color="#FFADDE"/>
</linearGradient>
<linearGradient id="paint52_linear_288_1523" x1="831.065" y1="461.686" x2="820.239" y2="472.679" gradientUnits="userSpaceOnUse">
<stop stop-color="#1BBEE9"/>
<stop offset="0.1063" stop-color="#15A9D0"/>
<stop offset="0.2375" stop-color="#0C89A9"/>
<stop offset="0.3819" stop-color="#057D9B"/>
<stop offset="0.5356" stop-color="#D6248E"/>
<stop offset="0.6969" stop-color="#EF30A2"/>
<stop offset="0.8618" stop-color="#F276C0"/>
<stop offset="1" stop-color="#FFADDE"/>
</linearGradient>
<linearGradient id="paint53_linear_288_1523" x1="831.065" y1="453.952" x2="820.239" y2="464.944" gradientUnits="userSpaceOnUse">
<stop stop-color="#1BBEE9"/>
<stop offset="0.1063" stop-color="#15A9D0"/>
<stop offset="0.2375" stop-color="#0C89A9"/>
<stop offset="0.3819" stop-color="#057D9B"/>
<stop offset="0.5356" stop-color="#D6248E"/>
<stop offset="0.6969" stop-color="#EF30A2"/>
<stop offset="0.8618" stop-color="#F276C0"/>
<stop offset="1" stop-color="#FFADDE"/>
</linearGradient>
<linearGradient id="paint54_linear_288_1523" x1="831.065" y1="446.179" x2="820.239" y2="457.171" gradientUnits="userSpaceOnUse">
<stop stop-color="#1BBEE9"/>
<stop offset="0.1063" stop-color="#15A9D0"/>
<stop offset="0.2375" stop-color="#0C89A9"/>
<stop offset="0.3819" stop-color="#057D9B"/>
<stop offset="0.5356" stop-color="#D6248E"/>
<stop offset="0.6969" stop-color="#EF30A2"/>
<stop offset="0.8618" stop-color="#F276C0"/>
<stop offset="1" stop-color="#FFADDE"/>
</linearGradient>
<linearGradient id="paint55_linear_288_1523" x1="831.065" y1="438.444" x2="820.239" y2="449.437" gradientUnits="userSpaceOnUse">
<stop stop-color="#1BBEE9"/>
<stop offset="0.1063" stop-color="#15A9D0"/>
<stop offset="0.2375" stop-color="#0C89A9"/>
<stop offset="0.3819" stop-color="#057D9B"/>
<stop offset="0.5356" stop-color="#D6248E"/>
<stop offset="0.6969" stop-color="#EF30A2"/>
<stop offset="0.8618" stop-color="#F276C0"/>
<stop offset="1" stop-color="#FFADDE"/>
</linearGradient>
<linearGradient id="paint56_linear_288_1523" x1="831.065" y1="430.709" x2="820.239" y2="441.701" gradientUnits="userSpaceOnUse">
<stop stop-color="#1BBEE9"/>
<stop offset="0.1063" stop-color="#15A9D0"/>
<stop offset="0.2375" stop-color="#0C89A9"/>
<stop offset="0.3819" stop-color="#057D9B"/>
<stop offset="0.5356" stop-color="#D6248E"/>
<stop offset="0.6969" stop-color="#EF30A2"/>
<stop offset="0.8618" stop-color="#F276C0"/>
<stop offset="1" stop-color="#FFADDE"/>
</linearGradient>
<linearGradient id="paint57_linear_288_1523" x1="831.065" y1="422.935" x2="820.239" y2="433.928" gradientUnits="userSpaceOnUse">
<stop stop-color="#1BBEE9"/>
<stop offset="0.1063" stop-color="#15A9D0"/>
<stop offset="0.2375" stop-color="#0C89A9"/>
<stop offset="0.3819" stop-color="#057D9B"/>
<stop offset="0.5356" stop-color="#D6248E"/>
<stop offset="0.6969" stop-color="#EF30A2"/>
<stop offset="0.8618" stop-color="#F276C0"/>
<stop offset="1" stop-color="#FFADDE"/>
</linearGradient>
<linearGradient id="paint58_linear_288_1523" x1="831.065" y1="415.201" x2="820.239" y2="426.193" gradientUnits="userSpaceOnUse">
<stop stop-color="#1BBEE9"/>
<stop offset="0.1063" stop-color="#15A9D0"/>
<stop offset="0.2375" stop-color="#0C89A9"/>
<stop offset="0.3819" stop-color="#057D9B"/>
<stop offset="0.5356" stop-color="#D6248E"/>
<stop offset="0.6969" stop-color="#EF30A2"/>
<stop offset="0.8618" stop-color="#F276C0"/>
<stop offset="1" stop-color="#FFADDE"/>
</linearGradient>
<linearGradient id="paint59_linear_288_1523" x1="831.065" y1="407.427" x2="820.239" y2="418.419" gradientUnits="userSpaceOnUse">
<stop stop-color="#1BBEE9"/>
<stop offset="0.1063" stop-color="#15A9D0"/>
<stop offset="0.2375" stop-color="#0C89A9"/>
<stop offset="0.3819" stop-color="#057D9B"/>
<stop offset="0.5356" stop-color="#D6248E"/>
<stop offset="0.6969" stop-color="#EF30A2"/>
<stop offset="0.8618" stop-color="#F276C0"/>
<stop offset="1" stop-color="#FFADDE"/>
</linearGradient>
<linearGradient id="paint60_linear_288_1523" x1="831.065" y1="399.692" x2="820.239" y2="410.685" gradientUnits="userSpaceOnUse">
<stop stop-color="#1BBEE9"/>
<stop offset="0.1063" stop-color="#15A9D0"/>
<stop offset="0.2375" stop-color="#0C89A9"/>
<stop offset="0.3819" stop-color="#057D9B"/>
<stop offset="0.5356" stop-color="#D6248E"/>
<stop offset="0.6969" stop-color="#EF30A2"/>
<stop offset="0.8618" stop-color="#F276C0"/>
<stop offset="1" stop-color="#FFADDE"/>
</linearGradient>
<linearGradient id="paint61_linear_288_1523" x1="615.616" y1="-265.466" x2="325.667" y2="144.843" gradientUnits="userSpaceOnUse">
<stop stop-color="#109AE4"/>
<stop offset="0.1063" stop-color="#27ABF1"/>
<stop offset="0.2375" stop-color="#2BAAEE"/>
<stop offset="0.3819" stop-color="#3BB1F0"/>
<stop offset="0.5356" stop-color="#7581F7"/>
<stop offset="0.6969" stop-color="#EF30A2"/>
<stop offset="0.8618" stop-color="#F276C0"/>
<stop offset="1" stop-color="#FFADDE"/>
</linearGradient>
<radialGradient id="paint62_radial_288_1523" cx="0" cy="0" r="1" gradientUnits="userSpaceOnUse" gradientTransform="translate(852.223 291.62) rotate(-90) scale(126.235 4.45397)">
<stop stop-color="white"/>
<stop offset="1" stop-color="white" stop-opacity="0"/>
</radialGradient>
<radialGradient id="paint63_radial_288_1523" cx="0" cy="0" r="1" gradientUnits="userSpaceOnUse" gradientTransform="translate(49.8359 469.683) rotate(-90) scale(82.6592 4.49657)">
<stop stop-color="white"/>
<stop offset="1" stop-color="white" stop-opacity="0"/>
</radialGradient>
<radialGradient id="paint64_radial_288_1523" cx="0" cy="0" r="1" gradientUnits="userSpaceOnUse" gradientTransform="translate(234.581 559.282) rotate(-180) scale(82.666 4.49694)">
<stop stop-color="white"/>
<stop offset="1" stop-color="white" stop-opacity="0"/>
</radialGradient>
<radialGradient id="paint65_radial_288_1523" cx="0" cy="0" r="1" gradientUnits="userSpaceOnUse" gradientTransform="translate(467.122 21.4847) rotate(-180) scale(82.666 4.49694)">
<stop stop-color="white"/>
<stop offset="1" stop-color="white" stop-opacity="0"/>
</radialGradient>
</defs>
</svg>
