<svg width="18" height="14" viewBox="0 0 18 14" fill="none" xmlns="http://www.w3.org/2000/svg">
<path d="M14.7852 1.4497C13.6922 0.921174 12.5359 0.545634 11.3468 0.333008C11.1987 0.609741 11.0256 0.981949 10.9063 1.27806C9.62427 1.07884 8.35403 1.07884 7.09556 1.27806C6.97629 0.982016 6.79934 0.609741 6.64987 0.333008C5.45963 0.545732 4.30231 0.922228 3.20878 1.45246C1.03274 4.85084 0.442834 8.16471 0.737756 11.4317C2.18105 12.5455 3.57975 13.2222 4.95488 13.665C5.29663 13.1793 5.59873 12.6651 5.85807 12.1277C5.36433 11.9334 4.88836 11.694 4.4358 11.4123C4.5549 11.3211 4.67118 11.226 4.7845 11.1272C7.52681 12.4528 10.5065 12.4528 13.2161 11.1272C13.3299 11.2254 13.4462 11.3204 13.5648 11.4123C13.1115 11.6947 12.6346 11.9346 12.1399 12.1291C12.4007 12.6687 12.7023 13.1834 13.0431 13.6663C14.4195 13.2236 15.8195 12.547 17.2628 11.4317C17.6089 7.64448 16.6717 4.36102 14.7852 1.4497ZM6.2317 9.42256C5.40845 9.42256 4.73333 8.62828 4.73333 7.6611C4.73333 6.69391 5.39407 5.89829 6.2317 5.89829C7.06939 5.89829 7.74446 6.6925 7.73007 7.6611C7.73137 8.62828 7.06939 9.42256 6.2317 9.42256ZM11.7689 9.42256C10.9456 9.42256 10.2706 8.62828 10.2706 7.6611C10.2706 6.69391 10.9312 5.89829 11.7689 5.89829C12.6066 5.89829 13.2816 6.6925 13.2672 7.6611C13.2672 8.62828 12.6066 9.42256 11.7689 9.42256Z" fill="#E1DCEA"/>
</svg>
