<svg width="22" height="22" viewBox="0 0 22 22" fill="none" xmlns="http://www.w3.org/2000/svg">
<path d="M11 21.5C16.799 21.5 21.5 16.799 21.5 11C21.5 5.20101 16.799 0.5 11 0.5C5.20101 0.5 0.5 5.20101 0.5 11C0.5 16.799 5.20101 21.5 11 21.5Z" fill="#627EEA"/>
<path d="M11.3281 3.125V8.94594L16.248 11.1444L11.3281 3.125Z" fill="white" fill-opacity="0.602"/>
<path d="M11.3268 3.125L6.40625 11.1444L11.3268 8.94594V3.125Z" fill="white"/>
<path d="M11.3281 14.9175V18.8727L16.2513 12.0615L11.3281 14.9175Z" fill="white" fill-opacity="0.602"/>
<path d="M11.3268 18.8727V14.9169L6.40625 12.0615L11.3268 18.8727Z" fill="white"/>
<path d="M11.3281 14.003L16.248 11.1463L11.3281 8.94922V14.003Z" fill="white" fill-opacity="0.2"/>
<path d="M6.40625 11.1463L11.3268 14.003V8.94922L6.40625 11.1463Z" fill="white" fill-opacity="0.602"/>
</svg>
