<svg width="374" height="526" viewBox="0 0 374 526" fill="none" xmlns="http://www.w3.org/2000/svg">
<g filter="url(#filter0_d_227_1196)">
<path d="M15.6541 351.767C14.8369 350.191 12.4534 350.772 12.4534 352.547L12.4534 500.711C12.4534 505.293 16.1683 509.008 20.7509 509.008L117.666 509.008C120.969 509.008 123.953 507.04 125.255 504.005C126.547 500.99 129.502 499.026 132.782 499.002L180.983 498.644C183.669 498.624 185.523 501.328 184.536 503.826L184.083 504.973C183.318 506.91 184.746 509.008 186.828 509.008C188.909 509.008 190.335 506.91 189.568 504.975L189.112 503.826C188.122 501.329 189.974 498.624 192.66 498.644L240.858 499.002C244.138 499.026 247.093 500.99 248.385 504.005C249.687 507.04 252.672 509.008 255.974 509.008L352.906 509.008C357.488 509.008 361.203 505.293 361.203 500.711L361.203 352.547C361.203 350.772 358.82 350.191 358.002 351.767C357.185 353.344 354.802 352.762 354.802 350.987L354.802 184.274C354.802 183.133 355.037 182.005 355.492 180.96L360.513 169.437C360.968 168.392 361.203 167.263 361.203 166.123L361.203 17.974C361.203 13.3914 357.488 9.67657 352.906 9.67657L186.828 9.67654L20.7509 9.67651C16.1683 9.67651 12.4534 13.3914 12.4534 17.9739L12.4534 166.123C12.4534 167.263 12.6886 168.392 13.1441 169.437L18.1642 180.959C18.6197 182.005 18.8548 183.133 18.8548 184.274L18.8548 350.987C18.8548 352.762 16.4714 353.344 15.6541 351.767Z" fill="#111827"/>
</g>
<path d="M15.3516 342.772L15.3516 330.461L8.00067 314.12L8.00067 326.321L15.3516 342.772Z" fill="url(#paint0_linear_227_1196)"/>
<path d="M15.3516 321.924L15.3516 309.613L8.00067 293.272L8.00067 305.473L15.3516 321.924Z" fill="url(#paint1_linear_227_1196)"/>
<path d="M15.3516 301.078L15.3516 288.73L8.00067 272.388L8.00067 284.59L15.3516 301.078Z" fill="url(#paint2_linear_227_1196)"/>
<path d="M15.3516 280.191L15.3516 267.88L8.00067 251.539L8.00067 263.74L15.3516 280.191Z" fill="url(#paint3_linear_227_1196)"/>
<path d="M15.3516 259.343L15.3516 247.032L8.00067 230.69L8.00067 242.891L15.3516 259.343Z" fill="url(#paint4_linear_227_1196)"/>
<path d="M15.3516 238.459L15.3516 226.148L8.00067 209.806L8.00067 222.008L15.3516 238.459Z" fill="url(#paint5_linear_227_1196)"/>
<path d="M15.3516 217.61L15.3516 205.299L8.00067 188.957L8.00067 201.158L15.3516 217.61Z" fill="url(#paint6_linear_227_1196)"/>
<path d="M15.3516 196.762L15.3516 184.414L8.00067 168.072L8.00067 180.274L15.3516 196.762Z" fill="url(#paint7_linear_227_1196)"/>
<path d="M27.4178 481.383L34.0156 481.383L34.0156 478.158L27.4178 478.158L27.4178 481.383Z" fill="url(#paint8_linear_227_1196)"/>
<path d="M27.4178 474.201L34.0156 474.201L34.0156 470.977L27.4178 470.977L27.4178 474.201Z" fill="url(#paint9_linear_227_1196)"/>
<path d="M27.4178 466.983L34.0156 466.983L34.0156 463.759L27.4178 463.759L27.4178 466.983Z" fill="url(#paint10_linear_227_1196)"/>
<path d="M27.4178 459.802L34.0156 459.802L34.0156 456.577L27.4178 456.577L27.4178 459.802Z" fill="url(#paint11_linear_227_1196)"/>
<path d="M27.4178 452.62L34.0156 452.62L34.0156 449.395L27.4178 449.395L27.4178 452.62Z" fill="url(#paint12_linear_227_1196)"/>
<path d="M27.4178 445.402L34.0156 445.402L34.0156 442.178L27.4178 442.178L27.4178 445.402Z" fill="url(#paint13_linear_227_1196)"/>
<path d="M27.4178 438.22L34.0156 438.22L34.0156 434.995L27.4178 434.995L27.4178 438.22Z" fill="url(#paint14_linear_227_1196)"/>
<path d="M27.4178 431.002L34.0156 431.002L34.0156 427.778L27.4178 427.778L27.4178 431.002Z" fill="url(#paint15_linear_227_1196)"/>
<path d="M27.4178 423.821L34.0156 423.821L34.0156 420.596L27.4178 420.596L27.4178 423.821Z" fill="url(#paint16_linear_227_1196)"/>
<path d="M27.4178 416.604L34.0156 416.604L34.0156 413.379L27.4178 413.379L27.4178 416.604Z" fill="url(#paint17_linear_227_1196)"/>
<path d="M27.4178 409.422L34.0156 409.422L34.0156 406.198L27.4178 406.198L27.4178 409.422Z" fill="url(#paint18_linear_227_1196)"/>
<path d="M27.4178 402.24L34.0156 402.24L34.0156 399.016L27.4178 399.016L27.4178 402.24Z" fill="url(#paint19_linear_227_1196)"/>
<path d="M27.4178 395.023L34.0156 395.023L34.0156 391.799L27.4178 391.799L27.4178 395.023Z" fill="url(#paint20_linear_227_1196)"/>
<path d="M27.4178 387.841L34.0156 387.841L34.0156 384.617L27.4178 384.617L27.4178 387.841Z" fill="url(#paint21_linear_227_1196)"/>
<path d="M27.4178 380.623L34.0156 380.623L34.0156 377.398L27.4178 377.398L27.4178 380.623Z" fill="url(#paint22_linear_227_1196)"/>
<path d="M27.4178 373.441L34.0156 373.441L34.0156 370.217L27.4178 370.217L27.4178 373.441Z" fill="url(#paint23_linear_227_1196)"/>
<path d="M358.649 342.772L358.649 330.461L366 314.119L366 326.321L358.649 342.772Z" fill="url(#paint24_linear_227_1196)"/>
<path d="M358.649 321.924L358.649 309.613L366 293.271L366 305.472L358.649 321.924Z" fill="url(#paint25_linear_227_1196)"/>
<path d="M358.649 301.077L358.649 288.729L366 272.388L366 284.589L358.649 301.077Z" fill="url(#paint26_linear_227_1196)"/>
<path d="M358.649 280.191L358.649 267.88L366 251.538L366 263.739L358.649 280.191Z" fill="url(#paint27_linear_227_1196)"/>
<path d="M358.649 259.342L358.649 247.031L366 230.69L366 242.891L358.649 259.342Z" fill="url(#paint28_linear_227_1196)"/>
<path d="M358.649 238.458L358.649 226.147L366 209.806L366 222.007L358.649 238.458Z" fill="url(#paint29_linear_227_1196)"/>
<path d="M358.649 217.61L358.649 205.299L366 188.958L366 201.159L358.649 217.61Z" fill="url(#paint30_linear_227_1196)"/>
<path d="M358.649 196.761L358.649 184.414L366 168.072L366 180.273L358.649 196.761Z" fill="url(#paint31_linear_227_1196)"/>
<path d="M345.143 122.309L345.143 364.391L337.726 364.391" stroke="#31A6E4" stroke-width="0.343314" stroke-miterlimit="10"/>
<path d="M345.143 37.7073L269.145 37.7072L263.612 66.3598" stroke="#31A6E4" stroke-width="0.375567" stroke-miterlimit="10"/>
<path d="M345.143 117.29L345.143 114.505" stroke="#31A6E4" stroke-width="0.439089" stroke-miterlimit="10"/>
<path d="M345.143 109.264L345.143 106.48" stroke="#31A6E4" stroke-width="0.439089" stroke-miterlimit="10"/>
<path d="M345.143 101.241L345.143 98.4566" stroke="#31A6E4" stroke-width="0.439089" stroke-miterlimit="10"/>
<path d="M345.143 93.2163L345.143 90.4316" stroke="#31A6E4" stroke-width="0.439089" stroke-miterlimit="10"/>
<path d="M345.143 85.1919L345.143 82.4072" stroke="#31A6E4" stroke-width="0.439089" stroke-miterlimit="10"/>
<path d="M345.143 77.1689L345.143 74.3843" stroke="#31A6E4" stroke-width="0.439089" stroke-miterlimit="10"/>
<path d="M345.143 69.1436L345.143 66.3589" stroke="#31A6E4" stroke-width="0.439089" stroke-miterlimit="10"/>
<path d="M345.143 61.1191L345.143 58.2978" stroke="#31A6E4" stroke-width="0.439089" stroke-miterlimit="10"/>
<path d="M345.143 53.0957L345.143 50.2745" stroke="#31A6E4" stroke-width="0.439089" stroke-miterlimit="10"/>
<path d="M345.143 45.0713L345.143 42.25" stroke="#31A6E4" stroke-width="0.439089" stroke-miterlimit="10"/>
<path d="M30.9032 122.309L30.9032 364.391L38.3359 364.391" stroke="#BD338A" stroke-width="0.343314" stroke-miterlimit="10"/>
<path d="M30.904 37.7072L106.901 37.7073L112.533 66.3599" stroke="#BD338A" stroke-width="0.375567" stroke-miterlimit="10"/>
<path d="M30.9043 117.29L30.9043 114.505" stroke="#BD338A" stroke-width="0.439089" stroke-miterlimit="10"/>
<path d="M30.9043 109.264L30.9043 106.48" stroke="#BD338A" stroke-width="0.439089" stroke-miterlimit="10"/>
<path d="M30.9043 101.24L30.9043 98.4556" stroke="#BD338A" stroke-width="0.439089" stroke-miterlimit="10"/>
<path d="M30.9043 93.2163L30.9043 90.4316" stroke="#BD338A" stroke-width="0.439089" stroke-miterlimit="10"/>
<path d="M30.9043 85.1919L30.9043 82.4072" stroke="#BD338A" stroke-width="0.439089" stroke-miterlimit="10"/>
<path d="M30.9043 77.1675L30.9043 74.3829" stroke="#BD338A" stroke-width="0.439089" stroke-miterlimit="10"/>
<path d="M30.9043 69.1436L30.9043 66.3589" stroke="#BD338A" stroke-width="0.439089" stroke-miterlimit="10"/>
<path d="M30.9043 61.1191L30.9043 58.2978" stroke="#BD338A" stroke-width="0.439089" stroke-miterlimit="10"/>
<path d="M30.9043 53.0952L30.9043 50.274" stroke="#BD338A" stroke-width="0.439089" stroke-miterlimit="10"/>
<path d="M30.9043 45.0713L30.9043 42.25" stroke="#BD338A" stroke-width="0.439089" stroke-miterlimit="10"/>
<path d="M153.856 481.383L160.978 464.492L187.68 464.492L214.382 464.492L221.488 481.383L337.727 481.383L337.727 480.54L221.651 480.54L214.546 463.649L187.68 463.649L160.814 463.649L153.709 480.54L37.6335 480.54L37.6335 481.383L153.856 481.383Z" fill="url(#paint32_linear_227_1196)"/>
<path d="M337.727 472.516L337.727 468.265" stroke="#06F0F6" stroke-width="0.30435" stroke-miterlimit="10"/>
<path d="M337.727 461.415L337.727 457.164" stroke="#20DAF7" stroke-width="0.30435" stroke-miterlimit="10"/>
<path d="M337.727 450.312L337.727 446.025" stroke="#39C4F7" stroke-width="0.30435" stroke-miterlimit="10"/>
<path d="M337.727 439.173L337.727 434.923" stroke="#53AEF8" stroke-width="0.30435" stroke-miterlimit="10"/>
<path d="M337.727 428.07L337.727 423.82" stroke="#6C98F9" stroke-width="0.30435" stroke-miterlimit="10"/>
<path d="M337.727 416.969L337.727 412.682" stroke="#8681F9" stroke-width="0.30435" stroke-miterlimit="10"/>
<path d="M337.727 405.831L337.727 401.581" stroke="#9F6BFA" stroke-width="0.30435" stroke-miterlimit="10"/>
<path d="M337.727 394.729L337.727 390.479" stroke="#B955FB" stroke-width="0.30435" stroke-miterlimit="10"/>
<path d="M337.727 383.626L337.727 379.34" stroke="#D23FFB" stroke-width="0.30435" stroke-miterlimit="10"/>
<path d="M337.727 372.487L337.727 368.237" stroke="#EC29FC" stroke-width="0.30435" stroke-miterlimit="10"/>
<path d="M38.3379 472.516L38.3379 468.265" stroke="#06F0F6" stroke-width="0.30435" stroke-miterlimit="10"/>
<path d="M38.3379 461.415L38.3379 457.164" stroke="#20DAF7" stroke-width="0.30435" stroke-miterlimit="10"/>
<path d="M38.3379 450.312L38.3379 446.025" stroke="#39C4F7" stroke-width="0.30435" stroke-miterlimit="10"/>
<path d="M38.3379 439.173L38.3379 434.923" stroke="#53AEF8" stroke-width="0.30435" stroke-miterlimit="10"/>
<path d="M38.3379 428.07L38.3379 423.82" stroke="#6C98F9" stroke-width="0.30435" stroke-miterlimit="10"/>
<path d="M38.3379 416.969L38.3379 412.682" stroke="#8681F9" stroke-width="0.30435" stroke-miterlimit="10"/>
<path d="M38.3379 405.831L38.3379 401.581" stroke="#9F6BFA" stroke-width="0.30435" stroke-miterlimit="10"/>
<path d="M38.3379 394.729L38.3379 390.479" stroke="#B955FB" stroke-width="0.30435" stroke-miterlimit="10"/>
<path d="M38.3379 383.626L38.3379 379.34" stroke="#D23FFB" stroke-width="0.30435" stroke-miterlimit="10"/>
<path d="M38.3379 372.487L38.3379 368.237" stroke="#EC29FC" stroke-width="0.30435" stroke-miterlimit="10"/>
<path d="M253.395 520L247.566 520L239.839 502.559L245.618 502.559L253.395 520Z" fill="url(#paint33_linear_227_1196)"/>
<path d="M243.521 520L237.693 520L229.966 502.559L235.745 502.559L243.521 520Z" fill="url(#paint34_linear_227_1196)"/>
<path d="M233.65 520L227.822 520L220.095 502.559L225.874 502.559L233.65 520Z" fill="url(#paint35_linear_227_1196)"/>
<path d="M223.795 520L217.967 520L210.223 502.559L216.002 502.559L223.795 520Z" fill="url(#paint36_linear_227_1196)"/>
<path d="M213.922 520L208.094 520L200.366 502.559L206.129 502.559L213.922 520Z" fill="url(#paint37_linear_227_1196)"/>
<path d="M204.051 520L198.222 520L190.495 502.559L196.274 502.559L204.051 520Z" fill="url(#paint38_linear_227_1196)"/>
<path d="M121.456 520L127.284 520L135.012 502.559L129.233 502.559L121.456 520Z" fill="url(#paint39_linear_227_1196)"/>
<path d="M131.327 520L137.155 520L144.883 502.559L139.104 502.559L131.327 520Z" fill="url(#paint40_linear_227_1196)"/>
<path d="M141.2 520L147.012 520L154.756 502.559L148.977 502.559L141.2 520Z" fill="url(#paint41_linear_227_1196)"/>
<path d="M151.056 520L156.884 520L164.611 502.559L158.848 502.559L151.056 520Z" fill="url(#paint42_linear_227_1196)"/>
<path d="M160.927 520L166.755 520L174.482 502.559L168.72 502.559L160.927 520Z" fill="url(#paint43_linear_227_1196)"/>
<path d="M170.8 520L176.628 520L184.355 502.559L178.576 502.559L170.8 520Z" fill="url(#paint44_linear_227_1196)"/>
<path d="M339.625 481.383L346.223 481.383L346.223 478.158L339.625 478.158L339.625 481.383Z" fill="url(#paint45_linear_227_1196)"/>
<path d="M339.625 474.201L346.223 474.201L346.223 470.977L339.625 470.977L339.625 474.201Z" fill="url(#paint46_linear_227_1196)"/>
<path d="M339.625 466.983L346.223 466.983L346.223 463.759L339.625 463.759L339.625 466.983Z" fill="url(#paint47_linear_227_1196)"/>
<path d="M339.625 459.802L346.223 459.802L346.223 456.577L339.625 456.577L339.625 459.802Z" fill="url(#paint48_linear_227_1196)"/>
<path d="M339.625 452.62L346.223 452.62L346.223 449.395L339.625 449.395L339.625 452.62Z" fill="url(#paint49_linear_227_1196)"/>
<path d="M339.625 445.402L346.223 445.402L346.223 442.178L339.625 442.178L339.625 445.402Z" fill="url(#paint50_linear_227_1196)"/>
<path d="M339.625 438.22L346.223 438.22L346.223 434.995L339.625 434.995L339.625 438.22Z" fill="url(#paint51_linear_227_1196)"/>
<path d="M339.625 431.002L346.223 431.002L346.223 427.778L339.625 427.778L339.625 431.002Z" fill="url(#paint52_linear_227_1196)"/>
<path d="M339.625 423.821L346.223 423.821L346.223 420.596L339.625 420.596L339.625 423.821Z" fill="url(#paint53_linear_227_1196)"/>
<path d="M339.625 416.604L346.223 416.604L346.223 413.379L339.625 413.379L339.625 416.604Z" fill="url(#paint54_linear_227_1196)"/>
<path d="M339.625 409.422L346.223 409.422L346.223 406.198L339.625 406.198L339.625 409.422Z" fill="url(#paint55_linear_227_1196)"/>
<path d="M339.625 402.24L346.223 402.24L346.223 399.016L339.625 399.016L339.625 402.24Z" fill="url(#paint56_linear_227_1196)"/>
<path d="M339.625 395.023L346.223 395.023L346.223 391.799L339.625 391.799L339.625 395.023Z" fill="url(#paint57_linear_227_1196)"/>
<path d="M339.625 387.842L346.223 387.842L346.223 384.617L339.625 384.617L339.625 387.842Z" fill="url(#paint58_linear_227_1196)"/>
<path d="M339.625 380.623L346.223 380.623L346.223 377.398L339.625 377.398L339.625 380.623Z" fill="url(#paint59_linear_227_1196)"/>
<path d="M339.625 373.441L346.223 373.441L346.223 370.217L339.625 370.217L339.625 373.441Z" fill="url(#paint60_linear_227_1196)"/>
<path d="M324 10.5001L308.766 74.5L78.4412 74.4999L63 10.5L324 10.5001Z" fill="url(#paint61_linear_227_1196)"/>
<g filter="url(#filter1_d_227_1196)">
<path d="M316 10.5L301.616 69.5L84.5389 69.5L70 10.5L316 10.5Z" fill="#111827"/>
</g>
<path d="M353.263 143.267C354.278 143.267 355.113 195.773 355.113 260.516C355.113 325.259 354.278 377.728 353.263 377.728C352.248 377.728 351.413 325.259 351.413 260.516C351.413 195.736 352.248 143.267 353.263 143.267Z" fill="url(#paint62_radial_227_1196)"/>
<path d="M20.3778 349.037C21.4092 349.037 22.2441 383.406 22.2441 425.799C22.2441 468.191 21.4092 502.56 20.3778 502.56C19.3464 502.56 18.5114 468.191 18.5114 425.799C18.5114 383.406 19.3464 349.037 20.3778 349.037Z" fill="url(#paint63_radial_227_1196)"/>
<path d="M62.7308 509.008C62.7308 506.699 78.0874 504.831 97.0294 504.831C115.971 504.831 131.328 506.699 131.328 509.008C131.328 511.316 115.971 513.185 97.0294 513.185C78.0874 513.185 62.7308 511.316 62.7308 509.008Z" fill="url(#paint64_radial_227_1196)"/>
<path d="M159.194 9.67702C159.194 7.36869 174.55 5.50005 193.492 5.50005C212.434 5.50006 227.791 7.3687 227.791 9.67703C227.791 11.9854 212.434 13.854 193.492 13.854C174.55 13.854 159.194 11.9853 159.194 9.67702Z" fill="url(#paint65_radial_227_1196)" fill-opacity="0.1"/>
<defs>
<filter id="filter0_d_227_1196" x="0.00699615" y="0.963979" width="373.642" height="524.224" filterUnits="userSpaceOnUse" color-interpolation-filters="sRGB">
<feFlood flood-opacity="0" result="BackgroundImageFix"/>
<feColorMatrix in="SourceAlpha" type="matrix" values="0 0 0 0 0 0 0 0 0 0 0 0 0 0 0 0 0 0 127 0" result="hardAlpha"/>
<feOffset dy="3.73384"/>
<feGaussianBlur stdDeviation="6.22306"/>
<feComposite in2="hardAlpha" operator="out"/>
<feColorMatrix type="matrix" values="0 0 0 0 0.0241333 0 0 0 0 0.0444561 0 0 0 0 0.0851018 0 0 0 1 0"/>
<feBlend mode="normal" in2="BackgroundImageFix" result="effect1_dropShadow_227_1196"/>
<feBlend mode="normal" in="SourceGraphic" in2="effect1_dropShadow_227_1196" result="shape"/>
</filter>
<filter id="filter1_d_227_1196" x="57.5539" y="1.78771" width="270.892" height="83.8923" filterUnits="userSpaceOnUse" color-interpolation-filters="sRGB">
<feFlood flood-opacity="0" result="BackgroundImageFix"/>
<feColorMatrix in="SourceAlpha" type="matrix" values="0 0 0 0 0 0 0 0 0 0 0 0 0 0 0 0 0 0 127 0" result="hardAlpha"/>
<feOffset dy="3.73384"/>
<feGaussianBlur stdDeviation="6.22306"/>
<feComposite in2="hardAlpha" operator="out"/>
<feColorMatrix type="matrix" values="0 0 0 0 0.0241333 0 0 0 0 0.0444561 0 0 0 0 0.0851018 0 0 0 0.3 0"/>
<feBlend mode="normal" in2="BackgroundImageFix" result="effect1_dropShadow_227_1196"/>
<feBlend mode="normal" in="SourceGraphic" in2="effect1_dropShadow_227_1196" result="shape"/>
</filter>
<linearGradient id="paint0_linear_227_1196" x1="13.4183" y1="230.667" x2="3.28794" y2="231.244" gradientUnits="userSpaceOnUse">
<stop stop-color="#1BBEE9"/>
<stop offset="0.1063" stop-color="#15A9D0"/>
<stop offset="0.2375" stop-color="#0C89A9"/>
<stop offset="0.3819" stop-color="#057D9B"/>
<stop offset="0.5356" stop-color="#D6248E"/>
<stop offset="0.6969" stop-color="#EF30A2"/>
<stop offset="0.8618" stop-color="#F276C0"/>
<stop offset="1" stop-color="#FFADDE"/>
</linearGradient>
<linearGradient id="paint1_linear_227_1196" x1="13.4183" y1="209.819" x2="3.28794" y2="210.395" gradientUnits="userSpaceOnUse">
<stop stop-color="#1BBEE9"/>
<stop offset="0.1063" stop-color="#15A9D0"/>
<stop offset="0.2375" stop-color="#0C89A9"/>
<stop offset="0.3819" stop-color="#057D9B"/>
<stop offset="0.5356" stop-color="#D6248E"/>
<stop offset="0.6969" stop-color="#EF30A2"/>
<stop offset="0.8618" stop-color="#F276C0"/>
<stop offset="1" stop-color="#FFADDE"/>
</linearGradient>
<linearGradient id="paint2_linear_227_1196" x1="13.4183" y1="188.829" x2="3.28786" y2="189.405" gradientUnits="userSpaceOnUse">
<stop stop-color="#1BBEE9"/>
<stop offset="0.1063" stop-color="#15A9D0"/>
<stop offset="0.2375" stop-color="#0C89A9"/>
<stop offset="0.3819" stop-color="#057D9B"/>
<stop offset="0.5356" stop-color="#D6248E"/>
<stop offset="0.6969" stop-color="#EF30A2"/>
<stop offset="0.8618" stop-color="#F276C0"/>
<stop offset="1" stop-color="#FFADDE"/>
</linearGradient>
<linearGradient id="paint3_linear_227_1196" x1="13.4183" y1="168.086" x2="3.28794" y2="168.662" gradientUnits="userSpaceOnUse">
<stop stop-color="#1BBEE9"/>
<stop offset="0.1063" stop-color="#15A9D0"/>
<stop offset="0.2375" stop-color="#0C89A9"/>
<stop offset="0.3819" stop-color="#057D9B"/>
<stop offset="0.5356" stop-color="#D6248E"/>
<stop offset="0.6969" stop-color="#EF30A2"/>
<stop offset="0.8618" stop-color="#F276C0"/>
<stop offset="1" stop-color="#FFADDE"/>
</linearGradient>
<linearGradient id="paint4_linear_227_1196" x1="13.4183" y1="147.238" x2="3.28794" y2="147.814" gradientUnits="userSpaceOnUse">
<stop stop-color="#1BBEE9"/>
<stop offset="0.1063" stop-color="#15A9D0"/>
<stop offset="0.2375" stop-color="#0C89A9"/>
<stop offset="0.3819" stop-color="#057D9B"/>
<stop offset="0.5356" stop-color="#D6248E"/>
<stop offset="0.6969" stop-color="#EF30A2"/>
<stop offset="0.8618" stop-color="#F276C0"/>
<stop offset="1" stop-color="#FFADDE"/>
</linearGradient>
<linearGradient id="paint5_linear_227_1196" x1="13.4183" y1="126.354" x2="3.28794" y2="126.93" gradientUnits="userSpaceOnUse">
<stop stop-color="#1BBEE9"/>
<stop offset="0.1063" stop-color="#15A9D0"/>
<stop offset="0.2375" stop-color="#0C89A9"/>
<stop offset="0.3819" stop-color="#057D9B"/>
<stop offset="0.5356" stop-color="#D6248E"/>
<stop offset="0.6969" stop-color="#EF30A2"/>
<stop offset="0.8618" stop-color="#F276C0"/>
<stop offset="1" stop-color="#FFADDE"/>
</linearGradient>
<linearGradient id="paint6_linear_227_1196" x1="13.4183" y1="105.505" x2="3.28794" y2="106.081" gradientUnits="userSpaceOnUse">
<stop stop-color="#1BBEE9"/>
<stop offset="0.1063" stop-color="#15A9D0"/>
<stop offset="0.2375" stop-color="#0C89A9"/>
<stop offset="0.3819" stop-color="#057D9B"/>
<stop offset="0.5356" stop-color="#D6248E"/>
<stop offset="0.6969" stop-color="#EF30A2"/>
<stop offset="0.8618" stop-color="#F276C0"/>
<stop offset="1" stop-color="#FFADDE"/>
</linearGradient>
<linearGradient id="paint7_linear_227_1196" x1="13.4183" y1="84.5133" x2="3.28786" y2="85.0888" gradientUnits="userSpaceOnUse">
<stop stop-color="#1BBEE9"/>
<stop offset="0.1063" stop-color="#15A9D0"/>
<stop offset="0.2375" stop-color="#0C89A9"/>
<stop offset="0.415" stop-color="#057D9B"/>
<stop offset="0.5356" stop-color="#D6248E"/>
<stop offset="0.6969" stop-color="#EF30A2"/>
<stop offset="0.8618" stop-color="#F276C0"/>
<stop offset="1" stop-color="#FFADDE"/>
</linearGradient>
<linearGradient id="paint8_linear_227_1196" x1="32.2804" y1="468.767" x2="24.7155" y2="472.199" gradientUnits="userSpaceOnUse">
<stop stop-color="#1BBEE9"/>
<stop offset="0.1063" stop-color="#15A9D0"/>
<stop offset="0.2375" stop-color="#0C89A9"/>
<stop offset="0.3819" stop-color="#057D9B"/>
<stop offset="0.5356" stop-color="#D6248E"/>
<stop offset="0.6969" stop-color="#EF30A2"/>
<stop offset="0.8618" stop-color="#F276C0"/>
<stop offset="1" stop-color="#FFADDE"/>
</linearGradient>
<linearGradient id="paint9_linear_227_1196" x1="32.2804" y1="461.586" x2="24.7155" y2="465.018" gradientUnits="userSpaceOnUse">
<stop stop-color="#1BBEE9"/>
<stop offset="0.1063" stop-color="#15A9D0"/>
<stop offset="0.2375" stop-color="#0C89A9"/>
<stop offset="0.3819" stop-color="#057D9B"/>
<stop offset="0.5356" stop-color="#D6248E"/>
<stop offset="0.6969" stop-color="#EF30A2"/>
<stop offset="0.8618" stop-color="#F276C0"/>
<stop offset="1" stop-color="#FFADDE"/>
</linearGradient>
<linearGradient id="paint10_linear_227_1196" x1="32.2804" y1="454.367" x2="24.7155" y2="457.799" gradientUnits="userSpaceOnUse">
<stop stop-color="#1BBEE9"/>
<stop offset="0.1063" stop-color="#15A9D0"/>
<stop offset="0.2375" stop-color="#0C89A9"/>
<stop offset="0.3819" stop-color="#057D9B"/>
<stop offset="0.5356" stop-color="#D6248E"/>
<stop offset="0.6969" stop-color="#EF30A2"/>
<stop offset="0.8618" stop-color="#F276C0"/>
<stop offset="1" stop-color="#FFADDE"/>
</linearGradient>
<linearGradient id="paint11_linear_227_1196" x1="32.2804" y1="447.186" x2="24.7155" y2="450.618" gradientUnits="userSpaceOnUse">
<stop stop-color="#1BBEE9"/>
<stop offset="0.1063" stop-color="#15A9D0"/>
<stop offset="0.2375" stop-color="#0C89A9"/>
<stop offset="0.3819" stop-color="#057D9B"/>
<stop offset="0.5356" stop-color="#D6248E"/>
<stop offset="0.6969" stop-color="#EF30A2"/>
<stop offset="0.8618" stop-color="#F276C0"/>
<stop offset="1" stop-color="#FFADDE"/>
</linearGradient>
<linearGradient id="paint12_linear_227_1196" x1="32.2804" y1="440.004" x2="24.7155" y2="443.436" gradientUnits="userSpaceOnUse">
<stop stop-color="#1BBEE9"/>
<stop offset="0.1063" stop-color="#15A9D0"/>
<stop offset="0.2375" stop-color="#0C89A9"/>
<stop offset="0.3819" stop-color="#057D9B"/>
<stop offset="0.5356" stop-color="#D6248E"/>
<stop offset="0.6969" stop-color="#EF30A2"/>
<stop offset="0.8618" stop-color="#F276C0"/>
<stop offset="1" stop-color="#FFADDE"/>
</linearGradient>
<linearGradient id="paint13_linear_227_1196" x1="32.2804" y1="432.787" x2="24.7155" y2="436.219" gradientUnits="userSpaceOnUse">
<stop stop-color="#1BBEE9"/>
<stop offset="0.1063" stop-color="#15A9D0"/>
<stop offset="0.2375" stop-color="#0C89A9"/>
<stop offset="0.3819" stop-color="#057D9B"/>
<stop offset="0.5356" stop-color="#D6248E"/>
<stop offset="0.6969" stop-color="#EF30A2"/>
<stop offset="0.8618" stop-color="#F276C0"/>
<stop offset="1" stop-color="#FFADDE"/>
</linearGradient>
<linearGradient id="paint14_linear_227_1196" x1="32.2804" y1="425.604" x2="24.7155" y2="429.036" gradientUnits="userSpaceOnUse">
<stop stop-color="#1BBEE9"/>
<stop offset="0.1063" stop-color="#15A9D0"/>
<stop offset="0.2375" stop-color="#0C89A9"/>
<stop offset="0.3819" stop-color="#057D9B"/>
<stop offset="0.5356" stop-color="#D6248E"/>
<stop offset="0.6969" stop-color="#EF30A2"/>
<stop offset="0.8618" stop-color="#F276C0"/>
<stop offset="1" stop-color="#FFADDE"/>
</linearGradient>
<linearGradient id="paint15_linear_227_1196" x1="32.2804" y1="418.387" x2="24.7155" y2="421.819" gradientUnits="userSpaceOnUse">
<stop stop-color="#1BBEE9"/>
<stop offset="0.1063" stop-color="#15A9D0"/>
<stop offset="0.2375" stop-color="#0C89A9"/>
<stop offset="0.3819" stop-color="#057D9B"/>
<stop offset="0.5356" stop-color="#D6248E"/>
<stop offset="0.6969" stop-color="#EF30A2"/>
<stop offset="0.8618" stop-color="#F276C0"/>
<stop offset="1" stop-color="#FFADDE"/>
</linearGradient>
<linearGradient id="paint16_linear_227_1196" x1="32.2804" y1="411.205" x2="24.7155" y2="414.637" gradientUnits="userSpaceOnUse">
<stop stop-color="#1BBEE9"/>
<stop offset="0.1063" stop-color="#15A9D0"/>
<stop offset="0.2375" stop-color="#0C89A9"/>
<stop offset="0.3819" stop-color="#057D9B"/>
<stop offset="0.5356" stop-color="#D6248E"/>
<stop offset="0.6969" stop-color="#EF30A2"/>
<stop offset="0.8618" stop-color="#F276C0"/>
<stop offset="1" stop-color="#FFADDE"/>
</linearGradient>
<linearGradient id="paint17_linear_227_1196" x1="32.2804" y1="403.988" x2="24.7155" y2="407.42" gradientUnits="userSpaceOnUse">
<stop stop-color="#1BBEE9"/>
<stop offset="0.1063" stop-color="#15A9D0"/>
<stop offset="0.2375" stop-color="#0C89A9"/>
<stop offset="0.3819" stop-color="#057D9B"/>
<stop offset="0.5356" stop-color="#D6248E"/>
<stop offset="0.6969" stop-color="#EF30A2"/>
<stop offset="0.8618" stop-color="#F276C0"/>
<stop offset="1" stop-color="#FFADDE"/>
</linearGradient>
<linearGradient id="paint18_linear_227_1196" x1="32.2804" y1="396.807" x2="24.7155" y2="400.239" gradientUnits="userSpaceOnUse">
<stop stop-color="#1BBEE9"/>
<stop offset="0.1063" stop-color="#15A9D0"/>
<stop offset="0.2375" stop-color="#0C89A9"/>
<stop offset="0.3819" stop-color="#057D9B"/>
<stop offset="0.5356" stop-color="#D6248E"/>
<stop offset="0.6969" stop-color="#EF30A2"/>
<stop offset="0.8618" stop-color="#F276C0"/>
<stop offset="1" stop-color="#FFADDE"/>
</linearGradient>
<linearGradient id="paint19_linear_227_1196" x1="32.2804" y1="389.625" x2="24.7155" y2="393.057" gradientUnits="userSpaceOnUse">
<stop stop-color="#1BBEE9"/>
<stop offset="0.1063" stop-color="#15A9D0"/>
<stop offset="0.2375" stop-color="#0C89A9"/>
<stop offset="0.3819" stop-color="#057D9B"/>
<stop offset="0.5356" stop-color="#D6248E"/>
<stop offset="0.6969" stop-color="#EF30A2"/>
<stop offset="0.8618" stop-color="#F276C0"/>
<stop offset="1" stop-color="#FFADDE"/>
</linearGradient>
<linearGradient id="paint20_linear_227_1196" x1="32.2804" y1="382.407" x2="24.7155" y2="385.839" gradientUnits="userSpaceOnUse">
<stop stop-color="#1BBEE9"/>
<stop offset="0.1063" stop-color="#15A9D0"/>
<stop offset="0.2375" stop-color="#0C89A9"/>
<stop offset="0.3819" stop-color="#057D9B"/>
<stop offset="0.5356" stop-color="#D6248E"/>
<stop offset="0.6969" stop-color="#EF30A2"/>
<stop offset="0.8618" stop-color="#F276C0"/>
<stop offset="1" stop-color="#FFADDE"/>
</linearGradient>
<linearGradient id="paint21_linear_227_1196" x1="32.2804" y1="375.226" x2="24.7155" y2="378.658" gradientUnits="userSpaceOnUse">
<stop stop-color="#1BBEE9"/>
<stop offset="0.1063" stop-color="#15A9D0"/>
<stop offset="0.2375" stop-color="#0C89A9"/>
<stop offset="0.3819" stop-color="#057D9B"/>
<stop offset="0.5356" stop-color="#D6248E"/>
<stop offset="0.6969" stop-color="#EF30A2"/>
<stop offset="0.8618" stop-color="#F276C0"/>
<stop offset="1" stop-color="#FFADDE"/>
</linearGradient>
<linearGradient id="paint22_linear_227_1196" x1="32.2804" y1="368.007" x2="24.7155" y2="371.439" gradientUnits="userSpaceOnUse">
<stop stop-color="#1BBEE9"/>
<stop offset="0.1063" stop-color="#15A9D0"/>
<stop offset="0.2375" stop-color="#0C89A9"/>
<stop offset="0.3819" stop-color="#057D9B"/>
<stop offset="0.5356" stop-color="#D6248E"/>
<stop offset="0.6969" stop-color="#EF30A2"/>
<stop offset="0.8618" stop-color="#F276C0"/>
<stop offset="1" stop-color="#FFADDE"/>
</linearGradient>
<linearGradient id="paint23_linear_227_1196" x1="32.2804" y1="360.826" x2="24.7155" y2="364.258" gradientUnits="userSpaceOnUse">
<stop stop-color="#1BBEE9"/>
<stop offset="0.1063" stop-color="#15A9D0"/>
<stop offset="0.2375" stop-color="#0C89A9"/>
<stop offset="0.3819" stop-color="#057D9B"/>
<stop offset="0.5356" stop-color="#D6248E"/>
<stop offset="0.6969" stop-color="#EF30A2"/>
<stop offset="0.8618" stop-color="#F276C0"/>
<stop offset="1" stop-color="#FFADDE"/>
</linearGradient>
<linearGradient id="paint24_linear_227_1196" x1="364.067" y1="230.667" x2="353.936" y2="231.243" gradientUnits="userSpaceOnUse">
<stop stop-color="#1BBEE9"/>
<stop offset="0.1063" stop-color="#15A9D0"/>
<stop offset="0.2375" stop-color="#0C89A9"/>
<stop offset="0.3819" stop-color="#057D9B"/>
<stop offset="0.5356" stop-color="#D6248E"/>
<stop offset="0.6969" stop-color="#EF30A2"/>
<stop offset="0.8618" stop-color="#F276C0"/>
<stop offset="1" stop-color="#FFADDE"/>
</linearGradient>
<linearGradient id="paint25_linear_227_1196" x1="364.067" y1="209.819" x2="353.936" y2="210.395" gradientUnits="userSpaceOnUse">
<stop stop-color="#1BBEE9"/>
<stop offset="0.1063" stop-color="#15A9D0"/>
<stop offset="0.2375" stop-color="#0C89A9"/>
<stop offset="0.3819" stop-color="#057D9B"/>
<stop offset="0.5356" stop-color="#D6248E"/>
<stop offset="0.6969" stop-color="#EF30A2"/>
<stop offset="0.8618" stop-color="#F276C0"/>
<stop offset="1" stop-color="#FFADDE"/>
</linearGradient>
<linearGradient id="paint26_linear_227_1196" x1="364.067" y1="188.829" x2="353.936" y2="189.404" gradientUnits="userSpaceOnUse">
<stop stop-color="#1BBEE9"/>
<stop offset="0.1063" stop-color="#15A9D0"/>
<stop offset="0.2375" stop-color="#0C89A9"/>
<stop offset="0.3819" stop-color="#057D9B"/>
<stop offset="0.5356" stop-color="#D6248E"/>
<stop offset="0.6969" stop-color="#EF30A2"/>
<stop offset="0.8618" stop-color="#F276C0"/>
<stop offset="1" stop-color="#FFADDE"/>
</linearGradient>
<linearGradient id="paint27_linear_227_1196" x1="364.067" y1="168.086" x2="353.936" y2="168.662" gradientUnits="userSpaceOnUse">
<stop stop-color="#1BBEE9"/>
<stop offset="0.1063" stop-color="#15A9D0"/>
<stop offset="0.2375" stop-color="#0C89A9"/>
<stop offset="0.3819" stop-color="#057D9B"/>
<stop offset="0.5356" stop-color="#D6248E"/>
<stop offset="0.6969" stop-color="#EF30A2"/>
<stop offset="0.8618" stop-color="#F276C0"/>
<stop offset="1" stop-color="#FFADDE"/>
</linearGradient>
<linearGradient id="paint28_linear_227_1196" x1="364.067" y1="147.237" x2="353.936" y2="147.813" gradientUnits="userSpaceOnUse">
<stop stop-color="#1BBEE9"/>
<stop offset="0.1063" stop-color="#15A9D0"/>
<stop offset="0.2375" stop-color="#0C89A9"/>
<stop offset="0.3819" stop-color="#057D9B"/>
<stop offset="0.5356" stop-color="#D6248E"/>
<stop offset="0.6969" stop-color="#EF30A2"/>
<stop offset="0.8618" stop-color="#F276C0"/>
<stop offset="1" stop-color="#FFADDE"/>
</linearGradient>
<linearGradient id="paint29_linear_227_1196" x1="364.067" y1="126.353" x2="353.936" y2="126.93" gradientUnits="userSpaceOnUse">
<stop stop-color="#1BBEE9"/>
<stop offset="0.1063" stop-color="#15A9D0"/>
<stop offset="0.2375" stop-color="#0C89A9"/>
<stop offset="0.3819" stop-color="#057D9B"/>
<stop offset="0.5356" stop-color="#D6248E"/>
<stop offset="0.6969" stop-color="#EF30A2"/>
<stop offset="0.8618" stop-color="#F276C0"/>
<stop offset="1" stop-color="#FFADDE"/>
</linearGradient>
<linearGradient id="paint30_linear_227_1196" x1="364.067" y1="105.505" x2="353.936" y2="106.081" gradientUnits="userSpaceOnUse">
<stop stop-color="#1BBEE9"/>
<stop offset="0.1063" stop-color="#15A9D0"/>
<stop offset="0.2375" stop-color="#0C89A9"/>
<stop offset="0.3819" stop-color="#057D9B"/>
<stop offset="0.5356" stop-color="#D6248E"/>
<stop offset="0.6969" stop-color="#EF30A2"/>
<stop offset="0.8618" stop-color="#F276C0"/>
<stop offset="1" stop-color="#FFADDE"/>
</linearGradient>
<linearGradient id="paint31_linear_227_1196" x1="364.067" y1="84.5128" x2="353.936" y2="85.0883" gradientUnits="userSpaceOnUse">
<stop stop-color="#1BBEE9"/>
<stop offset="0.1063" stop-color="#15A9D0"/>
<stop offset="0.2375" stop-color="#0C89A9"/>
<stop offset="0.3819" stop-color="#057D9B"/>
<stop offset="0.5356" stop-color="#D6248E"/>
<stop offset="0.6969" stop-color="#EF30A2"/>
<stop offset="0.8618" stop-color="#F276C0"/>
<stop offset="1" stop-color="#FFADDE"/>
</linearGradient>
<linearGradient id="paint32_linear_227_1196" x1="258.802" y1="411.998" x2="231.281" y2="515.25" gradientUnits="userSpaceOnUse">
<stop stop-color="#1BBEE9"/>
<stop offset="0.1063" stop-color="#15A9D0"/>
<stop offset="0.2375" stop-color="#0C89A9"/>
<stop offset="0.3819" stop-color="#057D9B"/>
<stop offset="0.5356" stop-color="#D6248E"/>
<stop offset="0.6969" stop-color="#EF30A2"/>
<stop offset="0.8618" stop-color="#F276C0"/>
<stop offset="1" stop-color="#FFADDE"/>
</linearGradient>
<linearGradient id="paint33_linear_227_1196" x1="249.829" y1="451.762" x2="231.628" y2="454.899" gradientUnits="userSpaceOnUse">
<stop stop-color="#1BBEE9"/>
<stop offset="0.1063" stop-color="#15A9D0"/>
<stop offset="0.2375" stop-color="#0C89A9"/>
<stop offset="0.3819" stop-color="#057D9B"/>
<stop offset="0.5356" stop-color="#D6248E"/>
<stop offset="0.6969" stop-color="#EF30A2"/>
<stop offset="0.8618" stop-color="#F276C0"/>
<stop offset="1" stop-color="#FFADDE"/>
</linearGradient>
<linearGradient id="paint34_linear_227_1196" x1="239.956" y1="451.762" x2="221.755" y2="454.899" gradientUnits="userSpaceOnUse">
<stop stop-color="#1BBEE9"/>
<stop offset="0.1063" stop-color="#15A9D0"/>
<stop offset="0.2375" stop-color="#0C89A9"/>
<stop offset="0.3819" stop-color="#057D9B"/>
<stop offset="0.5356" stop-color="#D6248E"/>
<stop offset="0.6969" stop-color="#EF30A2"/>
<stop offset="0.8618" stop-color="#F276C0"/>
<stop offset="1" stop-color="#FFADDE"/>
</linearGradient>
<linearGradient id="paint35_linear_227_1196" x1="230.085" y1="451.762" x2="211.884" y2="454.899" gradientUnits="userSpaceOnUse">
<stop stop-color="#1BBEE9"/>
<stop offset="0.1063" stop-color="#15A9D0"/>
<stop offset="0.2375" stop-color="#0C89A9"/>
<stop offset="0.3819" stop-color="#057D9B"/>
<stop offset="0.5356" stop-color="#D6248E"/>
<stop offset="0.6969" stop-color="#EF30A2"/>
<stop offset="0.8618" stop-color="#F276C0"/>
<stop offset="1" stop-color="#FFADDE"/>
</linearGradient>
<linearGradient id="paint36_linear_227_1196" x1="220.225" y1="451.762" x2="202.003" y2="454.906" gradientUnits="userSpaceOnUse">
<stop stop-color="#1BBEE9"/>
<stop offset="0.1063" stop-color="#15A9D0"/>
<stop offset="0.2375" stop-color="#0C89A9"/>
<stop offset="0.3819" stop-color="#057D9B"/>
<stop offset="0.5356" stop-color="#D6248E"/>
<stop offset="0.6969" stop-color="#EF30A2"/>
<stop offset="0.8618" stop-color="#F276C0"/>
<stop offset="1" stop-color="#FFADDE"/>
</linearGradient>
<linearGradient id="paint37_linear_227_1196" x1="210.357" y1="451.762" x2="192.155" y2="454.899" gradientUnits="userSpaceOnUse">
<stop stop-color="#1BBEE9"/>
<stop offset="0.1063" stop-color="#15A9D0"/>
<stop offset="0.2375" stop-color="#0C89A9"/>
<stop offset="0.3819" stop-color="#057D9B"/>
<stop offset="0.5356" stop-color="#D6248E"/>
<stop offset="0.6969" stop-color="#EF30A2"/>
<stop offset="0.8618" stop-color="#F276C0"/>
<stop offset="1" stop-color="#FFADDE"/>
</linearGradient>
<linearGradient id="paint38_linear_227_1196" x1="200.486" y1="451.762" x2="182.284" y2="454.899" gradientUnits="userSpaceOnUse">
<stop stop-color="#1BBEE9"/>
<stop offset="0.1063" stop-color="#15A9D0"/>
<stop offset="0.2375" stop-color="#0C89A9"/>
<stop offset="0.3819" stop-color="#057D9B"/>
<stop offset="0.5356" stop-color="#D6248E"/>
<stop offset="0.6969" stop-color="#EF30A2"/>
<stop offset="0.8618" stop-color="#F276C0"/>
<stop offset="1" stop-color="#FFADDE"/>
</linearGradient>
<linearGradient id="paint39_linear_227_1196" x1="131.447" y1="451.762" x2="113.245" y2="454.899" gradientUnits="userSpaceOnUse">
<stop stop-color="#1BBEE9"/>
<stop offset="0.1063" stop-color="#15A9D0"/>
<stop offset="0.2375" stop-color="#0C89A9"/>
<stop offset="0.3819" stop-color="#057D9B"/>
<stop offset="0.5356" stop-color="#D6248E"/>
<stop offset="0.6969" stop-color="#EF30A2"/>
<stop offset="0.8618" stop-color="#F276C0"/>
<stop offset="1" stop-color="#FFADDE"/>
</linearGradient>
<linearGradient id="paint40_linear_227_1196" x1="141.318" y1="451.762" x2="123.116" y2="454.899" gradientUnits="userSpaceOnUse">
<stop stop-color="#1BBEE9"/>
<stop offset="0.1063" stop-color="#15A9D0"/>
<stop offset="0.2375" stop-color="#0C89A9"/>
<stop offset="0.3819" stop-color="#057D9B"/>
<stop offset="0.5356" stop-color="#D6248E"/>
<stop offset="0.6969" stop-color="#EF30A2"/>
<stop offset="0.8618" stop-color="#F276C0"/>
<stop offset="1" stop-color="#FFADDE"/>
</linearGradient>
<linearGradient id="paint41_linear_227_1196" x1="151.191" y1="451.762" x2="132.989" y2="454.899" gradientUnits="userSpaceOnUse">
<stop stop-color="#1BBEE9"/>
<stop offset="0.1063" stop-color="#15A9D0"/>
<stop offset="0.2375" stop-color="#0C89A9"/>
<stop offset="0.3819" stop-color="#057D9B"/>
<stop offset="0.5356" stop-color="#D6248E"/>
<stop offset="0.6969" stop-color="#EF30A2"/>
<stop offset="0.8618" stop-color="#F276C0"/>
<stop offset="1" stop-color="#FFADDE"/>
</linearGradient>
<linearGradient id="paint42_linear_227_1196" x1="161.046" y1="451.762" x2="142.845" y2="454.899" gradientUnits="userSpaceOnUse">
<stop stop-color="#1BBEE9"/>
<stop offset="0.1063" stop-color="#15A9D0"/>
<stop offset="0.2375" stop-color="#0C89A9"/>
<stop offset="0.3819" stop-color="#057D9B"/>
<stop offset="0.5356" stop-color="#D6248E"/>
<stop offset="0.6969" stop-color="#EF30A2"/>
<stop offset="0.8618" stop-color="#F276C0"/>
<stop offset="1" stop-color="#FFADDE"/>
</linearGradient>
<linearGradient id="paint43_linear_227_1196" x1="170.917" y1="451.762" x2="152.716" y2="454.899" gradientUnits="userSpaceOnUse">
<stop stop-color="#1BBEE9"/>
<stop offset="0.1063" stop-color="#15A9D0"/>
<stop offset="0.2375" stop-color="#0C89A9"/>
<stop offset="0.3819" stop-color="#057D9B"/>
<stop offset="0.5356" stop-color="#D6248E"/>
<stop offset="0.6969" stop-color="#EF30A2"/>
<stop offset="0.8618" stop-color="#F276C0"/>
<stop offset="1" stop-color="#FFADDE"/>
</linearGradient>
<linearGradient id="paint44_linear_227_1196" x1="180.79" y1="451.762" x2="162.589" y2="454.899" gradientUnits="userSpaceOnUse">
<stop stop-color="#1BBEE9"/>
<stop offset="0.1063" stop-color="#15A9D0"/>
<stop offset="0.2375" stop-color="#0C89A9"/>
<stop offset="0.3819" stop-color="#057D9B"/>
<stop offset="0.5356" stop-color="#D6248E"/>
<stop offset="0.6969" stop-color="#EF30A2"/>
<stop offset="0.8618" stop-color="#F276C0"/>
<stop offset="1" stop-color="#FFADDE"/>
</linearGradient>
<linearGradient id="paint45_linear_227_1196" x1="344.487" y1="468.767" x2="336.923" y2="472.199" gradientUnits="userSpaceOnUse">
<stop stop-color="#1BBEE9"/>
<stop offset="0.1063" stop-color="#15A9D0"/>
<stop offset="0.2375" stop-color="#0C89A9"/>
<stop offset="0.3819" stop-color="#057D9B"/>
<stop offset="0.5356" stop-color="#D6248E"/>
<stop offset="0.6969" stop-color="#EF30A2"/>
<stop offset="0.8618" stop-color="#F276C0"/>
<stop offset="1" stop-color="#FFADDE"/>
</linearGradient>
<linearGradient id="paint46_linear_227_1196" x1="344.487" y1="461.586" x2="336.923" y2="465.018" gradientUnits="userSpaceOnUse">
<stop stop-color="#1BBEE9"/>
<stop offset="0.1063" stop-color="#15A9D0"/>
<stop offset="0.2375" stop-color="#0C89A9"/>
<stop offset="0.3819" stop-color="#057D9B"/>
<stop offset="0.5356" stop-color="#D6248E"/>
<stop offset="0.6969" stop-color="#EF30A2"/>
<stop offset="0.8618" stop-color="#F276C0"/>
<stop offset="1" stop-color="#FFADDE"/>
</linearGradient>
<linearGradient id="paint47_linear_227_1196" x1="344.487" y1="454.367" x2="336.923" y2="457.799" gradientUnits="userSpaceOnUse">
<stop stop-color="#1BBEE9"/>
<stop offset="0.1063" stop-color="#15A9D0"/>
<stop offset="0.2375" stop-color="#0C89A9"/>
<stop offset="0.3819" stop-color="#057D9B"/>
<stop offset="0.5356" stop-color="#D6248E"/>
<stop offset="0.6969" stop-color="#EF30A2"/>
<stop offset="0.8618" stop-color="#F276C0"/>
<stop offset="1" stop-color="#FFADDE"/>
</linearGradient>
<linearGradient id="paint48_linear_227_1196" x1="344.487" y1="447.186" x2="336.923" y2="450.618" gradientUnits="userSpaceOnUse">
<stop stop-color="#1BBEE9"/>
<stop offset="0.1063" stop-color="#15A9D0"/>
<stop offset="0.2375" stop-color="#0C89A9"/>
<stop offset="0.3819" stop-color="#057D9B"/>
<stop offset="0.5356" stop-color="#D6248E"/>
<stop offset="0.6969" stop-color="#EF30A2"/>
<stop offset="0.8618" stop-color="#F276C0"/>
<stop offset="1" stop-color="#FFADDE"/>
</linearGradient>
<linearGradient id="paint49_linear_227_1196" x1="344.487" y1="440.004" x2="336.923" y2="443.436" gradientUnits="userSpaceOnUse">
<stop stop-color="#1BBEE9"/>
<stop offset="0.1063" stop-color="#15A9D0"/>
<stop offset="0.2375" stop-color="#0C89A9"/>
<stop offset="0.3819" stop-color="#057D9B"/>
<stop offset="0.5356" stop-color="#D6248E"/>
<stop offset="0.6969" stop-color="#EF30A2"/>
<stop offset="0.8618" stop-color="#F276C0"/>
<stop offset="1" stop-color="#FFADDE"/>
</linearGradient>
<linearGradient id="paint50_linear_227_1196" x1="344.487" y1="432.787" x2="336.923" y2="436.219" gradientUnits="userSpaceOnUse">
<stop stop-color="#1BBEE9"/>
<stop offset="0.1063" stop-color="#15A9D0"/>
<stop offset="0.2375" stop-color="#0C89A9"/>
<stop offset="0.3819" stop-color="#057D9B"/>
<stop offset="0.5356" stop-color="#D6248E"/>
<stop offset="0.6969" stop-color="#EF30A2"/>
<stop offset="0.8618" stop-color="#F276C0"/>
<stop offset="1" stop-color="#FFADDE"/>
</linearGradient>
<linearGradient id="paint51_linear_227_1196" x1="344.487" y1="425.604" x2="336.923" y2="429.036" gradientUnits="userSpaceOnUse">
<stop stop-color="#1BBEE9"/>
<stop offset="0.1063" stop-color="#15A9D0"/>
<stop offset="0.2375" stop-color="#0C89A9"/>
<stop offset="0.3819" stop-color="#057D9B"/>
<stop offset="0.5356" stop-color="#D6248E"/>
<stop offset="0.6969" stop-color="#EF30A2"/>
<stop offset="0.8618" stop-color="#F276C0"/>
<stop offset="1" stop-color="#FFADDE"/>
</linearGradient>
<linearGradient id="paint52_linear_227_1196" x1="344.487" y1="418.387" x2="336.923" y2="421.819" gradientUnits="userSpaceOnUse">
<stop stop-color="#1BBEE9"/>
<stop offset="0.1063" stop-color="#15A9D0"/>
<stop offset="0.2375" stop-color="#0C89A9"/>
<stop offset="0.3819" stop-color="#057D9B"/>
<stop offset="0.5356" stop-color="#D6248E"/>
<stop offset="0.6969" stop-color="#EF30A2"/>
<stop offset="0.8618" stop-color="#F276C0"/>
<stop offset="1" stop-color="#FFADDE"/>
</linearGradient>
<linearGradient id="paint53_linear_227_1196" x1="344.487" y1="411.205" x2="336.923" y2="414.637" gradientUnits="userSpaceOnUse">
<stop stop-color="#1BBEE9"/>
<stop offset="0.1063" stop-color="#15A9D0"/>
<stop offset="0.2375" stop-color="#0C89A9"/>
<stop offset="0.3819" stop-color="#057D9B"/>
<stop offset="0.5356" stop-color="#D6248E"/>
<stop offset="0.6969" stop-color="#EF30A2"/>
<stop offset="0.8618" stop-color="#F276C0"/>
<stop offset="1" stop-color="#FFADDE"/>
</linearGradient>
<linearGradient id="paint54_linear_227_1196" x1="344.487" y1="403.988" x2="336.923" y2="407.42" gradientUnits="userSpaceOnUse">
<stop stop-color="#1BBEE9"/>
<stop offset="0.1063" stop-color="#15A9D0"/>
<stop offset="0.2375" stop-color="#0C89A9"/>
<stop offset="0.3819" stop-color="#057D9B"/>
<stop offset="0.5356" stop-color="#D6248E"/>
<stop offset="0.6969" stop-color="#EF30A2"/>
<stop offset="0.8618" stop-color="#F276C0"/>
<stop offset="1" stop-color="#FFADDE"/>
</linearGradient>
<linearGradient id="paint55_linear_227_1196" x1="344.487" y1="396.807" x2="336.923" y2="400.239" gradientUnits="userSpaceOnUse">
<stop stop-color="#1BBEE9"/>
<stop offset="0.1063" stop-color="#15A9D0"/>
<stop offset="0.2375" stop-color="#0C89A9"/>
<stop offset="0.3819" stop-color="#057D9B"/>
<stop offset="0.5356" stop-color="#D6248E"/>
<stop offset="0.6969" stop-color="#EF30A2"/>
<stop offset="0.8618" stop-color="#F276C0"/>
<stop offset="1" stop-color="#FFADDE"/>
</linearGradient>
<linearGradient id="paint56_linear_227_1196" x1="344.487" y1="389.625" x2="336.923" y2="393.057" gradientUnits="userSpaceOnUse">
<stop stop-color="#1BBEE9"/>
<stop offset="0.1063" stop-color="#15A9D0"/>
<stop offset="0.2375" stop-color="#0C89A9"/>
<stop offset="0.3819" stop-color="#057D9B"/>
<stop offset="0.5356" stop-color="#D6248E"/>
<stop offset="0.6969" stop-color="#EF30A2"/>
<stop offset="0.8618" stop-color="#F276C0"/>
<stop offset="1" stop-color="#FFADDE"/>
</linearGradient>
<linearGradient id="paint57_linear_227_1196" x1="344.487" y1="382.407" x2="336.923" y2="385.839" gradientUnits="userSpaceOnUse">
<stop stop-color="#1BBEE9"/>
<stop offset="0.1063" stop-color="#15A9D0"/>
<stop offset="0.2375" stop-color="#0C89A9"/>
<stop offset="0.3819" stop-color="#057D9B"/>
<stop offset="0.5356" stop-color="#D6248E"/>
<stop offset="0.6969" stop-color="#EF30A2"/>
<stop offset="0.8618" stop-color="#F276C0"/>
<stop offset="1" stop-color="#FFADDE"/>
</linearGradient>
<linearGradient id="paint58_linear_227_1196" x1="344.487" y1="375.226" x2="336.923" y2="378.658" gradientUnits="userSpaceOnUse">
<stop stop-color="#1BBEE9"/>
<stop offset="0.1063" stop-color="#15A9D0"/>
<stop offset="0.2375" stop-color="#0C89A9"/>
<stop offset="0.3819" stop-color="#057D9B"/>
<stop offset="0.5356" stop-color="#D6248E"/>
<stop offset="0.6969" stop-color="#EF30A2"/>
<stop offset="0.8618" stop-color="#F276C0"/>
<stop offset="1" stop-color="#FFADDE"/>
</linearGradient>
<linearGradient id="paint59_linear_227_1196" x1="344.487" y1="368.007" x2="336.923" y2="371.439" gradientUnits="userSpaceOnUse">
<stop stop-color="#1BBEE9"/>
<stop offset="0.1063" stop-color="#15A9D0"/>
<stop offset="0.2375" stop-color="#0C89A9"/>
<stop offset="0.3819" stop-color="#057D9B"/>
<stop offset="0.5356" stop-color="#D6248E"/>
<stop offset="0.6969" stop-color="#EF30A2"/>
<stop offset="0.8618" stop-color="#F276C0"/>
<stop offset="1" stop-color="#FFADDE"/>
</linearGradient>
<linearGradient id="paint60_linear_227_1196" x1="344.487" y1="360.826" x2="336.923" y2="364.258" gradientUnits="userSpaceOnUse">
<stop stop-color="#1BBEE9"/>
<stop offset="0.1063" stop-color="#15A9D0"/>
<stop offset="0.2375" stop-color="#0C89A9"/>
<stop offset="0.3819" stop-color="#057D9B"/>
<stop offset="0.5356" stop-color="#D6248E"/>
<stop offset="0.6969" stop-color="#EF30A2"/>
<stop offset="0.8618" stop-color="#F276C0"/>
<stop offset="1" stop-color="#FFADDE"/>
</linearGradient>
<linearGradient id="paint61_linear_227_1196" x1="255.357" y1="-175.904" x2="56.815" y2="3.60932" gradientUnits="userSpaceOnUse">
<stop stop-color="#109AE4"/>
<stop offset="0.1063" stop-color="#27ABF1"/>
<stop offset="0.2375" stop-color="#2BAAEE"/>
<stop offset="0.3819" stop-color="#3BB1F0"/>
<stop offset="0.5356" stop-color="#7581F7"/>
<stop offset="0.6969" stop-color="#EF30A2"/>
<stop offset="0.8618" stop-color="#F276C0"/>
<stop offset="1" stop-color="#FFADDE"/>
</linearGradient>
<radialGradient id="paint62_radial_227_1196" cx="0" cy="0" r="1" gradientUnits="userSpaceOnUse" gradientTransform="translate(353.266 260.482) rotate(-90) scale(117.207 1.84782)">
<stop stop-color="white"/>
<stop offset="1" stop-color="white" stop-opacity="0"/>
</radialGradient>
<radialGradient id="paint63_radial_227_1196" cx="0" cy="0" r="1" gradientUnits="userSpaceOnUse" gradientTransform="translate(20.3786 425.811) rotate(-90) scale(76.7481 1.86549)">
<stop stop-color="white"/>
<stop offset="1" stop-color="white" stop-opacity="0"/>
</radialGradient>
<radialGradient id="paint64_radial_227_1196" cx="0" cy="0" r="1" gradientUnits="userSpaceOnUse" gradientTransform="translate(97.0235 509.003) rotate(-180) scale(34.2957 4.17536)">
<stop stop-color="white"/>
<stop offset="1" stop-color="white" stop-opacity="0"/>
</radialGradient>
<radialGradient id="paint65_radial_227_1196" cx="0" cy="0" r="1" gradientUnits="userSpaceOnUse" gradientTransform="translate(193.499 9.66428) rotate(-180) scale(34.2957 4.17536)">
<stop stop-color="white"/>
<stop offset="1" stop-color="white" stop-opacity="0"/>
</radialGradient>
</defs>
</svg>
