<svg width="374" height="516" viewBox="0 0 374 516" fill="none" xmlns="http://www.w3.org/2000/svg">
<g filter="url(#filter0_d_271_1691)">
<path d="M15.6541 344.728C14.8263 343.162 12.4534 343.75 12.4534 345.522L12.4534 490.703C12.4534 495.285 16.1683 499 20.7508 499L117.753 499C121.007 499 123.952 497.073 125.255 494.092V494.092C126.549 491.13 129.465 489.207 132.697 489.183L181.075 488.831C183.709 488.812 185.52 491.472 184.536 493.915L184.11 494.975C183.335 496.901 184.752 499 186.828 499V499V499C188.903 499 190.319 496.901 189.541 494.978L189.112 493.915C188.125 491.473 189.935 488.812 192.568 488.831L240.943 489.183C244.176 489.207 247.091 491.13 248.386 494.092V494.092C249.688 497.073 252.633 499 255.887 499L352.906 499C357.488 499 361.203 495.285 361.203 490.703L361.203 345.522C361.203 343.75 358.83 343.162 358.002 344.729V344.729C357.175 346.295 354.802 345.707 354.802 343.935L354.802 180.462C354.802 179.301 355.045 178.154 355.516 177.094L360.489 165.895C360.96 164.835 361.203 163.688 361.203 162.527L361.203 17.3962C361.203 12.8137 357.488 9.09878 352.906 9.09878L186.828 9.09875L20.7509 9.09872C16.1683 9.09872 12.4534 12.8136 12.4534 17.3961L12.4534 162.527C12.4534 163.687 12.6967 164.835 13.1675 165.895L18.1407 177.094C18.6115 178.154 18.8548 179.301 18.8548 180.461L18.8548 343.935C18.8548 345.707 16.4819 346.295 15.6541 344.728V344.728Z" fill="#111827"/>
</g>
<path d="M16 195.06L16 187.043L1 176.434L1 184.355L16 195.06Z" fill="url(#paint0_linear_271_1691)"/>
<path d="M16 213.685L16 205.682L1 195.059L1 202.991L16 213.685Z" fill="url(#paint1_linear_271_1691)"/>
<path d="M16 232.31L16 224.307L1 213.684L1 221.616L16 232.31Z" fill="url(#paint2_linear_271_1691)"/>
<path d="M16 250.935L16 242.932L1 232.309L1 240.241L16 250.935Z" fill="url(#paint3_linear_271_1691)"/>
<path d="M16 269.561L16 261.558L1 250.935L1 258.867L16 269.561Z" fill="url(#paint4_linear_271_1691)"/>
<path d="M16 288.186L16 280.183L1 269.56L1 277.492L16 288.186Z" fill="url(#paint5_linear_271_1691)"/>
<path d="M16 306.811L16 298.808L1 288.185L1 296.117L16 306.811Z" fill="url(#paint6_linear_271_1691)"/>
<path d="M16 325.436L16 317.433L1 306.81L1 314.742L16 325.436Z" fill="url(#paint7_linear_271_1691)"/>
<path d="M16 344.061L16 336.044L1 325.435L1 333.356L16 344.061Z" fill="url(#paint8_linear_271_1691)"/>
<path d="M27.4178 471.896L34.0156 471.896L34.0156 468.732L27.4178 468.732L27.4178 471.896Z" fill="url(#paint9_linear_271_1691)"/>
<path d="M27.4178 464.85L34.0156 464.85L34.0156 461.686L27.4178 461.686L27.4178 464.85Z" fill="url(#paint10_linear_271_1691)"/>
<path d="M27.4178 457.767L34.0156 457.767L34.0156 454.603L27.4178 454.603L27.4178 457.767Z" fill="url(#paint11_linear_271_1691)"/>
<path d="M27.4178 450.723L34.0156 450.723L34.0156 447.559L27.4178 447.559L27.4178 450.723Z" fill="url(#paint12_linear_271_1691)"/>
<path d="M27.4178 443.675L34.0156 443.675L34.0156 440.511L27.4178 440.511L27.4178 443.675Z" fill="url(#paint13_linear_271_1691)"/>
<path d="M27.4178 436.595L34.0156 436.595L34.0156 433.431L27.4178 433.431L27.4178 436.595Z" fill="url(#paint14_linear_271_1691)"/>
<path d="M27.4178 429.547L34.0156 429.547L34.0156 426.383L27.4178 426.383L27.4178 429.547Z" fill="url(#paint15_linear_271_1691)"/>
<path d="M27.4178 422.467L34.0156 422.467L34.0156 419.303L27.4178 419.303L27.4178 422.467Z" fill="url(#paint16_linear_271_1691)"/>
<path d="M27.4178 415.419L34.0156 415.419L34.0156 412.255L27.4178 412.255L27.4178 415.419Z" fill="url(#paint17_linear_271_1691)"/>
<path d="M27.4178 408.34L34.0156 408.34L34.0156 405.176L27.4178 405.176L27.4178 408.34Z" fill="url(#paint18_linear_271_1691)"/>
<path d="M27.4178 401.294L34.0156 401.294L34.0156 398.13L27.4178 398.13L27.4178 401.294Z" fill="url(#paint19_linear_271_1691)"/>
<path d="M27.4178 394.246L34.0156 394.246L34.0156 391.083L27.4178 391.083L27.4178 394.246Z" fill="url(#paint20_linear_271_1691)"/>
<path d="M27.4178 387.167L34.0156 387.167L34.0156 384.004L27.4178 384.004L27.4178 387.167Z" fill="url(#paint21_linear_271_1691)"/>
<path d="M27.4178 380.12L34.0156 380.12L34.0156 376.957L27.4178 376.957L27.4178 380.12Z" fill="url(#paint22_linear_271_1691)"/>
<path d="M27.4178 373.038L34.0156 373.038L34.0156 369.875L27.4178 369.875L27.4178 373.038Z" fill="url(#paint23_linear_271_1691)"/>
<path d="M27.4178 365.993L34.0156 365.993L34.0156 362.83L27.4178 362.83L27.4178 365.993Z" fill="url(#paint24_linear_271_1691)"/>
<path d="M357 194.637L357 186.803L372 176.435L372 184.176L357 194.637Z" fill="url(#paint25_linear_271_1691)"/>
<path d="M357 212.838L357 205.004L372 194.636L372 202.377L357 212.838Z" fill="url(#paint26_linear_271_1691)"/>
<path d="M357 231.04L357 223.206L372 212.838L372 220.579L357 231.04Z" fill="url(#paint27_linear_271_1691)"/>
<path d="M357 249.242L357 241.408L372 231.04L372 238.781L357 249.242Z" fill="url(#paint28_linear_271_1691)"/>
<path d="M357 267.443L357 259.623L372 249.242L372 256.992L357 267.443Z" fill="url(#paint29_linear_271_1691)"/>
<path d="M357 285.646L357 277.825L372 267.444L372 275.195L357 285.646Z" fill="url(#paint30_linear_271_1691)"/>
<path d="M357 303.848L357 296.027L372 285.646L372 293.397L357 303.848Z" fill="url(#paint31_linear_271_1691)"/>
<path d="M357 322.049L357 314.228L372 303.847L372 311.598L357 322.049Z" fill="url(#paint32_linear_271_1691)"/>
<path d="M357 340.251L357 332.417L372 322.049L372 329.79L357 340.251Z" fill="url(#paint33_linear_271_1691)"/>
<path d="M345.141 119.604L345.141 357.113L337.724 357.113" stroke="#31A6E4" stroke-width="0.343314" stroke-miterlimit="10"/>
<path d="M345 36.8433L269.498 36.8432L264 52.041" stroke="#31A6E4" stroke-width="0.375567" stroke-miterlimit="10"/>
<path d="M345.141 114.681L345.141 111.949" stroke="#31A6E4" stroke-width="0.439089" stroke-miterlimit="10"/>
<path d="M345.141 106.808L345.141 104.076" stroke="#31A6E4" stroke-width="0.439089" stroke-miterlimit="10"/>
<path d="M345.141 98.9346L345.141 96.2025" stroke="#31A6E4" stroke-width="0.439089" stroke-miterlimit="10"/>
<path d="M345.141 91.0635L345.141 88.3314" stroke="#31A6E4" stroke-width="0.439089" stroke-miterlimit="10"/>
<path d="M345.141 83.1885L345.141 80.4564" stroke="#31A6E4" stroke-width="0.439089" stroke-miterlimit="10"/>
<path d="M345.141 75.3184L345.141 72.5863" stroke="#31A6E4" stroke-width="0.439089" stroke-miterlimit="10"/>
<path d="M345.141 67.4434L345.141 64.7113" stroke="#31A6E4" stroke-width="0.439089" stroke-miterlimit="10"/>
<path d="M345.141 59.5713L345.141 56.8033" stroke="#31A6E4" stroke-width="0.439089" stroke-miterlimit="10"/>
<path d="M345.141 51.6982L345.141 48.9303" stroke="#31A6E4" stroke-width="0.439089" stroke-miterlimit="10"/>
<path d="M345.141 43.8271L345.141 41.0591" stroke="#31A6E4" stroke-width="0.439089" stroke-miterlimit="10"/>
<path d="M30.9032 119.604L30.9032 357.113L38.3359 357.113" stroke="#BD338A" stroke-width="0.343314" stroke-miterlimit="10"/>
<path d="M31 36.8435L107.343 36.8435L113 49.1465" stroke="#BD338A" stroke-width="0.375567" stroke-miterlimit="10"/>
<path d="M30.9062 114.681L30.9063 111.949" stroke="#BD338A" stroke-width="0.439089" stroke-miterlimit="10"/>
<path d="M30.9062 106.808L30.9063 104.076" stroke="#BD338A" stroke-width="0.439089" stroke-miterlimit="10"/>
<path d="M30.9062 98.9336L30.9063 96.2016" stroke="#BD338A" stroke-width="0.439089" stroke-miterlimit="10"/>
<path d="M30.9062 91.0635L30.9063 88.3314" stroke="#BD338A" stroke-width="0.439089" stroke-miterlimit="10"/>
<path d="M30.9062 83.1885L30.9063 80.4564" stroke="#BD338A" stroke-width="0.439089" stroke-miterlimit="10"/>
<path d="M30.9062 75.3164L30.9063 72.5844" stroke="#BD338A" stroke-width="0.439089" stroke-miterlimit="10"/>
<path d="M30.9062 67.4434L30.9063 64.7113" stroke="#BD338A" stroke-width="0.439089" stroke-miterlimit="10"/>
<path d="M30.9062 59.5713L30.9063 56.8033" stroke="#BD338A" stroke-width="0.439089" stroke-miterlimit="10"/>
<path d="M30.9062 51.6973L30.9063 48.9293" stroke="#BD338A" stroke-width="0.439089" stroke-miterlimit="10"/>
<path d="M30.9062 43.8271L30.9063 41.0591" stroke="#BD338A" stroke-width="0.439089" stroke-miterlimit="10"/>
<path d="M153.852 471.895L160.974 455.323L187.676 455.323L214.378 455.323L221.484 471.895L337.723 471.896L337.723 471.069L221.647 471.069L214.542 454.497L187.676 454.497L160.81 454.497L153.705 471.069L37.6296 471.069L37.6296 471.895L153.852 471.895Z" fill="url(#paint34_linear_271_1691)"/>
<path d="M337.723 463.197L337.723 459.027" stroke="#06F0F6" stroke-width="0.30435" stroke-miterlimit="10"/>
<path d="M337.723 452.306L337.723 448.136" stroke="#20DAF7" stroke-width="0.30435" stroke-miterlimit="10"/>
<path d="M337.723 441.413L337.723 437.207" stroke="#39C4F7" stroke-width="0.30435" stroke-miterlimit="10"/>
<path d="M337.723 430.483L337.723 426.313" stroke="#53AEF8" stroke-width="0.30435" stroke-miterlimit="10"/>
<path d="M337.723 419.591L337.723 415.421" stroke="#6C98F9" stroke-width="0.30435" stroke-miterlimit="10"/>
<path d="M337.723 408.7L337.723 404.494" stroke="#8681F9" stroke-width="0.30435" stroke-miterlimit="10"/>
<path d="M337.723 397.773L337.723 393.603" stroke="#9F6BFA" stroke-width="0.30435" stroke-miterlimit="10"/>
<path d="M337.723 386.88L337.723 382.71" stroke="#B955FB" stroke-width="0.30435" stroke-miterlimit="10"/>
<path d="M337.723 375.987L337.723 371.781" stroke="#D23FFB" stroke-width="0.30435" stroke-miterlimit="10"/>
<path d="M337.723 365.058L337.723 360.888" stroke="#EC29FC" stroke-width="0.30435" stroke-miterlimit="10"/>
<path d="M38.3359 463.197L38.3359 459.027" stroke="#06F0F6" stroke-width="0.30435" stroke-miterlimit="10"/>
<path d="M38.3359 452.306L38.3359 448.136" stroke="#20DAF7" stroke-width="0.30435" stroke-miterlimit="10"/>
<path d="M38.3359 441.413L38.3359 437.207" stroke="#39C4F7" stroke-width="0.30435" stroke-miterlimit="10"/>
<path d="M38.3359 430.483L38.3359 426.313" stroke="#53AEF8" stroke-width="0.30435" stroke-miterlimit="10"/>
<path d="M38.3359 419.591L38.3359 415.421" stroke="#6C98F9" stroke-width="0.30435" stroke-miterlimit="10"/>
<path d="M38.3359 408.7L38.3359 404.494" stroke="#8681F9" stroke-width="0.30435" stroke-miterlimit="10"/>
<path d="M38.3359 397.773L38.3359 393.603" stroke="#9F6BFA" stroke-width="0.30435" stroke-miterlimit="10"/>
<path d="M38.3359 386.88L38.3359 382.71" stroke="#B955FB" stroke-width="0.30435" stroke-miterlimit="10"/>
<path d="M38.3359 375.987L38.3359 371.781" stroke="#D23FFB" stroke-width="0.30435" stroke-miterlimit="10"/>
<path d="M38.3359 365.058L38.3359 360.888" stroke="#EC29FC" stroke-width="0.30435" stroke-miterlimit="10"/>
<path d="M341.625 471.896L348.223 471.896L348.223 468.732L341.625 468.732L341.625 471.896Z" fill="url(#paint35_linear_271_1691)"/>
<path d="M341.625 464.85L348.223 464.85L348.223 461.686L341.625 461.686L341.625 464.85Z" fill="url(#paint36_linear_271_1691)"/>
<path d="M341.625 457.767L348.223 457.767L348.223 454.603L341.625 454.603L341.625 457.767Z" fill="url(#paint37_linear_271_1691)"/>
<path d="M341.625 450.723L348.223 450.723L348.223 447.559L341.625 447.559L341.625 450.723Z" fill="url(#paint38_linear_271_1691)"/>
<path d="M341.625 443.675L348.223 443.675L348.223 440.511L341.625 440.511L341.625 443.675Z" fill="url(#paint39_linear_271_1691)"/>
<path d="M341.625 436.595L348.223 436.595L348.223 433.431L341.625 433.431L341.625 436.595Z" fill="url(#paint40_linear_271_1691)"/>
<path d="M341.625 429.547L348.223 429.547L348.223 426.383L341.625 426.383L341.625 429.547Z" fill="url(#paint41_linear_271_1691)"/>
<path d="M341.625 422.467L348.223 422.467L348.223 419.303L341.625 419.303L341.625 422.467Z" fill="url(#paint42_linear_271_1691)"/>
<path d="M341.625 415.419L348.223 415.419L348.223 412.255L341.625 412.255L341.625 415.419Z" fill="url(#paint43_linear_271_1691)"/>
<path d="M341.625 408.34L348.223 408.34L348.223 405.176L341.625 405.176L341.625 408.34Z" fill="url(#paint44_linear_271_1691)"/>
<path d="M341.625 401.294L348.223 401.294L348.223 398.13L341.625 398.13L341.625 401.294Z" fill="url(#paint45_linear_271_1691)"/>
<path d="M341.625 394.246L348.223 394.246L348.223 391.083L341.625 391.083L341.625 394.246Z" fill="url(#paint46_linear_271_1691)"/>
<path d="M341.625 387.167L348.223 387.167L348.223 384.004L341.625 384.004L341.625 387.167Z" fill="url(#paint47_linear_271_1691)"/>
<path d="M341.625 380.121L348.223 380.121L348.223 376.958L341.625 376.958L341.625 380.121Z" fill="url(#paint48_linear_271_1691)"/>
<path d="M341.625 373.038L348.223 373.038L348.223 369.875L341.625 369.875L341.625 373.038Z" fill="url(#paint49_linear_271_1691)"/>
<path d="M341.625 365.993L348.223 365.993L348.223 362.83L341.625 362.83L341.625 365.993Z" fill="url(#paint50_linear_271_1691)"/>
<path d="M324 10.0663L308.766 52.041L78.4412 52.041L63 10.0662L324 10.0663Z" fill="url(#paint51_linear_271_1691)"/>
<g filter="url(#filter1_d_271_1691)">
<path d="M316 10.0656L301.616 48.4219L84.5389 48.4218L70 10.0656L316 10.0656Z" fill="#111827"/>
</g>
<path d="M353.259 140.165C354.274 140.165 355.109 191.679 355.109 255.199C355.109 318.72 354.274 370.197 353.259 370.197C352.244 370.197 351.409 318.72 351.409 255.199C351.409 191.643 352.244 140.165 353.259 140.165Z" fill="url(#paint52_radial_271_1691)"/>
<path d="M20.3797 342.051C21.4111 342.051 22.2461 375.77 22.2461 417.362C22.2461 458.954 21.4111 492.674 20.3797 492.674C19.3483 492.674 18.5134 458.954 18.5134 417.362C18.5134 375.77 19.3483 342.051 20.3797 342.051Z" fill="url(#paint53_radial_271_1691)"/>
<path d="M159.192 9.09819C159.192 6.83346 174.548 5.00011 193.49 5.00011C212.432 5.00011 227.789 6.83347 227.789 9.0982C227.789 11.3629 212.432 13.1963 193.49 13.1963C174.548 13.1963 159.192 11.3629 159.192 9.09819Z" fill="url(#paint54_radial_271_1691)" fill-opacity="0.1"/>
<defs>
<filter id="filter0_d_271_1691" x="0.00699615" y="0.386343" width="373.642" height="514.794" filterUnits="userSpaceOnUse" color-interpolation-filters="sRGB">
<feFlood flood-opacity="0" result="BackgroundImageFix"/>
<feColorMatrix in="SourceAlpha" type="matrix" values="0 0 0 0 0 0 0 0 0 0 0 0 0 0 0 0 0 0 127 0" result="hardAlpha"/>
<feOffset dy="3.73384"/>
<feGaussianBlur stdDeviation="6.22306"/>
<feComposite in2="hardAlpha" operator="out"/>
<feColorMatrix type="matrix" values="0 0 0 0 0.0241333 0 0 0 0 0.0444561 0 0 0 0 0.0851018 0 0 0 1 0"/>
<feBlend mode="normal" in2="BackgroundImageFix" result="effect1_dropShadow_271_1691"/>
<feBlend mode="normal" in="SourceGraphic" in2="effect1_dropShadow_271_1691" result="shape"/>
</filter>
<filter id="filter1_d_271_1691" x="57.5539" y="1.35314" width="270.892" height="63.2487" filterUnits="userSpaceOnUse" color-interpolation-filters="sRGB">
<feFlood flood-opacity="0" result="BackgroundImageFix"/>
<feColorMatrix in="SourceAlpha" type="matrix" values="0 0 0 0 0 0 0 0 0 0 0 0 0 0 0 0 0 0 127 0" result="hardAlpha"/>
<feOffset dy="3.73384"/>
<feGaussianBlur stdDeviation="6.22306"/>
<feComposite in2="hardAlpha" operator="out"/>
<feColorMatrix type="matrix" values="0 0 0 0 0.0241333 0 0 0 0 0.0444561 0 0 0 0 0.0851018 0 0 0 0.3 0"/>
<feBlend mode="normal" in2="BackgroundImageFix" result="effect1_dropShadow_271_1691"/>
<feBlend mode="normal" in="SourceGraphic" in2="effect1_dropShadow_271_1691" result="shape"/>
</filter>
<linearGradient id="paint0_linear_271_1691" x1="12.055" y1="122.188" x2="-8.04275" y2="125.776" gradientUnits="userSpaceOnUse">
<stop stop-color="#1BBEE9"/>
<stop offset="0.1063" stop-color="#15A9D0"/>
<stop offset="0.2375" stop-color="#0C89A9"/>
<stop offset="0.415" stop-color="#057D9B"/>
<stop offset="0.5356" stop-color="#D6248E"/>
<stop offset="0.6969" stop-color="#EF30A2"/>
<stop offset="0.8618" stop-color="#F276C0"/>
<stop offset="1" stop-color="#FFADDE"/>
</linearGradient>
<linearGradient id="paint1_linear_271_1691" x1="12.055" y1="140.813" x2="-8.04275" y2="144.401" gradientUnits="userSpaceOnUse">
<stop stop-color="#1BBEE9"/>
<stop offset="0.1063" stop-color="#15A9D0"/>
<stop offset="0.2375" stop-color="#0C89A9"/>
<stop offset="0.3819" stop-color="#057D9B"/>
<stop offset="0.5356" stop-color="#D6248E"/>
<stop offset="0.6969" stop-color="#EF30A2"/>
<stop offset="0.8618" stop-color="#F276C0"/>
<stop offset="1" stop-color="#FFADDE"/>
</linearGradient>
<linearGradient id="paint2_linear_271_1691" x1="12.055" y1="159.438" x2="-8.04275" y2="163.026" gradientUnits="userSpaceOnUse">
<stop stop-color="#1BBEE9"/>
<stop offset="0.1063" stop-color="#15A9D0"/>
<stop offset="0.2375" stop-color="#0C89A9"/>
<stop offset="0.3819" stop-color="#057D9B"/>
<stop offset="0.5356" stop-color="#D6248E"/>
<stop offset="0.6969" stop-color="#EF30A2"/>
<stop offset="0.8618" stop-color="#F276C0"/>
<stop offset="1" stop-color="#FFADDE"/>
</linearGradient>
<linearGradient id="paint3_linear_271_1691" x1="12.055" y1="178.063" x2="-8.04275" y2="181.651" gradientUnits="userSpaceOnUse">
<stop stop-color="#1BBEE9"/>
<stop offset="0.1063" stop-color="#15A9D0"/>
<stop offset="0.2375" stop-color="#0C89A9"/>
<stop offset="0.3819" stop-color="#057D9B"/>
<stop offset="0.5356" stop-color="#D6248E"/>
<stop offset="0.6969" stop-color="#EF30A2"/>
<stop offset="0.8618" stop-color="#F276C0"/>
<stop offset="1" stop-color="#FFADDE"/>
</linearGradient>
<linearGradient id="paint4_linear_271_1691" x1="12.055" y1="196.689" x2="-8.04275" y2="200.277" gradientUnits="userSpaceOnUse">
<stop stop-color="#1BBEE9"/>
<stop offset="0.1063" stop-color="#15A9D0"/>
<stop offset="0.2375" stop-color="#0C89A9"/>
<stop offset="0.3819" stop-color="#057D9B"/>
<stop offset="0.5356" stop-color="#D6248E"/>
<stop offset="0.6969" stop-color="#EF30A2"/>
<stop offset="0.8618" stop-color="#F276C0"/>
<stop offset="1" stop-color="#FFADDE"/>
</linearGradient>
<linearGradient id="paint5_linear_271_1691" x1="12.055" y1="215.314" x2="-8.04275" y2="218.902" gradientUnits="userSpaceOnUse">
<stop stop-color="#1BBEE9"/>
<stop offset="0.1063" stop-color="#15A9D0"/>
<stop offset="0.2375" stop-color="#0C89A9"/>
<stop offset="0.3819" stop-color="#057D9B"/>
<stop offset="0.5356" stop-color="#D6248E"/>
<stop offset="0.6969" stop-color="#EF30A2"/>
<stop offset="0.8618" stop-color="#F276C0"/>
<stop offset="1" stop-color="#FFADDE"/>
</linearGradient>
<linearGradient id="paint6_linear_271_1691" x1="12.055" y1="233.939" x2="-8.04275" y2="237.527" gradientUnits="userSpaceOnUse">
<stop stop-color="#1BBEE9"/>
<stop offset="0.1063" stop-color="#15A9D0"/>
<stop offset="0.2375" stop-color="#0C89A9"/>
<stop offset="0.3819" stop-color="#057D9B"/>
<stop offset="0.5356" stop-color="#D6248E"/>
<stop offset="0.6969" stop-color="#EF30A2"/>
<stop offset="0.8618" stop-color="#F276C0"/>
<stop offset="1" stop-color="#FFADDE"/>
</linearGradient>
<linearGradient id="paint7_linear_271_1691" x1="12.055" y1="252.564" x2="-8.04275" y2="256.152" gradientUnits="userSpaceOnUse">
<stop stop-color="#1BBEE9"/>
<stop offset="0.1063" stop-color="#15A9D0"/>
<stop offset="0.2375" stop-color="#0C89A9"/>
<stop offset="0.3819" stop-color="#057D9B"/>
<stop offset="0.5356" stop-color="#D6248E"/>
<stop offset="0.6969" stop-color="#EF30A2"/>
<stop offset="0.8618" stop-color="#F276C0"/>
<stop offset="1" stop-color="#FFADDE"/>
</linearGradient>
<linearGradient id="paint8_linear_271_1691" x1="12.055" y1="271.189" x2="-8.04275" y2="274.777" gradientUnits="userSpaceOnUse">
<stop stop-color="#1BBEE9"/>
<stop offset="0.1063" stop-color="#15A9D0"/>
<stop offset="0.2375" stop-color="#0C89A9"/>
<stop offset="0.3819" stop-color="#057D9B"/>
<stop offset="0.5356" stop-color="#D6248E"/>
<stop offset="0.6969" stop-color="#EF30A2"/>
<stop offset="0.8618" stop-color="#F276C0"/>
<stop offset="1" stop-color="#FFADDE"/>
</linearGradient>
<linearGradient id="paint9_linear_271_1691" x1="32.2804" y1="459.518" x2="24.7654" y2="462.993" gradientUnits="userSpaceOnUse">
<stop stop-color="#1BBEE9"/>
<stop offset="0.1063" stop-color="#15A9D0"/>
<stop offset="0.2375" stop-color="#0C89A9"/>
<stop offset="0.3819" stop-color="#057D9B"/>
<stop offset="0.5356" stop-color="#D6248E"/>
<stop offset="0.6969" stop-color="#EF30A2"/>
<stop offset="0.8618" stop-color="#F276C0"/>
<stop offset="1" stop-color="#FFADDE"/>
</linearGradient>
<linearGradient id="paint10_linear_271_1691" x1="32.2804" y1="452.472" x2="24.7654" y2="455.947" gradientUnits="userSpaceOnUse">
<stop stop-color="#1BBEE9"/>
<stop offset="0.1063" stop-color="#15A9D0"/>
<stop offset="0.2375" stop-color="#0C89A9"/>
<stop offset="0.3819" stop-color="#057D9B"/>
<stop offset="0.5356" stop-color="#D6248E"/>
<stop offset="0.6969" stop-color="#EF30A2"/>
<stop offset="0.8618" stop-color="#F276C0"/>
<stop offset="1" stop-color="#FFADDE"/>
</linearGradient>
<linearGradient id="paint11_linear_271_1691" x1="32.2804" y1="445.389" x2="24.7654" y2="448.864" gradientUnits="userSpaceOnUse">
<stop stop-color="#1BBEE9"/>
<stop offset="0.1063" stop-color="#15A9D0"/>
<stop offset="0.2375" stop-color="#0C89A9"/>
<stop offset="0.3819" stop-color="#057D9B"/>
<stop offset="0.5356" stop-color="#D6248E"/>
<stop offset="0.6969" stop-color="#EF30A2"/>
<stop offset="0.8618" stop-color="#F276C0"/>
<stop offset="1" stop-color="#FFADDE"/>
</linearGradient>
<linearGradient id="paint12_linear_271_1691" x1="32.2804" y1="438.345" x2="24.7654" y2="441.82" gradientUnits="userSpaceOnUse">
<stop stop-color="#1BBEE9"/>
<stop offset="0.1063" stop-color="#15A9D0"/>
<stop offset="0.2375" stop-color="#0C89A9"/>
<stop offset="0.3819" stop-color="#057D9B"/>
<stop offset="0.5356" stop-color="#D6248E"/>
<stop offset="0.6969" stop-color="#EF30A2"/>
<stop offset="0.8618" stop-color="#F276C0"/>
<stop offset="1" stop-color="#FFADDE"/>
</linearGradient>
<linearGradient id="paint13_linear_271_1691" x1="32.2804" y1="431.298" x2="24.7654" y2="434.773" gradientUnits="userSpaceOnUse">
<stop stop-color="#1BBEE9"/>
<stop offset="0.1063" stop-color="#15A9D0"/>
<stop offset="0.2375" stop-color="#0C89A9"/>
<stop offset="0.3819" stop-color="#057D9B"/>
<stop offset="0.5356" stop-color="#D6248E"/>
<stop offset="0.6969" stop-color="#EF30A2"/>
<stop offset="0.8618" stop-color="#F276C0"/>
<stop offset="1" stop-color="#FFADDE"/>
</linearGradient>
<linearGradient id="paint14_linear_271_1691" x1="32.2804" y1="424.218" x2="24.7654" y2="427.692" gradientUnits="userSpaceOnUse">
<stop stop-color="#1BBEE9"/>
<stop offset="0.1063" stop-color="#15A9D0"/>
<stop offset="0.2375" stop-color="#0C89A9"/>
<stop offset="0.3819" stop-color="#057D9B"/>
<stop offset="0.5356" stop-color="#D6248E"/>
<stop offset="0.6969" stop-color="#EF30A2"/>
<stop offset="0.8618" stop-color="#F276C0"/>
<stop offset="1" stop-color="#FFADDE"/>
</linearGradient>
<linearGradient id="paint15_linear_271_1691" x1="32.2804" y1="417.17" x2="24.7654" y2="420.645" gradientUnits="userSpaceOnUse">
<stop stop-color="#1BBEE9"/>
<stop offset="0.1063" stop-color="#15A9D0"/>
<stop offset="0.2375" stop-color="#0C89A9"/>
<stop offset="0.3819" stop-color="#057D9B"/>
<stop offset="0.5356" stop-color="#D6248E"/>
<stop offset="0.6969" stop-color="#EF30A2"/>
<stop offset="0.8618" stop-color="#F276C0"/>
<stop offset="1" stop-color="#FFADDE"/>
</linearGradient>
<linearGradient id="paint16_linear_271_1691" x1="32.2804" y1="410.09" x2="24.7654" y2="413.565" gradientUnits="userSpaceOnUse">
<stop stop-color="#1BBEE9"/>
<stop offset="0.1063" stop-color="#15A9D0"/>
<stop offset="0.2375" stop-color="#0C89A9"/>
<stop offset="0.3819" stop-color="#057D9B"/>
<stop offset="0.5356" stop-color="#D6248E"/>
<stop offset="0.6969" stop-color="#EF30A2"/>
<stop offset="0.8618" stop-color="#F276C0"/>
<stop offset="1" stop-color="#FFADDE"/>
</linearGradient>
<linearGradient id="paint17_linear_271_1691" x1="32.2804" y1="403.042" x2="24.7654" y2="406.517" gradientUnits="userSpaceOnUse">
<stop stop-color="#1BBEE9"/>
<stop offset="0.1063" stop-color="#15A9D0"/>
<stop offset="0.2375" stop-color="#0C89A9"/>
<stop offset="0.3819" stop-color="#057D9B"/>
<stop offset="0.5356" stop-color="#D6248E"/>
<stop offset="0.6969" stop-color="#EF30A2"/>
<stop offset="0.8618" stop-color="#F276C0"/>
<stop offset="1" stop-color="#FFADDE"/>
</linearGradient>
<linearGradient id="paint18_linear_271_1691" x1="32.2804" y1="395.963" x2="24.7654" y2="399.438" gradientUnits="userSpaceOnUse">
<stop stop-color="#1BBEE9"/>
<stop offset="0.1063" stop-color="#15A9D0"/>
<stop offset="0.2375" stop-color="#0C89A9"/>
<stop offset="0.3819" stop-color="#057D9B"/>
<stop offset="0.5356" stop-color="#D6248E"/>
<stop offset="0.6969" stop-color="#EF30A2"/>
<stop offset="0.8618" stop-color="#F276C0"/>
<stop offset="1" stop-color="#FFADDE"/>
</linearGradient>
<linearGradient id="paint19_linear_271_1691" x1="32.2804" y1="388.917" x2="24.7654" y2="392.392" gradientUnits="userSpaceOnUse">
<stop stop-color="#1BBEE9"/>
<stop offset="0.1063" stop-color="#15A9D0"/>
<stop offset="0.2375" stop-color="#0C89A9"/>
<stop offset="0.3819" stop-color="#057D9B"/>
<stop offset="0.5356" stop-color="#D6248E"/>
<stop offset="0.6969" stop-color="#EF30A2"/>
<stop offset="0.8618" stop-color="#F276C0"/>
<stop offset="1" stop-color="#FFADDE"/>
</linearGradient>
<linearGradient id="paint20_linear_271_1691" x1="32.2804" y1="381.869" x2="24.7654" y2="385.344" gradientUnits="userSpaceOnUse">
<stop stop-color="#1BBEE9"/>
<stop offset="0.1063" stop-color="#15A9D0"/>
<stop offset="0.2375" stop-color="#0C89A9"/>
<stop offset="0.3819" stop-color="#057D9B"/>
<stop offset="0.5356" stop-color="#D6248E"/>
<stop offset="0.6969" stop-color="#EF30A2"/>
<stop offset="0.8618" stop-color="#F276C0"/>
<stop offset="1" stop-color="#FFADDE"/>
</linearGradient>
<linearGradient id="paint21_linear_271_1691" x1="32.2804" y1="374.79" x2="24.7654" y2="378.265" gradientUnits="userSpaceOnUse">
<stop stop-color="#1BBEE9"/>
<stop offset="0.1063" stop-color="#15A9D0"/>
<stop offset="0.2375" stop-color="#0C89A9"/>
<stop offset="0.3819" stop-color="#057D9B"/>
<stop offset="0.5356" stop-color="#D6248E"/>
<stop offset="0.6969" stop-color="#EF30A2"/>
<stop offset="0.8618" stop-color="#F276C0"/>
<stop offset="1" stop-color="#FFADDE"/>
</linearGradient>
<linearGradient id="paint22_linear_271_1691" x1="32.2804" y1="367.743" x2="24.7654" y2="371.218" gradientUnits="userSpaceOnUse">
<stop stop-color="#1BBEE9"/>
<stop offset="0.1063" stop-color="#15A9D0"/>
<stop offset="0.2375" stop-color="#0C89A9"/>
<stop offset="0.3819" stop-color="#057D9B"/>
<stop offset="0.5356" stop-color="#D6248E"/>
<stop offset="0.6969" stop-color="#EF30A2"/>
<stop offset="0.8618" stop-color="#F276C0"/>
<stop offset="1" stop-color="#FFADDE"/>
</linearGradient>
<linearGradient id="paint23_linear_271_1691" x1="32.2804" y1="360.661" x2="24.7654" y2="364.136" gradientUnits="userSpaceOnUse">
<stop stop-color="#1BBEE9"/>
<stop offset="0.1063" stop-color="#15A9D0"/>
<stop offset="0.2375" stop-color="#0C89A9"/>
<stop offset="0.3819" stop-color="#057D9B"/>
<stop offset="0.5356" stop-color="#D6248E"/>
<stop offset="0.6969" stop-color="#EF30A2"/>
<stop offset="0.8618" stop-color="#F276C0"/>
<stop offset="1" stop-color="#FFADDE"/>
</linearGradient>
<linearGradient id="paint24_linear_271_1691" x1="32.2804" y1="353.616" x2="24.7654" y2="357.091" gradientUnits="userSpaceOnUse">
<stop stop-color="#1BBEE9"/>
<stop offset="0.1063" stop-color="#15A9D0"/>
<stop offset="0.2375" stop-color="#0C89A9"/>
<stop offset="0.3819" stop-color="#057D9B"/>
<stop offset="0.5356" stop-color="#D6248E"/>
<stop offset="0.6969" stop-color="#EF30A2"/>
<stop offset="0.8618" stop-color="#F276C0"/>
<stop offset="1" stop-color="#FFADDE"/>
</linearGradient>
<linearGradient id="paint25_linear_271_1691" x1="368.055" y1="123.421" x2="347.986" y2="127.088" gradientUnits="userSpaceOnUse">
<stop stop-color="#1BBEE9"/>
<stop offset="0.1063" stop-color="#15A9D0"/>
<stop offset="0.2375" stop-color="#0C89A9"/>
<stop offset="0.3819" stop-color="#057D9B"/>
<stop offset="0.5356" stop-color="#D6248E"/>
<stop offset="0.6969" stop-color="#EF30A2"/>
<stop offset="0.8618" stop-color="#F276C0"/>
<stop offset="1" stop-color="#FFADDE"/>
</linearGradient>
<linearGradient id="paint26_linear_271_1691" x1="368.055" y1="141.622" x2="347.986" y2="145.289" gradientUnits="userSpaceOnUse">
<stop stop-color="#1BBEE9"/>
<stop offset="0.1063" stop-color="#15A9D0"/>
<stop offset="0.2375" stop-color="#0C89A9"/>
<stop offset="0.3819" stop-color="#057D9B"/>
<stop offset="0.5356" stop-color="#D6248E"/>
<stop offset="0.6969" stop-color="#EF30A2"/>
<stop offset="0.8618" stop-color="#F276C0"/>
<stop offset="1" stop-color="#FFADDE"/>
</linearGradient>
<linearGradient id="paint27_linear_271_1691" x1="368.055" y1="159.824" x2="347.986" y2="163.491" gradientUnits="userSpaceOnUse">
<stop stop-color="#1BBEE9"/>
<stop offset="0.1063" stop-color="#15A9D0"/>
<stop offset="0.2375" stop-color="#0C89A9"/>
<stop offset="0.3819" stop-color="#057D9B"/>
<stop offset="0.5356" stop-color="#D6248E"/>
<stop offset="0.6969" stop-color="#EF30A2"/>
<stop offset="0.8618" stop-color="#F276C0"/>
<stop offset="1" stop-color="#FFADDE"/>
</linearGradient>
<linearGradient id="paint28_linear_271_1691" x1="368.055" y1="178.026" x2="347.986" y2="181.693" gradientUnits="userSpaceOnUse">
<stop stop-color="#1BBEE9"/>
<stop offset="0.1063" stop-color="#15A9D0"/>
<stop offset="0.2375" stop-color="#0C89A9"/>
<stop offset="0.3819" stop-color="#057D9B"/>
<stop offset="0.5356" stop-color="#D6248E"/>
<stop offset="0.6969" stop-color="#EF30A2"/>
<stop offset="0.8618" stop-color="#F276C0"/>
<stop offset="1" stop-color="#FFADDE"/>
</linearGradient>
<linearGradient id="paint29_linear_271_1691" x1="368.055" y1="196.228" x2="347.986" y2="199.894" gradientUnits="userSpaceOnUse">
<stop stop-color="#1BBEE9"/>
<stop offset="0.1063" stop-color="#15A9D0"/>
<stop offset="0.2375" stop-color="#0C89A9"/>
<stop offset="0.3819" stop-color="#057D9B"/>
<stop offset="0.5356" stop-color="#D6248E"/>
<stop offset="0.6969" stop-color="#EF30A2"/>
<stop offset="0.8618" stop-color="#F276C0"/>
<stop offset="1" stop-color="#FFADDE"/>
</linearGradient>
<linearGradient id="paint30_linear_271_1691" x1="368.055" y1="214.43" x2="347.986" y2="218.096" gradientUnits="userSpaceOnUse">
<stop stop-color="#1BBEE9"/>
<stop offset="0.1063" stop-color="#15A9D0"/>
<stop offset="0.2375" stop-color="#0C89A9"/>
<stop offset="0.3819" stop-color="#057D9B"/>
<stop offset="0.5356" stop-color="#D6248E"/>
<stop offset="0.6969" stop-color="#EF30A2"/>
<stop offset="0.8618" stop-color="#F276C0"/>
<stop offset="1" stop-color="#FFADDE"/>
</linearGradient>
<linearGradient id="paint31_linear_271_1691" x1="368.055" y1="232.632" x2="347.986" y2="236.299" gradientUnits="userSpaceOnUse">
<stop stop-color="#1BBEE9"/>
<stop offset="0.1063" stop-color="#15A9D0"/>
<stop offset="0.2375" stop-color="#0C89A9"/>
<stop offset="0.3819" stop-color="#057D9B"/>
<stop offset="0.5356" stop-color="#D6248E"/>
<stop offset="0.6969" stop-color="#EF30A2"/>
<stop offset="0.8618" stop-color="#F276C0"/>
<stop offset="1" stop-color="#FFADDE"/>
</linearGradient>
<linearGradient id="paint32_linear_271_1691" x1="368.055" y1="250.833" x2="347.986" y2="254.5" gradientUnits="userSpaceOnUse">
<stop stop-color="#1BBEE9"/>
<stop offset="0.1063" stop-color="#15A9D0"/>
<stop offset="0.2375" stop-color="#0C89A9"/>
<stop offset="0.3819" stop-color="#057D9B"/>
<stop offset="0.5356" stop-color="#D6248E"/>
<stop offset="0.6969" stop-color="#EF30A2"/>
<stop offset="0.8618" stop-color="#F276C0"/>
<stop offset="1" stop-color="#FFADDE"/>
</linearGradient>
<linearGradient id="paint33_linear_271_1691" x1="368.055" y1="269.035" x2="347.986" y2="272.702" gradientUnits="userSpaceOnUse">
<stop stop-color="#1BBEE9"/>
<stop offset="0.1063" stop-color="#15A9D0"/>
<stop offset="0.2375" stop-color="#0C89A9"/>
<stop offset="0.3819" stop-color="#057D9B"/>
<stop offset="0.5356" stop-color="#D6248E"/>
<stop offset="0.6969" stop-color="#EF30A2"/>
<stop offset="0.8618" stop-color="#F276C0"/>
<stop offset="1" stop-color="#FFADDE"/>
</linearGradient>
<linearGradient id="paint34_linear_271_1691" x1="258.798" y1="403.821" x2="232.241" y2="505.375" gradientUnits="userSpaceOnUse">
<stop stop-color="#1BBEE9"/>
<stop offset="0.1063" stop-color="#15A9D0"/>
<stop offset="0.2375" stop-color="#0C89A9"/>
<stop offset="0.3819" stop-color="#057D9B"/>
<stop offset="0.5356" stop-color="#D6248E"/>
<stop offset="0.6969" stop-color="#EF30A2"/>
<stop offset="0.8618" stop-color="#F276C0"/>
<stop offset="1" stop-color="#FFADDE"/>
</linearGradient>
<linearGradient id="paint35_linear_271_1691" x1="346.487" y1="459.518" x2="338.972" y2="462.993" gradientUnits="userSpaceOnUse">
<stop stop-color="#1BBEE9"/>
<stop offset="0.1063" stop-color="#15A9D0"/>
<stop offset="0.2375" stop-color="#0C89A9"/>
<stop offset="0.3819" stop-color="#057D9B"/>
<stop offset="0.5356" stop-color="#D6248E"/>
<stop offset="0.6969" stop-color="#EF30A2"/>
<stop offset="0.8618" stop-color="#F276C0"/>
<stop offset="1" stop-color="#FFADDE"/>
</linearGradient>
<linearGradient id="paint36_linear_271_1691" x1="346.487" y1="452.472" x2="338.972" y2="455.947" gradientUnits="userSpaceOnUse">
<stop stop-color="#1BBEE9"/>
<stop offset="0.1063" stop-color="#15A9D0"/>
<stop offset="0.2375" stop-color="#0C89A9"/>
<stop offset="0.3819" stop-color="#057D9B"/>
<stop offset="0.5356" stop-color="#D6248E"/>
<stop offset="0.6969" stop-color="#EF30A2"/>
<stop offset="0.8618" stop-color="#F276C0"/>
<stop offset="1" stop-color="#FFADDE"/>
</linearGradient>
<linearGradient id="paint37_linear_271_1691" x1="346.487" y1="445.389" x2="338.972" y2="448.864" gradientUnits="userSpaceOnUse">
<stop stop-color="#1BBEE9"/>
<stop offset="0.1063" stop-color="#15A9D0"/>
<stop offset="0.2375" stop-color="#0C89A9"/>
<stop offset="0.3819" stop-color="#057D9B"/>
<stop offset="0.5356" stop-color="#D6248E"/>
<stop offset="0.6969" stop-color="#EF30A2"/>
<stop offset="0.8618" stop-color="#F276C0"/>
<stop offset="1" stop-color="#FFADDE"/>
</linearGradient>
<linearGradient id="paint38_linear_271_1691" x1="346.487" y1="438.345" x2="338.972" y2="441.82" gradientUnits="userSpaceOnUse">
<stop stop-color="#1BBEE9"/>
<stop offset="0.1063" stop-color="#15A9D0"/>
<stop offset="0.2375" stop-color="#0C89A9"/>
<stop offset="0.3819" stop-color="#057D9B"/>
<stop offset="0.5356" stop-color="#D6248E"/>
<stop offset="0.6969" stop-color="#EF30A2"/>
<stop offset="0.8618" stop-color="#F276C0"/>
<stop offset="1" stop-color="#FFADDE"/>
</linearGradient>
<linearGradient id="paint39_linear_271_1691" x1="346.487" y1="431.298" x2="338.972" y2="434.773" gradientUnits="userSpaceOnUse">
<stop stop-color="#1BBEE9"/>
<stop offset="0.1063" stop-color="#15A9D0"/>
<stop offset="0.2375" stop-color="#0C89A9"/>
<stop offset="0.3819" stop-color="#057D9B"/>
<stop offset="0.5356" stop-color="#D6248E"/>
<stop offset="0.6969" stop-color="#EF30A2"/>
<stop offset="0.8618" stop-color="#F276C0"/>
<stop offset="1" stop-color="#FFADDE"/>
</linearGradient>
<linearGradient id="paint40_linear_271_1691" x1="346.487" y1="424.218" x2="338.972" y2="427.692" gradientUnits="userSpaceOnUse">
<stop stop-color="#1BBEE9"/>
<stop offset="0.1063" stop-color="#15A9D0"/>
<stop offset="0.2375" stop-color="#0C89A9"/>
<stop offset="0.3819" stop-color="#057D9B"/>
<stop offset="0.5356" stop-color="#D6248E"/>
<stop offset="0.6969" stop-color="#EF30A2"/>
<stop offset="0.8618" stop-color="#F276C0"/>
<stop offset="1" stop-color="#FFADDE"/>
</linearGradient>
<linearGradient id="paint41_linear_271_1691" x1="346.487" y1="417.17" x2="338.972" y2="420.645" gradientUnits="userSpaceOnUse">
<stop stop-color="#1BBEE9"/>
<stop offset="0.1063" stop-color="#15A9D0"/>
<stop offset="0.2375" stop-color="#0C89A9"/>
<stop offset="0.3819" stop-color="#057D9B"/>
<stop offset="0.5356" stop-color="#D6248E"/>
<stop offset="0.6969" stop-color="#EF30A2"/>
<stop offset="0.8618" stop-color="#F276C0"/>
<stop offset="1" stop-color="#FFADDE"/>
</linearGradient>
<linearGradient id="paint42_linear_271_1691" x1="346.487" y1="410.09" x2="338.972" y2="413.565" gradientUnits="userSpaceOnUse">
<stop stop-color="#1BBEE9"/>
<stop offset="0.1063" stop-color="#15A9D0"/>
<stop offset="0.2375" stop-color="#0C89A9"/>
<stop offset="0.3819" stop-color="#057D9B"/>
<stop offset="0.5356" stop-color="#D6248E"/>
<stop offset="0.6969" stop-color="#EF30A2"/>
<stop offset="0.8618" stop-color="#F276C0"/>
<stop offset="1" stop-color="#FFADDE"/>
</linearGradient>
<linearGradient id="paint43_linear_271_1691" x1="346.487" y1="403.042" x2="338.972" y2="406.517" gradientUnits="userSpaceOnUse">
<stop stop-color="#1BBEE9"/>
<stop offset="0.1063" stop-color="#15A9D0"/>
<stop offset="0.2375" stop-color="#0C89A9"/>
<stop offset="0.3819" stop-color="#057D9B"/>
<stop offset="0.5356" stop-color="#D6248E"/>
<stop offset="0.6969" stop-color="#EF30A2"/>
<stop offset="0.8618" stop-color="#F276C0"/>
<stop offset="1" stop-color="#FFADDE"/>
</linearGradient>
<linearGradient id="paint44_linear_271_1691" x1="346.487" y1="395.963" x2="338.972" y2="399.438" gradientUnits="userSpaceOnUse">
<stop stop-color="#1BBEE9"/>
<stop offset="0.1063" stop-color="#15A9D0"/>
<stop offset="0.2375" stop-color="#0C89A9"/>
<stop offset="0.3819" stop-color="#057D9B"/>
<stop offset="0.5356" stop-color="#D6248E"/>
<stop offset="0.6969" stop-color="#EF30A2"/>
<stop offset="0.8618" stop-color="#F276C0"/>
<stop offset="1" stop-color="#FFADDE"/>
</linearGradient>
<linearGradient id="paint45_linear_271_1691" x1="346.487" y1="388.917" x2="338.972" y2="392.392" gradientUnits="userSpaceOnUse">
<stop stop-color="#1BBEE9"/>
<stop offset="0.1063" stop-color="#15A9D0"/>
<stop offset="0.2375" stop-color="#0C89A9"/>
<stop offset="0.3819" stop-color="#057D9B"/>
<stop offset="0.5356" stop-color="#D6248E"/>
<stop offset="0.6969" stop-color="#EF30A2"/>
<stop offset="0.8618" stop-color="#F276C0"/>
<stop offset="1" stop-color="#FFADDE"/>
</linearGradient>
<linearGradient id="paint46_linear_271_1691" x1="346.487" y1="381.869" x2="338.972" y2="385.344" gradientUnits="userSpaceOnUse">
<stop stop-color="#1BBEE9"/>
<stop offset="0.1063" stop-color="#15A9D0"/>
<stop offset="0.2375" stop-color="#0C89A9"/>
<stop offset="0.3819" stop-color="#057D9B"/>
<stop offset="0.5356" stop-color="#D6248E"/>
<stop offset="0.6969" stop-color="#EF30A2"/>
<stop offset="0.8618" stop-color="#F276C0"/>
<stop offset="1" stop-color="#FFADDE"/>
</linearGradient>
<linearGradient id="paint47_linear_271_1691" x1="346.487" y1="374.79" x2="338.972" y2="378.265" gradientUnits="userSpaceOnUse">
<stop stop-color="#1BBEE9"/>
<stop offset="0.1063" stop-color="#15A9D0"/>
<stop offset="0.2375" stop-color="#0C89A9"/>
<stop offset="0.3819" stop-color="#057D9B"/>
<stop offset="0.5356" stop-color="#D6248E"/>
<stop offset="0.6969" stop-color="#EF30A2"/>
<stop offset="0.8618" stop-color="#F276C0"/>
<stop offset="1" stop-color="#FFADDE"/>
</linearGradient>
<linearGradient id="paint48_linear_271_1691" x1="346.487" y1="367.744" x2="338.972" y2="371.219" gradientUnits="userSpaceOnUse">
<stop stop-color="#1BBEE9"/>
<stop offset="0.1063" stop-color="#15A9D0"/>
<stop offset="0.2375" stop-color="#0C89A9"/>
<stop offset="0.3819" stop-color="#057D9B"/>
<stop offset="0.5356" stop-color="#D6248E"/>
<stop offset="0.6969" stop-color="#EF30A2"/>
<stop offset="0.8618" stop-color="#F276C0"/>
<stop offset="1" stop-color="#FFADDE"/>
</linearGradient>
<linearGradient id="paint49_linear_271_1691" x1="346.487" y1="360.661" x2="338.972" y2="364.136" gradientUnits="userSpaceOnUse">
<stop stop-color="#1BBEE9"/>
<stop offset="0.1063" stop-color="#15A9D0"/>
<stop offset="0.2375" stop-color="#0C89A9"/>
<stop offset="0.3819" stop-color="#057D9B"/>
<stop offset="0.5356" stop-color="#D6248E"/>
<stop offset="0.6969" stop-color="#EF30A2"/>
<stop offset="0.8618" stop-color="#F276C0"/>
<stop offset="1" stop-color="#FFADDE"/>
</linearGradient>
<linearGradient id="paint50_linear_271_1691" x1="346.487" y1="353.616" x2="338.972" y2="357.091" gradientUnits="userSpaceOnUse">
<stop stop-color="#1BBEE9"/>
<stop offset="0.1063" stop-color="#15A9D0"/>
<stop offset="0.2375" stop-color="#0C89A9"/>
<stop offset="0.3819" stop-color="#057D9B"/>
<stop offset="0.5356" stop-color="#D6248E"/>
<stop offset="0.6969" stop-color="#EF30A2"/>
<stop offset="0.8618" stop-color="#F276C0"/>
<stop offset="1" stop-color="#FFADDE"/>
</linearGradient>
<linearGradient id="paint51_linear_271_1691" x1="255.357" y1="-112.188" x2="130.948" y2="59.3213" gradientUnits="userSpaceOnUse">
<stop stop-color="#109AE4"/>
<stop offset="0.1063" stop-color="#27ABF1"/>
<stop offset="0.2375" stop-color="#2BAAEE"/>
<stop offset="0.3819" stop-color="#3BB1F0"/>
<stop offset="0.5356" stop-color="#7581F7"/>
<stop offset="0.6969" stop-color="#EF30A2"/>
<stop offset="0.8618" stop-color="#F276C0"/>
<stop offset="1" stop-color="#FFADDE"/>
</linearGradient>
<radialGradient id="paint52_radial_271_1691" cx="0" cy="0" r="1" gradientUnits="userSpaceOnUse" gradientTransform="translate(353.262 255.166) rotate(-90) scale(114.994 1.84782)">
<stop stop-color="white"/>
<stop offset="1" stop-color="white" stop-opacity="0"/>
</radialGradient>
<radialGradient id="paint53_radial_271_1691" cx="0" cy="0" r="1" gradientUnits="userSpaceOnUse" gradientTransform="translate(20.3806 417.375) rotate(-90) scale(75.2986 1.86549)">
<stop stop-color="white"/>
<stop offset="1" stop-color="white" stop-opacity="0"/>
</radialGradient>
<radialGradient id="paint54_radial_271_1691" cx="0" cy="0" r="1" gradientUnits="userSpaceOnUse" gradientTransform="translate(193.497 9.0857) rotate(-180) scale(34.2957 4.0965)">
<stop stop-color="white"/>
<stop offset="1" stop-color="white" stop-opacity="0"/>
</radialGradient>
</defs>
</svg>
