<svg width="374" height="703" viewBox="0 0 374 703" fill="none" xmlns="http://www.w3.org/2000/svg">
<g filter="url(#filter0_d_228_3587)">
<path d="M15.6541 472.93C14.9982 471.214 12.4534 471.684 12.4534 473.521L12.4534 677.802C12.4534 682.384 16.1683 686.099 20.7509 686.099L117.031 686.099C120.65 686.099 123.851 683.754 124.943 680.304L125.569 678.323C126.651 674.902 129.809 672.564 133.397 672.528L179.214 672.066C182.892 672.029 185.562 675.552 184.534 679.083L183.703 681.934C183.096 684.017 184.659 686.099 186.828 686.099C188.997 686.099 190.558 684.016 189.949 681.935L189.115 679.083C188.083 675.553 190.751 672.029 194.428 672.066L240.243 672.528C243.831 672.564 246.989 674.902 248.071 678.323L248.698 680.304C249.789 683.754 252.99 686.099 256.609 686.099L352.906 686.099C357.488 686.099 361.203 682.384 361.203 677.802L361.203 473.521C361.203 471.684 358.658 471.214 358.002 472.93C357.347 474.645 354.802 474.175 354.802 472.338L354.802 244.818C354.802 243.956 354.936 243.099 355.2 242.279L360.805 224.837C361.069 224.016 361.203 223.16 361.203 222.298L361.203 17.4598C361.203 12.8773 357.488 9.16241 352.906 9.16241L186.828 9.16237L20.7509 9.16232C16.1683 9.16232 12.4534 12.8772 12.4534 17.4597L12.4534 222.298C12.4534 223.16 12.5877 224.016 12.8514 224.837L18.4569 242.279C18.7205 243.099 18.8548 243.956 18.8548 244.818L18.8548 472.338C18.8548 474.175 16.31 474.645 15.6541 472.93Z" fill="#111827"/>
</g>
<path d="M15.3516 460.735L15.3516 444.045L8.00067 421.891L8.00067 438.432L15.3516 460.735Z" fill="url(#paint0_linear_228_3587)"/>
<path d="M15.3516 432.472L15.3516 415.782L8.00067 393.628L8.00067 410.169L15.3516 432.472Z" fill="url(#paint1_linear_228_3587)"/>
<path d="M15.3516 404.209L15.3516 387.47L8.00067 365.316L8.00067 381.857L15.3516 404.209Z" fill="url(#paint2_linear_228_3587)"/>
<path d="M15.3516 375.895L15.3516 359.205L8.00067 337.051L8.00067 353.592L15.3516 375.895Z" fill="url(#paint3_linear_228_3587)"/>
<path d="M15.3516 347.631L15.3516 330.941L8.00067 308.787L8.00067 325.328L15.3516 347.631Z" fill="url(#paint4_linear_228_3587)"/>
<path d="M15.3516 319.318L15.3516 302.628L8.00067 280.474L8.00067 297.015L15.3516 319.318Z" fill="url(#paint5_linear_228_3587)"/>
<path d="M15.3516 291.054L15.3516 274.364L8.00067 252.21L8.00067 268.751L15.3516 291.054Z" fill="url(#paint6_linear_228_3587)"/>
<path d="M15.3516 262.791L15.3516 246.051L8.00067 223.897L8.00067 240.438L15.3516 262.791Z" fill="url(#paint7_linear_228_3587)"/>
<path d="M27.4178 648.647L34.0156 648.647L34.0156 644.276L27.4178 644.276L27.4178 648.647Z" fill="url(#paint8_linear_228_3587)"/>
<path d="M27.4178 638.911L34.0156 638.911L34.0156 634.54L27.4178 634.54L27.4178 638.911Z" fill="url(#paint9_linear_228_3587)"/>
<path d="M27.4178 629.125L34.0156 629.125L34.0156 624.754L27.4178 624.754L27.4178 629.125Z" fill="url(#paint10_linear_228_3587)"/>
<path d="M27.4178 619.39L34.0156 619.39L34.0156 615.019L27.4178 615.019L27.4178 619.39Z" fill="url(#paint11_linear_228_3587)"/>
<path d="M27.4178 609.653L34.0156 609.653L34.0156 605.282L27.4178 605.282L27.4178 609.653Z" fill="url(#paint12_linear_228_3587)"/>
<path d="M27.4178 599.869L34.0156 599.869L34.0156 595.497L27.4178 595.497L27.4178 599.869Z" fill="url(#paint13_linear_228_3587)"/>
<path d="M27.4178 590.132L34.0156 590.132L34.0156 585.761L27.4178 585.761L27.4178 590.132Z" fill="url(#paint14_linear_228_3587)"/>
<path d="M27.4178 580.348L34.0156 580.348L34.0156 575.976L27.4178 575.976L27.4178 580.348Z" fill="url(#paint15_linear_228_3587)"/>
<path d="M27.4178 570.611L34.0156 570.611L34.0156 566.24L27.4178 566.24L27.4178 570.611Z" fill="url(#paint16_linear_228_3587)"/>
<path d="M27.4178 560.827L34.0156 560.827L34.0156 556.456L27.4178 556.456L27.4178 560.827Z" fill="url(#paint17_linear_228_3587)"/>
<path d="M27.4178 551.092L34.0156 551.092L34.0156 546.721L27.4178 546.721L27.4178 551.092Z" fill="url(#paint18_linear_228_3587)"/>
<path d="M27.4178 541.354L34.0156 541.354L34.0156 536.983L27.4178 536.983L27.4178 541.354Z" fill="url(#paint19_linear_228_3587)"/>
<path d="M27.4178 531.571L34.0156 531.571L34.0156 527.2L27.4178 527.2L27.4178 531.571Z" fill="url(#paint20_linear_228_3587)"/>
<path d="M27.4178 521.834L34.0156 521.834L34.0156 517.463L27.4178 517.463L27.4178 521.834Z" fill="url(#paint21_linear_228_3587)"/>
<path d="M27.4178 512.048L34.0156 512.048L34.0156 507.677L27.4178 507.677L27.4178 512.048Z" fill="url(#paint22_linear_228_3587)"/>
<path d="M27.4178 502.312L34.0156 502.312L34.0156 497.941L27.4178 497.941L27.4178 502.312Z" fill="url(#paint23_linear_228_3587)"/>
<path d="M358.649 460.735L358.649 444.045L366 421.891L366 438.432L358.649 460.735Z" fill="url(#paint24_linear_228_3587)"/>
<path d="M358.649 432.472L358.649 415.782L366 393.628L366 410.169L358.649 432.472Z" fill="url(#paint25_linear_228_3587)"/>
<path d="M358.649 404.209L358.649 387.47L366 365.316L366 381.857L358.649 404.209Z" fill="url(#paint26_linear_228_3587)"/>
<path d="M358.649 375.895L358.649 359.205L366 337.051L366 353.592L358.649 375.895Z" fill="url(#paint27_linear_228_3587)"/>
<path d="M358.649 347.631L358.649 330.941L366 308.787L366 325.328L358.649 347.631Z" fill="url(#paint28_linear_228_3587)"/>
<path d="M358.649 319.318L358.649 302.628L366 280.474L366 297.015L358.649 319.318Z" fill="url(#paint29_linear_228_3587)"/>
<path d="M358.649 291.056L358.649 274.366L366 252.212L366 268.753L358.649 291.056Z" fill="url(#paint30_linear_228_3587)"/>
<path d="M358.649 262.791L358.649 246.051L366 223.897L366 240.438L358.649 262.791Z" fill="url(#paint31_linear_228_3587)"/>
<path d="M345.141 161.857L345.141 490.043L337.724 490.043" stroke="#31A6E4" stroke-width="0.343314" stroke-miterlimit="10"/>
<path d="M345.141 47.1634L269.143 47.1634L263.61 86.0073" stroke="#31A6E4" stroke-width="0.375567" stroke-miterlimit="10"/>
<path d="M345.141 155.052L345.141 151.277" stroke="#31A6E4" stroke-width="0.439089" stroke-miterlimit="10"/>
<path d="M345.141 144.172L345.141 140.397" stroke="#31A6E4" stroke-width="0.439089" stroke-miterlimit="10"/>
<path d="M345.141 133.295L345.141 129.52" stroke="#31A6E4" stroke-width="0.439089" stroke-miterlimit="10"/>
<path d="M345.141 122.417L345.141 118.641" stroke="#31A6E4" stroke-width="0.439089" stroke-miterlimit="10"/>
<path d="M345.141 111.538L345.141 107.762" stroke="#31A6E4" stroke-width="0.439089" stroke-miterlimit="10"/>
<path d="M345.141 100.661L345.141 96.8856" stroke="#31A6E4" stroke-width="0.439089" stroke-miterlimit="10"/>
<path d="M345.141 89.7808L345.141 86.0057" stroke="#31A6E4" stroke-width="0.439089" stroke-miterlimit="10"/>
<path d="M345.141 78.9023L345.141 75.0775" stroke="#31A6E4" stroke-width="0.439089" stroke-miterlimit="10"/>
<path d="M345.141 68.0254L345.141 64.2007" stroke="#31A6E4" stroke-width="0.439089" stroke-miterlimit="10"/>
<path d="M345.141 57.146L345.141 53.3212" stroke="#31A6E4" stroke-width="0.439089" stroke-miterlimit="10"/>
<path d="M30.9032 161.857L30.9032 490.043L38.3359 490.043" stroke="#BD338A" stroke-width="0.343314" stroke-miterlimit="10"/>
<path d="M30.902 47.1634L106.899 47.1634L112.531 86.0073" stroke="#BD338A" stroke-width="0.375567" stroke-miterlimit="10"/>
<path d="M30.9023 155.052L30.9023 151.277" stroke="#BD338A" stroke-width="0.439089" stroke-miterlimit="10"/>
<path d="M30.9023 144.172L30.9023 140.397" stroke="#BD338A" stroke-width="0.439089" stroke-miterlimit="10"/>
<path d="M30.9023 133.294L30.9023 129.519" stroke="#BD338A" stroke-width="0.439089" stroke-miterlimit="10"/>
<path d="M30.9023 122.417L30.9023 118.641" stroke="#BD338A" stroke-width="0.439089" stroke-miterlimit="10"/>
<path d="M30.9023 111.538L30.9023 107.762" stroke="#BD338A" stroke-width="0.439089" stroke-miterlimit="10"/>
<path d="M30.9023 100.659L30.9023 96.8836" stroke="#BD338A" stroke-width="0.439089" stroke-miterlimit="10"/>
<path d="M30.9023 89.7808L30.9023 86.0057" stroke="#BD338A" stroke-width="0.439089" stroke-miterlimit="10"/>
<path d="M30.9023 78.9023L30.9023 75.0775" stroke="#BD338A" stroke-width="0.439089" stroke-miterlimit="10"/>
<path d="M30.9023 68.0244L30.9023 64.1997" stroke="#BD338A" stroke-width="0.439089" stroke-miterlimit="10"/>
<path d="M30.9023 57.146L30.9023 53.3212" stroke="#BD338A" stroke-width="0.439089" stroke-miterlimit="10"/>
<path d="M153.852 648.647L160.974 625.748L187.676 625.748L214.378 625.748L221.484 648.647L337.723 648.647L337.723 647.505L221.647 647.505L214.542 624.606L187.676 624.606L160.81 624.606L153.705 647.505L37.6296 647.505L37.6296 648.647L153.852 648.647Z" fill="url(#paint32_linear_228_3587)"/>
<path d="M337.723 636.626L337.723 630.864" stroke="#06F0F6" stroke-width="0.30435" stroke-miterlimit="10"/>
<path d="M337.723 621.576L337.723 615.814" stroke="#20DAF7" stroke-width="0.30435" stroke-miterlimit="10"/>
<path d="M337.723 606.525L337.723 600.713" stroke="#39C4F7" stroke-width="0.30435" stroke-miterlimit="10"/>
<path d="M337.723 591.423L337.723 585.661" stroke="#53AEF8" stroke-width="0.30435" stroke-miterlimit="10"/>
<path d="M337.723 576.373L337.723 570.611" stroke="#6C98F9" stroke-width="0.30435" stroke-miterlimit="10"/>
<path d="M337.723 561.322L337.723 555.511" stroke="#8681F9" stroke-width="0.30435" stroke-miterlimit="10"/>
<path d="M337.723 546.222L337.723 540.46" stroke="#9F6BFA" stroke-width="0.30435" stroke-miterlimit="10"/>
<path d="M337.723 531.172L337.723 525.41" stroke="#B955FB" stroke-width="0.30435" stroke-miterlimit="10"/>
<path d="M337.723 516.12L337.723 510.308" stroke="#D23FFB" stroke-width="0.30435" stroke-miterlimit="10"/>
<path d="M337.723 501.019L337.723 495.257" stroke="#EC29FC" stroke-width="0.30435" stroke-miterlimit="10"/>
<path d="M38.3359 636.626L38.3359 630.864" stroke="#06F0F6" stroke-width="0.30435" stroke-miterlimit="10"/>
<path d="M38.3359 621.576L38.3359 615.814" stroke="#20DAF7" stroke-width="0.30435" stroke-miterlimit="10"/>
<path d="M38.3359 606.525L38.3359 600.713" stroke="#39C4F7" stroke-width="0.30435" stroke-miterlimit="10"/>
<path d="M38.3359 591.423L38.3359 585.661" stroke="#53AEF8" stroke-width="0.30435" stroke-miterlimit="10"/>
<path d="M38.3359 576.373L38.3359 570.611" stroke="#6C98F9" stroke-width="0.30435" stroke-miterlimit="10"/>
<path d="M38.3359 561.322L38.3359 555.511" stroke="#8681F9" stroke-width="0.30435" stroke-miterlimit="10"/>
<path d="M38.3359 546.222L38.3359 540.46" stroke="#9F6BFA" stroke-width="0.30435" stroke-miterlimit="10"/>
<path d="M38.3359 531.172L38.3359 525.41" stroke="#B955FB" stroke-width="0.30435" stroke-miterlimit="10"/>
<path d="M38.3359 516.12L38.3359 510.308" stroke="#D23FFB" stroke-width="0.30435" stroke-miterlimit="10"/>
<path d="M38.3359 501.019L38.3359 495.257" stroke="#EC29FC" stroke-width="0.30435" stroke-miterlimit="10"/>
<path d="M253.395 701L247.566 701L239.839 677.356L245.618 677.356L253.395 701Z" fill="url(#paint33_linear_228_3587)"/>
<path d="M243.523 701L237.695 701L229.968 677.356L235.747 677.356L243.523 701Z" fill="url(#paint34_linear_228_3587)"/>
<path d="M233.648 701L227.82 701L220.093 677.356L225.872 677.356L233.648 701Z" fill="url(#paint35_linear_228_3587)"/>
<path d="M223.797 701L217.969 701L210.225 677.356L216.004 677.356L223.797 701Z" fill="url(#paint36_linear_228_3587)"/>
<path d="M213.922 701L208.094 701L200.366 677.356L206.129 677.356L213.922 701Z" fill="url(#paint37_linear_228_3587)"/>
<path d="M204.051 701L198.222 701L190.495 677.356L196.274 677.356L204.051 701Z" fill="url(#paint38_linear_228_3587)"/>
<path d="M121.456 701L127.284 701L135.012 677.356L129.233 677.356L121.456 701Z" fill="url(#paint39_linear_228_3587)"/>
<path d="M131.327 701L137.155 701L144.883 677.356L139.104 677.356L131.327 701Z" fill="url(#paint40_linear_228_3587)"/>
<path d="M141.202 701L147.014 701L154.758 677.356L148.979 677.356L141.202 701Z" fill="url(#paint41_linear_228_3587)"/>
<path d="M151.054 701L156.882 701L164.609 677.356L158.847 677.356L151.054 701Z" fill="url(#paint42_linear_228_3587)"/>
<path d="M160.929 701L166.757 701L174.484 677.356L168.722 677.356L160.929 701Z" fill="url(#paint43_linear_228_3587)"/>
<path d="M170.8 701L176.628 701L184.355 677.356L178.576 677.356L170.8 701Z" fill="url(#paint44_linear_228_3587)"/>
<path d="M339.625 648.647L346.223 648.647L346.223 644.276L339.625 644.276L339.625 648.647Z" fill="url(#paint45_linear_228_3587)"/>
<path d="M339.625 638.911L346.223 638.911L346.223 634.54L339.625 634.54L339.625 638.911Z" fill="url(#paint46_linear_228_3587)"/>
<path d="M339.625 629.125L346.223 629.125L346.223 624.754L339.625 624.754L339.625 629.125Z" fill="url(#paint47_linear_228_3587)"/>
<path d="M339.625 619.39L346.223 619.39L346.223 615.019L339.625 615.019L339.625 619.39Z" fill="url(#paint48_linear_228_3587)"/>
<path d="M339.625 609.653L346.223 609.653L346.223 605.282L339.625 605.282L339.625 609.653Z" fill="url(#paint49_linear_228_3587)"/>
<path d="M339.625 599.869L346.223 599.869L346.223 595.497L339.625 595.497L339.625 599.869Z" fill="url(#paint50_linear_228_3587)"/>
<path d="M339.625 590.132L346.223 590.132L346.223 585.761L339.625 585.761L339.625 590.132Z" fill="url(#paint51_linear_228_3587)"/>
<path d="M339.625 580.348L346.223 580.348L346.223 575.976L339.625 575.976L339.625 580.348Z" fill="url(#paint52_linear_228_3587)"/>
<path d="M339.625 570.611L346.223 570.611L346.223 566.24L339.625 566.24L339.625 570.611Z" fill="url(#paint53_linear_228_3587)"/>
<path d="M339.625 560.827L346.223 560.827L346.223 556.456L339.625 556.456L339.625 560.827Z" fill="url(#paint54_linear_228_3587)"/>
<path d="M339.625 551.092L346.223 551.092L346.223 546.721L339.625 546.721L339.625 551.092Z" fill="url(#paint55_linear_228_3587)"/>
<path d="M339.625 541.354L346.223 541.354L346.223 536.983L339.625 536.983L339.625 541.354Z" fill="url(#paint56_linear_228_3587)"/>
<path d="M339.625 531.571L346.223 531.571L346.223 527.2L339.625 527.2L339.625 531.571Z" fill="url(#paint57_linear_228_3587)"/>
<path d="M339.625 521.835L346.223 521.835L346.223 517.464L339.625 517.464L339.625 521.835Z" fill="url(#paint58_linear_228_3587)"/>
<path d="M339.625 512.048L346.223 512.048L346.223 507.677L339.625 507.677L339.625 512.048Z" fill="url(#paint59_linear_228_3587)"/>
<path d="M339.625 502.312L346.223 502.312L346.223 497.941L339.625 497.941L339.625 502.312Z" fill="url(#paint60_linear_228_3587)"/>
<path d="M324 10.2782L308.766 97.042L78.4412 97.0419L63 10.2781L324 10.2782Z" fill="url(#paint61_linear_228_3587)"/>
<g filter="url(#filter1_d_228_3587)">
<path d="M316 10.2788L301.616 90.2642L84.5389 90.2641L70 10.2787L316 10.2788Z" fill="#111827"/>
</g>
<path d="M353.259 190.269C354.274 190.269 355.109 261.449 355.109 349.221C355.109 436.992 354.274 508.123 353.259 508.123C352.244 508.123 351.409 436.992 351.409 349.221C351.409 261.4 352.244 190.269 353.259 190.269Z" fill="url(#paint62_radial_228_3587)"/>
<path d="M20.3797 469.229C21.4111 469.229 22.2461 515.822 22.2461 573.293C22.2461 630.764 21.4111 677.356 20.3797 677.356C19.3483 677.356 18.5134 630.764 18.5134 573.293C18.5134 515.822 19.3483 469.229 20.3797 469.229Z" fill="url(#paint63_radial_228_3587)"/>
<path d="M62.7308 686.098C62.7308 682.969 78.0874 680.435 97.0294 680.435C115.971 680.435 131.328 682.969 131.328 686.098C131.328 689.227 115.971 691.761 97.0294 691.761C78.0874 691.761 62.7308 689.227 62.7308 686.098Z" fill="url(#paint64_radial_228_3587)"/>
<path d="M159.196 9.16252C159.196 6.03315 174.552 3.49986 193.494 3.49987C212.436 3.49987 227.793 6.03317 227.793 9.16253C227.793 12.2919 212.436 14.8252 193.494 14.8252C174.552 14.8252 159.196 12.2919 159.196 9.16252Z" fill="url(#paint65_radial_228_3587)" fill-opacity="0.1"/>
<defs>
<filter id="filter0_d_228_3587" x="0.00699615" y="0.449819" width="373.642" height="701.829" filterUnits="userSpaceOnUse" color-interpolation-filters="sRGB">
<feFlood flood-opacity="0" result="BackgroundImageFix"/>
<feColorMatrix in="SourceAlpha" type="matrix" values="0 0 0 0 0 0 0 0 0 0 0 0 0 0 0 0 0 0 127 0" result="hardAlpha"/>
<feOffset dy="3.73384"/>
<feGaussianBlur stdDeviation="6.22306"/>
<feComposite in2="hardAlpha" operator="out"/>
<feColorMatrix type="matrix" values="0 0 0 0 0.0241333 0 0 0 0 0.0444561 0 0 0 0 0.0851018 0 0 0 1 0"/>
<feBlend mode="normal" in2="BackgroundImageFix" result="effect1_dropShadow_228_3587"/>
<feBlend mode="normal" in="SourceGraphic" in2="effect1_dropShadow_228_3587" result="shape"/>
</filter>
<filter id="filter1_d_228_3587" x="57.5539" y="1.56652" width="270.892" height="104.878" filterUnits="userSpaceOnUse" color-interpolation-filters="sRGB">
<feFlood flood-opacity="0" result="BackgroundImageFix"/>
<feColorMatrix in="SourceAlpha" type="matrix" values="0 0 0 0 0 0 0 0 0 0 0 0 0 0 0 0 0 0 127 0" result="hardAlpha"/>
<feOffset dy="3.73384"/>
<feGaussianBlur stdDeviation="6.22306"/>
<feComposite in2="hardAlpha" operator="out"/>
<feColorMatrix type="matrix" values="0 0 0 0 0.0241333 0 0 0 0 0.0444561 0 0 0 0 0.0851018 0 0 0 0.3 0"/>
<feBlend mode="normal" in2="BackgroundImageFix" result="effect1_dropShadow_228_3587"/>
<feBlend mode="normal" in="SourceGraphic" in2="effect1_dropShadow_228_3587" result="shape"/>
</filter>
<linearGradient id="paint0_linear_228_3587" x1="13.4183" y1="308.756" x2="3.27303" y2="309.181" gradientUnits="userSpaceOnUse">
<stop stop-color="#1BBEE9"/>
<stop offset="0.1063" stop-color="#15A9D0"/>
<stop offset="0.2375" stop-color="#0C89A9"/>
<stop offset="0.3819" stop-color="#057D9B"/>
<stop offset="0.5356" stop-color="#D6248E"/>
<stop offset="0.6969" stop-color="#EF30A2"/>
<stop offset="0.8618" stop-color="#F276C0"/>
<stop offset="1" stop-color="#FFADDE"/>
</linearGradient>
<linearGradient id="paint1_linear_228_3587" x1="13.4183" y1="280.492" x2="3.27303" y2="280.918" gradientUnits="userSpaceOnUse">
<stop stop-color="#1BBEE9"/>
<stop offset="0.1063" stop-color="#15A9D0"/>
<stop offset="0.2375" stop-color="#0C89A9"/>
<stop offset="0.3819" stop-color="#057D9B"/>
<stop offset="0.5356" stop-color="#D6248E"/>
<stop offset="0.6969" stop-color="#EF30A2"/>
<stop offset="0.8618" stop-color="#F276C0"/>
<stop offset="1" stop-color="#FFADDE"/>
</linearGradient>
<linearGradient id="paint2_linear_228_3587" x1="13.4183" y1="252.036" x2="3.27298" y2="252.461" gradientUnits="userSpaceOnUse">
<stop stop-color="#1BBEE9"/>
<stop offset="0.1063" stop-color="#15A9D0"/>
<stop offset="0.2375" stop-color="#0C89A9"/>
<stop offset="0.3819" stop-color="#057D9B"/>
<stop offset="0.5356" stop-color="#D6248E"/>
<stop offset="0.6969" stop-color="#EF30A2"/>
<stop offset="0.8618" stop-color="#F276C0"/>
<stop offset="1" stop-color="#FFADDE"/>
</linearGradient>
<linearGradient id="paint3_linear_228_3587" x1="13.4183" y1="223.916" x2="3.27303" y2="224.341" gradientUnits="userSpaceOnUse">
<stop stop-color="#1BBEE9"/>
<stop offset="0.1063" stop-color="#15A9D0"/>
<stop offset="0.2375" stop-color="#0C89A9"/>
<stop offset="0.3819" stop-color="#057D9B"/>
<stop offset="0.5356" stop-color="#D6248E"/>
<stop offset="0.6969" stop-color="#EF30A2"/>
<stop offset="0.8618" stop-color="#F276C0"/>
<stop offset="1" stop-color="#FFADDE"/>
</linearGradient>
<linearGradient id="paint4_linear_228_3587" x1="13.4183" y1="195.652" x2="3.27303" y2="196.077" gradientUnits="userSpaceOnUse">
<stop stop-color="#1BBEE9"/>
<stop offset="0.1063" stop-color="#15A9D0"/>
<stop offset="0.2375" stop-color="#0C89A9"/>
<stop offset="0.3819" stop-color="#057D9B"/>
<stop offset="0.5356" stop-color="#D6248E"/>
<stop offset="0.6969" stop-color="#EF30A2"/>
<stop offset="0.8618" stop-color="#F276C0"/>
<stop offset="1" stop-color="#FFADDE"/>
</linearGradient>
<linearGradient id="paint5_linear_228_3587" x1="13.4183" y1="167.339" x2="3.27303" y2="167.765" gradientUnits="userSpaceOnUse">
<stop stop-color="#1BBEE9"/>
<stop offset="0.1063" stop-color="#15A9D0"/>
<stop offset="0.2375" stop-color="#0C89A9"/>
<stop offset="0.3819" stop-color="#057D9B"/>
<stop offset="0.5356" stop-color="#D6248E"/>
<stop offset="0.6969" stop-color="#EF30A2"/>
<stop offset="0.8618" stop-color="#F276C0"/>
<stop offset="1" stop-color="#FFADDE"/>
</linearGradient>
<linearGradient id="paint6_linear_228_3587" x1="13.4183" y1="139.074" x2="3.27303" y2="139.5" gradientUnits="userSpaceOnUse">
<stop stop-color="#1BBEE9"/>
<stop offset="0.1063" stop-color="#15A9D0"/>
<stop offset="0.2375" stop-color="#0C89A9"/>
<stop offset="0.3819" stop-color="#057D9B"/>
<stop offset="0.5356" stop-color="#D6248E"/>
<stop offset="0.6969" stop-color="#EF30A2"/>
<stop offset="0.8618" stop-color="#F276C0"/>
<stop offset="1" stop-color="#FFADDE"/>
</linearGradient>
<linearGradient id="paint7_linear_228_3587" x1="13.4183" y1="110.617" x2="3.27298" y2="111.043" gradientUnits="userSpaceOnUse">
<stop stop-color="#1BBEE9"/>
<stop offset="0.1063" stop-color="#15A9D0"/>
<stop offset="0.2375" stop-color="#0C89A9"/>
<stop offset="0.415" stop-color="#057D9B"/>
<stop offset="0.5356" stop-color="#D6248E"/>
<stop offset="0.6969" stop-color="#EF30A2"/>
<stop offset="0.8618" stop-color="#F276C0"/>
<stop offset="1" stop-color="#FFADDE"/>
</linearGradient>
<linearGradient id="paint8_linear_228_3587" x1="32.2804" y1="631.545" x2="24.0772" y2="634.29" gradientUnits="userSpaceOnUse">
<stop stop-color="#1BBEE9"/>
<stop offset="0.1063" stop-color="#15A9D0"/>
<stop offset="0.2375" stop-color="#0C89A9"/>
<stop offset="0.3819" stop-color="#057D9B"/>
<stop offset="0.5356" stop-color="#D6248E"/>
<stop offset="0.6969" stop-color="#EF30A2"/>
<stop offset="0.8618" stop-color="#F276C0"/>
<stop offset="1" stop-color="#FFADDE"/>
</linearGradient>
<linearGradient id="paint9_linear_228_3587" x1="32.2804" y1="621.809" x2="24.0772" y2="624.554" gradientUnits="userSpaceOnUse">
<stop stop-color="#1BBEE9"/>
<stop offset="0.1063" stop-color="#15A9D0"/>
<stop offset="0.2375" stop-color="#0C89A9"/>
<stop offset="0.3819" stop-color="#057D9B"/>
<stop offset="0.5356" stop-color="#D6248E"/>
<stop offset="0.6969" stop-color="#EF30A2"/>
<stop offset="0.8618" stop-color="#F276C0"/>
<stop offset="1" stop-color="#FFADDE"/>
</linearGradient>
<linearGradient id="paint10_linear_228_3587" x1="32.2804" y1="612.023" x2="24.0772" y2="614.768" gradientUnits="userSpaceOnUse">
<stop stop-color="#1BBEE9"/>
<stop offset="0.1063" stop-color="#15A9D0"/>
<stop offset="0.2375" stop-color="#0C89A9"/>
<stop offset="0.3819" stop-color="#057D9B"/>
<stop offset="0.5356" stop-color="#D6248E"/>
<stop offset="0.6969" stop-color="#EF30A2"/>
<stop offset="0.8618" stop-color="#F276C0"/>
<stop offset="1" stop-color="#FFADDE"/>
</linearGradient>
<linearGradient id="paint11_linear_228_3587" x1="32.2804" y1="602.288" x2="24.0772" y2="605.033" gradientUnits="userSpaceOnUse">
<stop stop-color="#1BBEE9"/>
<stop offset="0.1063" stop-color="#15A9D0"/>
<stop offset="0.2375" stop-color="#0C89A9"/>
<stop offset="0.3819" stop-color="#057D9B"/>
<stop offset="0.5356" stop-color="#D6248E"/>
<stop offset="0.6969" stop-color="#EF30A2"/>
<stop offset="0.8618" stop-color="#F276C0"/>
<stop offset="1" stop-color="#FFADDE"/>
</linearGradient>
<linearGradient id="paint12_linear_228_3587" x1="32.2804" y1="592.551" x2="24.0772" y2="595.296" gradientUnits="userSpaceOnUse">
<stop stop-color="#1BBEE9"/>
<stop offset="0.1063" stop-color="#15A9D0"/>
<stop offset="0.2375" stop-color="#0C89A9"/>
<stop offset="0.3819" stop-color="#057D9B"/>
<stop offset="0.5356" stop-color="#D6248E"/>
<stop offset="0.6969" stop-color="#EF30A2"/>
<stop offset="0.8618" stop-color="#F276C0"/>
<stop offset="1" stop-color="#FFADDE"/>
</linearGradient>
<linearGradient id="paint13_linear_228_3587" x1="32.2804" y1="582.766" x2="24.0772" y2="585.511" gradientUnits="userSpaceOnUse">
<stop stop-color="#1BBEE9"/>
<stop offset="0.1063" stop-color="#15A9D0"/>
<stop offset="0.2375" stop-color="#0C89A9"/>
<stop offset="0.3819" stop-color="#057D9B"/>
<stop offset="0.5356" stop-color="#D6248E"/>
<stop offset="0.6969" stop-color="#EF30A2"/>
<stop offset="0.8618" stop-color="#F276C0"/>
<stop offset="1" stop-color="#FFADDE"/>
</linearGradient>
<linearGradient id="paint14_linear_228_3587" x1="32.2804" y1="573.03" x2="24.0772" y2="575.775" gradientUnits="userSpaceOnUse">
<stop stop-color="#1BBEE9"/>
<stop offset="0.1063" stop-color="#15A9D0"/>
<stop offset="0.2375" stop-color="#0C89A9"/>
<stop offset="0.3819" stop-color="#057D9B"/>
<stop offset="0.5356" stop-color="#D6248E"/>
<stop offset="0.6969" stop-color="#EF30A2"/>
<stop offset="0.8618" stop-color="#F276C0"/>
<stop offset="1" stop-color="#FFADDE"/>
</linearGradient>
<linearGradient id="paint15_linear_228_3587" x1="32.2804" y1="563.245" x2="24.0772" y2="565.99" gradientUnits="userSpaceOnUse">
<stop stop-color="#1BBEE9"/>
<stop offset="0.1063" stop-color="#15A9D0"/>
<stop offset="0.2375" stop-color="#0C89A9"/>
<stop offset="0.3819" stop-color="#057D9B"/>
<stop offset="0.5356" stop-color="#D6248E"/>
<stop offset="0.6969" stop-color="#EF30A2"/>
<stop offset="0.8618" stop-color="#F276C0"/>
<stop offset="1" stop-color="#FFADDE"/>
</linearGradient>
<linearGradient id="paint16_linear_228_3587" x1="32.2804" y1="553.509" x2="24.0772" y2="556.254" gradientUnits="userSpaceOnUse">
<stop stop-color="#1BBEE9"/>
<stop offset="0.1063" stop-color="#15A9D0"/>
<stop offset="0.2375" stop-color="#0C89A9"/>
<stop offset="0.3819" stop-color="#057D9B"/>
<stop offset="0.5356" stop-color="#D6248E"/>
<stop offset="0.6969" stop-color="#EF30A2"/>
<stop offset="0.8618" stop-color="#F276C0"/>
<stop offset="1" stop-color="#FFADDE"/>
</linearGradient>
<linearGradient id="paint17_linear_228_3587" x1="32.2804" y1="543.725" x2="24.0772" y2="546.47" gradientUnits="userSpaceOnUse">
<stop stop-color="#1BBEE9"/>
<stop offset="0.1063" stop-color="#15A9D0"/>
<stop offset="0.2375" stop-color="#0C89A9"/>
<stop offset="0.3819" stop-color="#057D9B"/>
<stop offset="0.5356" stop-color="#D6248E"/>
<stop offset="0.6969" stop-color="#EF30A2"/>
<stop offset="0.8618" stop-color="#F276C0"/>
<stop offset="1" stop-color="#FFADDE"/>
</linearGradient>
<linearGradient id="paint18_linear_228_3587" x1="32.2804" y1="533.989" x2="24.0772" y2="536.734" gradientUnits="userSpaceOnUse">
<stop stop-color="#1BBEE9"/>
<stop offset="0.1063" stop-color="#15A9D0"/>
<stop offset="0.2375" stop-color="#0C89A9"/>
<stop offset="0.3819" stop-color="#057D9B"/>
<stop offset="0.5356" stop-color="#D6248E"/>
<stop offset="0.6969" stop-color="#EF30A2"/>
<stop offset="0.8618" stop-color="#F276C0"/>
<stop offset="1" stop-color="#FFADDE"/>
</linearGradient>
<linearGradient id="paint19_linear_228_3587" x1="32.2804" y1="524.252" x2="24.0772" y2="526.997" gradientUnits="userSpaceOnUse">
<stop stop-color="#1BBEE9"/>
<stop offset="0.1063" stop-color="#15A9D0"/>
<stop offset="0.2375" stop-color="#0C89A9"/>
<stop offset="0.3819" stop-color="#057D9B"/>
<stop offset="0.5356" stop-color="#D6248E"/>
<stop offset="0.6969" stop-color="#EF30A2"/>
<stop offset="0.8618" stop-color="#F276C0"/>
<stop offset="1" stop-color="#FFADDE"/>
</linearGradient>
<linearGradient id="paint20_linear_228_3587" x1="32.2804" y1="514.468" x2="24.0772" y2="517.213" gradientUnits="userSpaceOnUse">
<stop stop-color="#1BBEE9"/>
<stop offset="0.1063" stop-color="#15A9D0"/>
<stop offset="0.2375" stop-color="#0C89A9"/>
<stop offset="0.3819" stop-color="#057D9B"/>
<stop offset="0.5356" stop-color="#D6248E"/>
<stop offset="0.6969" stop-color="#EF30A2"/>
<stop offset="0.8618" stop-color="#F276C0"/>
<stop offset="1" stop-color="#FFADDE"/>
</linearGradient>
<linearGradient id="paint21_linear_228_3587" x1="32.2804" y1="504.732" x2="24.0772" y2="507.477" gradientUnits="userSpaceOnUse">
<stop stop-color="#1BBEE9"/>
<stop offset="0.1063" stop-color="#15A9D0"/>
<stop offset="0.2375" stop-color="#0C89A9"/>
<stop offset="0.3819" stop-color="#057D9B"/>
<stop offset="0.5356" stop-color="#D6248E"/>
<stop offset="0.6969" stop-color="#EF30A2"/>
<stop offset="0.8618" stop-color="#F276C0"/>
<stop offset="1" stop-color="#FFADDE"/>
</linearGradient>
<linearGradient id="paint22_linear_228_3587" x1="32.2804" y1="494.945" x2="24.0772" y2="497.69" gradientUnits="userSpaceOnUse">
<stop stop-color="#1BBEE9"/>
<stop offset="0.1063" stop-color="#15A9D0"/>
<stop offset="0.2375" stop-color="#0C89A9"/>
<stop offset="0.3819" stop-color="#057D9B"/>
<stop offset="0.5356" stop-color="#D6248E"/>
<stop offset="0.6969" stop-color="#EF30A2"/>
<stop offset="0.8618" stop-color="#F276C0"/>
<stop offset="1" stop-color="#FFADDE"/>
</linearGradient>
<linearGradient id="paint23_linear_228_3587" x1="32.2804" y1="485.21" x2="24.0772" y2="487.955" gradientUnits="userSpaceOnUse">
<stop stop-color="#1BBEE9"/>
<stop offset="0.1063" stop-color="#15A9D0"/>
<stop offset="0.2375" stop-color="#0C89A9"/>
<stop offset="0.3819" stop-color="#057D9B"/>
<stop offset="0.5356" stop-color="#D6248E"/>
<stop offset="0.6969" stop-color="#EF30A2"/>
<stop offset="0.8618" stop-color="#F276C0"/>
<stop offset="1" stop-color="#FFADDE"/>
</linearGradient>
<linearGradient id="paint24_linear_228_3587" x1="364.067" y1="308.756" x2="353.921" y2="309.181" gradientUnits="userSpaceOnUse">
<stop stop-color="#1BBEE9"/>
<stop offset="0.1063" stop-color="#15A9D0"/>
<stop offset="0.2375" stop-color="#0C89A9"/>
<stop offset="0.3819" stop-color="#057D9B"/>
<stop offset="0.5356" stop-color="#D6248E"/>
<stop offset="0.6969" stop-color="#EF30A2"/>
<stop offset="0.8618" stop-color="#F276C0"/>
<stop offset="1" stop-color="#FFADDE"/>
</linearGradient>
<linearGradient id="paint25_linear_228_3587" x1="364.067" y1="280.492" x2="353.921" y2="280.918" gradientUnits="userSpaceOnUse">
<stop stop-color="#1BBEE9"/>
<stop offset="0.1063" stop-color="#15A9D0"/>
<stop offset="0.2375" stop-color="#0C89A9"/>
<stop offset="0.3819" stop-color="#057D9B"/>
<stop offset="0.5356" stop-color="#D6248E"/>
<stop offset="0.6969" stop-color="#EF30A2"/>
<stop offset="0.8618" stop-color="#F276C0"/>
<stop offset="1" stop-color="#FFADDE"/>
</linearGradient>
<linearGradient id="paint26_linear_228_3587" x1="364.067" y1="252.036" x2="353.921" y2="252.461" gradientUnits="userSpaceOnUse">
<stop stop-color="#1BBEE9"/>
<stop offset="0.1063" stop-color="#15A9D0"/>
<stop offset="0.2375" stop-color="#0C89A9"/>
<stop offset="0.3819" stop-color="#057D9B"/>
<stop offset="0.5356" stop-color="#D6248E"/>
<stop offset="0.6969" stop-color="#EF30A2"/>
<stop offset="0.8618" stop-color="#F276C0"/>
<stop offset="1" stop-color="#FFADDE"/>
</linearGradient>
<linearGradient id="paint27_linear_228_3587" x1="364.067" y1="223.916" x2="353.921" y2="224.341" gradientUnits="userSpaceOnUse">
<stop stop-color="#1BBEE9"/>
<stop offset="0.1063" stop-color="#15A9D0"/>
<stop offset="0.2375" stop-color="#0C89A9"/>
<stop offset="0.3819" stop-color="#057D9B"/>
<stop offset="0.5356" stop-color="#D6248E"/>
<stop offset="0.6969" stop-color="#EF30A2"/>
<stop offset="0.8618" stop-color="#F276C0"/>
<stop offset="1" stop-color="#FFADDE"/>
</linearGradient>
<linearGradient id="paint28_linear_228_3587" x1="364.067" y1="195.652" x2="353.921" y2="196.077" gradientUnits="userSpaceOnUse">
<stop stop-color="#1BBEE9"/>
<stop offset="0.1063" stop-color="#15A9D0"/>
<stop offset="0.2375" stop-color="#0C89A9"/>
<stop offset="0.3819" stop-color="#057D9B"/>
<stop offset="0.5356" stop-color="#D6248E"/>
<stop offset="0.6969" stop-color="#EF30A2"/>
<stop offset="0.8618" stop-color="#F276C0"/>
<stop offset="1" stop-color="#FFADDE"/>
</linearGradient>
<linearGradient id="paint29_linear_228_3587" x1="364.067" y1="167.339" x2="353.921" y2="167.765" gradientUnits="userSpaceOnUse">
<stop stop-color="#1BBEE9"/>
<stop offset="0.1063" stop-color="#15A9D0"/>
<stop offset="0.2375" stop-color="#0C89A9"/>
<stop offset="0.3819" stop-color="#057D9B"/>
<stop offset="0.5356" stop-color="#D6248E"/>
<stop offset="0.6969" stop-color="#EF30A2"/>
<stop offset="0.8618" stop-color="#F276C0"/>
<stop offset="1" stop-color="#FFADDE"/>
</linearGradient>
<linearGradient id="paint30_linear_228_3587" x1="364.067" y1="139.076" x2="353.921" y2="139.502" gradientUnits="userSpaceOnUse">
<stop stop-color="#1BBEE9"/>
<stop offset="0.1063" stop-color="#15A9D0"/>
<stop offset="0.2375" stop-color="#0C89A9"/>
<stop offset="0.3819" stop-color="#057D9B"/>
<stop offset="0.5356" stop-color="#D6248E"/>
<stop offset="0.6969" stop-color="#EF30A2"/>
<stop offset="0.8618" stop-color="#F276C0"/>
<stop offset="1" stop-color="#FFADDE"/>
</linearGradient>
<linearGradient id="paint31_linear_228_3587" x1="364.067" y1="110.617" x2="353.921" y2="111.043" gradientUnits="userSpaceOnUse">
<stop stop-color="#1BBEE9"/>
<stop offset="0.1063" stop-color="#15A9D0"/>
<stop offset="0.2375" stop-color="#0C89A9"/>
<stop offset="0.3819" stop-color="#057D9B"/>
<stop offset="0.5356" stop-color="#D6248E"/>
<stop offset="0.6969" stop-color="#EF30A2"/>
<stop offset="0.8618" stop-color="#F276C0"/>
<stop offset="1" stop-color="#FFADDE"/>
</linearGradient>
<linearGradient id="paint32_linear_228_3587" x1="258.798" y1="554.584" x2="210.881" y2="687.191" gradientUnits="userSpaceOnUse">
<stop stop-color="#1BBEE9"/>
<stop offset="0.1063" stop-color="#15A9D0"/>
<stop offset="0.2375" stop-color="#0C89A9"/>
<stop offset="0.3819" stop-color="#057D9B"/>
<stop offset="0.5356" stop-color="#D6248E"/>
<stop offset="0.6969" stop-color="#EF30A2"/>
<stop offset="0.8618" stop-color="#F276C0"/>
<stop offset="1" stop-color="#FFADDE"/>
</linearGradient>
<linearGradient id="paint33_linear_228_3587" x1="249.829" y1="608.491" x2="231.386" y2="610.835" gradientUnits="userSpaceOnUse">
<stop stop-color="#1BBEE9"/>
<stop offset="0.1063" stop-color="#15A9D0"/>
<stop offset="0.2375" stop-color="#0C89A9"/>
<stop offset="0.3819" stop-color="#057D9B"/>
<stop offset="0.5356" stop-color="#D6248E"/>
<stop offset="0.6969" stop-color="#EF30A2"/>
<stop offset="0.8618" stop-color="#F276C0"/>
<stop offset="1" stop-color="#FFADDE"/>
</linearGradient>
<linearGradient id="paint34_linear_228_3587" x1="239.958" y1="608.491" x2="221.515" y2="610.835" gradientUnits="userSpaceOnUse">
<stop stop-color="#1BBEE9"/>
<stop offset="0.1063" stop-color="#15A9D0"/>
<stop offset="0.2375" stop-color="#0C89A9"/>
<stop offset="0.3819" stop-color="#057D9B"/>
<stop offset="0.5356" stop-color="#D6248E"/>
<stop offset="0.6969" stop-color="#EF30A2"/>
<stop offset="0.8618" stop-color="#F276C0"/>
<stop offset="1" stop-color="#FFADDE"/>
</linearGradient>
<linearGradient id="paint35_linear_228_3587" x1="230.083" y1="608.491" x2="211.64" y2="610.835" gradientUnits="userSpaceOnUse">
<stop stop-color="#1BBEE9"/>
<stop offset="0.1063" stop-color="#15A9D0"/>
<stop offset="0.2375" stop-color="#0C89A9"/>
<stop offset="0.3819" stop-color="#057D9B"/>
<stop offset="0.5356" stop-color="#D6248E"/>
<stop offset="0.6969" stop-color="#EF30A2"/>
<stop offset="0.8618" stop-color="#F276C0"/>
<stop offset="1" stop-color="#FFADDE"/>
</linearGradient>
<linearGradient id="paint36_linear_228_3587" x1="220.227" y1="608.491" x2="201.762" y2="610.841" gradientUnits="userSpaceOnUse">
<stop stop-color="#1BBEE9"/>
<stop offset="0.1063" stop-color="#15A9D0"/>
<stop offset="0.2375" stop-color="#0C89A9"/>
<stop offset="0.3819" stop-color="#057D9B"/>
<stop offset="0.5356" stop-color="#D6248E"/>
<stop offset="0.6969" stop-color="#EF30A2"/>
<stop offset="0.8618" stop-color="#F276C0"/>
<stop offset="1" stop-color="#FFADDE"/>
</linearGradient>
<linearGradient id="paint37_linear_228_3587" x1="210.357" y1="608.491" x2="191.913" y2="610.835" gradientUnits="userSpaceOnUse">
<stop stop-color="#1BBEE9"/>
<stop offset="0.1063" stop-color="#15A9D0"/>
<stop offset="0.2375" stop-color="#0C89A9"/>
<stop offset="0.3819" stop-color="#057D9B"/>
<stop offset="0.5356" stop-color="#D6248E"/>
<stop offset="0.6969" stop-color="#EF30A2"/>
<stop offset="0.8618" stop-color="#F276C0"/>
<stop offset="1" stop-color="#FFADDE"/>
</linearGradient>
<linearGradient id="paint38_linear_228_3587" x1="200.486" y1="608.491" x2="182.042" y2="610.835" gradientUnits="userSpaceOnUse">
<stop stop-color="#1BBEE9"/>
<stop offset="0.1063" stop-color="#15A9D0"/>
<stop offset="0.2375" stop-color="#0C89A9"/>
<stop offset="0.3819" stop-color="#057D9B"/>
<stop offset="0.5356" stop-color="#D6248E"/>
<stop offset="0.6969" stop-color="#EF30A2"/>
<stop offset="0.8618" stop-color="#F276C0"/>
<stop offset="1" stop-color="#FFADDE"/>
</linearGradient>
<linearGradient id="paint39_linear_228_3587" x1="131.447" y1="608.491" x2="113.003" y2="610.835" gradientUnits="userSpaceOnUse">
<stop stop-color="#1BBEE9"/>
<stop offset="0.1063" stop-color="#15A9D0"/>
<stop offset="0.2375" stop-color="#0C89A9"/>
<stop offset="0.3819" stop-color="#057D9B"/>
<stop offset="0.5356" stop-color="#D6248E"/>
<stop offset="0.6969" stop-color="#EF30A2"/>
<stop offset="0.8618" stop-color="#F276C0"/>
<stop offset="1" stop-color="#FFADDE"/>
</linearGradient>
<linearGradient id="paint40_linear_228_3587" x1="141.318" y1="608.491" x2="122.874" y2="610.835" gradientUnits="userSpaceOnUse">
<stop stop-color="#1BBEE9"/>
<stop offset="0.1063" stop-color="#15A9D0"/>
<stop offset="0.2375" stop-color="#0C89A9"/>
<stop offset="0.3819" stop-color="#057D9B"/>
<stop offset="0.5356" stop-color="#D6248E"/>
<stop offset="0.6969" stop-color="#EF30A2"/>
<stop offset="0.8618" stop-color="#F276C0"/>
<stop offset="1" stop-color="#FFADDE"/>
</linearGradient>
<linearGradient id="paint41_linear_228_3587" x1="151.193" y1="608.491" x2="132.749" y2="610.835" gradientUnits="userSpaceOnUse">
<stop stop-color="#1BBEE9"/>
<stop offset="0.1063" stop-color="#15A9D0"/>
<stop offset="0.2375" stop-color="#0C89A9"/>
<stop offset="0.3819" stop-color="#057D9B"/>
<stop offset="0.5356" stop-color="#D6248E"/>
<stop offset="0.6969" stop-color="#EF30A2"/>
<stop offset="0.8618" stop-color="#F276C0"/>
<stop offset="1" stop-color="#FFADDE"/>
</linearGradient>
<linearGradient id="paint42_linear_228_3587" x1="161.044" y1="608.491" x2="142.6" y2="610.835" gradientUnits="userSpaceOnUse">
<stop stop-color="#1BBEE9"/>
<stop offset="0.1063" stop-color="#15A9D0"/>
<stop offset="0.2375" stop-color="#0C89A9"/>
<stop offset="0.3819" stop-color="#057D9B"/>
<stop offset="0.5356" stop-color="#D6248E"/>
<stop offset="0.6969" stop-color="#EF30A2"/>
<stop offset="0.8618" stop-color="#F276C0"/>
<stop offset="1" stop-color="#FFADDE"/>
</linearGradient>
<linearGradient id="paint43_linear_228_3587" x1="170.919" y1="608.491" x2="152.475" y2="610.835" gradientUnits="userSpaceOnUse">
<stop stop-color="#1BBEE9"/>
<stop offset="0.1063" stop-color="#15A9D0"/>
<stop offset="0.2375" stop-color="#0C89A9"/>
<stop offset="0.3819" stop-color="#057D9B"/>
<stop offset="0.5356" stop-color="#D6248E"/>
<stop offset="0.6969" stop-color="#EF30A2"/>
<stop offset="0.8618" stop-color="#F276C0"/>
<stop offset="1" stop-color="#FFADDE"/>
</linearGradient>
<linearGradient id="paint44_linear_228_3587" x1="180.79" y1="608.491" x2="162.347" y2="610.835" gradientUnits="userSpaceOnUse">
<stop stop-color="#1BBEE9"/>
<stop offset="0.1063" stop-color="#15A9D0"/>
<stop offset="0.2375" stop-color="#0C89A9"/>
<stop offset="0.3819" stop-color="#057D9B"/>
<stop offset="0.5356" stop-color="#D6248E"/>
<stop offset="0.6969" stop-color="#EF30A2"/>
<stop offset="0.8618" stop-color="#F276C0"/>
<stop offset="1" stop-color="#FFADDE"/>
</linearGradient>
<linearGradient id="paint45_linear_228_3587" x1="344.487" y1="631.545" x2="336.284" y2="634.29" gradientUnits="userSpaceOnUse">
<stop stop-color="#1BBEE9"/>
<stop offset="0.1063" stop-color="#15A9D0"/>
<stop offset="0.2375" stop-color="#0C89A9"/>
<stop offset="0.3819" stop-color="#057D9B"/>
<stop offset="0.5356" stop-color="#D6248E"/>
<stop offset="0.6969" stop-color="#EF30A2"/>
<stop offset="0.8618" stop-color="#F276C0"/>
<stop offset="1" stop-color="#FFADDE"/>
</linearGradient>
<linearGradient id="paint46_linear_228_3587" x1="344.487" y1="621.809" x2="336.284" y2="624.554" gradientUnits="userSpaceOnUse">
<stop stop-color="#1BBEE9"/>
<stop offset="0.1063" stop-color="#15A9D0"/>
<stop offset="0.2375" stop-color="#0C89A9"/>
<stop offset="0.3819" stop-color="#057D9B"/>
<stop offset="0.5356" stop-color="#D6248E"/>
<stop offset="0.6969" stop-color="#EF30A2"/>
<stop offset="0.8618" stop-color="#F276C0"/>
<stop offset="1" stop-color="#FFADDE"/>
</linearGradient>
<linearGradient id="paint47_linear_228_3587" x1="344.487" y1="612.023" x2="336.284" y2="614.768" gradientUnits="userSpaceOnUse">
<stop stop-color="#1BBEE9"/>
<stop offset="0.1063" stop-color="#15A9D0"/>
<stop offset="0.2375" stop-color="#0C89A9"/>
<stop offset="0.3819" stop-color="#057D9B"/>
<stop offset="0.5356" stop-color="#D6248E"/>
<stop offset="0.6969" stop-color="#EF30A2"/>
<stop offset="0.8618" stop-color="#F276C0"/>
<stop offset="1" stop-color="#FFADDE"/>
</linearGradient>
<linearGradient id="paint48_linear_228_3587" x1="344.487" y1="602.288" x2="336.284" y2="605.033" gradientUnits="userSpaceOnUse">
<stop stop-color="#1BBEE9"/>
<stop offset="0.1063" stop-color="#15A9D0"/>
<stop offset="0.2375" stop-color="#0C89A9"/>
<stop offset="0.3819" stop-color="#057D9B"/>
<stop offset="0.5356" stop-color="#D6248E"/>
<stop offset="0.6969" stop-color="#EF30A2"/>
<stop offset="0.8618" stop-color="#F276C0"/>
<stop offset="1" stop-color="#FFADDE"/>
</linearGradient>
<linearGradient id="paint49_linear_228_3587" x1="344.487" y1="592.551" x2="336.284" y2="595.296" gradientUnits="userSpaceOnUse">
<stop stop-color="#1BBEE9"/>
<stop offset="0.1063" stop-color="#15A9D0"/>
<stop offset="0.2375" stop-color="#0C89A9"/>
<stop offset="0.3819" stop-color="#057D9B"/>
<stop offset="0.5356" stop-color="#D6248E"/>
<stop offset="0.6969" stop-color="#EF30A2"/>
<stop offset="0.8618" stop-color="#F276C0"/>
<stop offset="1" stop-color="#FFADDE"/>
</linearGradient>
<linearGradient id="paint50_linear_228_3587" x1="344.487" y1="582.766" x2="336.284" y2="585.511" gradientUnits="userSpaceOnUse">
<stop stop-color="#1BBEE9"/>
<stop offset="0.1063" stop-color="#15A9D0"/>
<stop offset="0.2375" stop-color="#0C89A9"/>
<stop offset="0.3819" stop-color="#057D9B"/>
<stop offset="0.5356" stop-color="#D6248E"/>
<stop offset="0.6969" stop-color="#EF30A2"/>
<stop offset="0.8618" stop-color="#F276C0"/>
<stop offset="1" stop-color="#FFADDE"/>
</linearGradient>
<linearGradient id="paint51_linear_228_3587" x1="344.487" y1="573.03" x2="336.284" y2="575.775" gradientUnits="userSpaceOnUse">
<stop stop-color="#1BBEE9"/>
<stop offset="0.1063" stop-color="#15A9D0"/>
<stop offset="0.2375" stop-color="#0C89A9"/>
<stop offset="0.3819" stop-color="#057D9B"/>
<stop offset="0.5356" stop-color="#D6248E"/>
<stop offset="0.6969" stop-color="#EF30A2"/>
<stop offset="0.8618" stop-color="#F276C0"/>
<stop offset="1" stop-color="#FFADDE"/>
</linearGradient>
<linearGradient id="paint52_linear_228_3587" x1="344.487" y1="563.245" x2="336.284" y2="565.99" gradientUnits="userSpaceOnUse">
<stop stop-color="#1BBEE9"/>
<stop offset="0.1063" stop-color="#15A9D0"/>
<stop offset="0.2375" stop-color="#0C89A9"/>
<stop offset="0.3819" stop-color="#057D9B"/>
<stop offset="0.5356" stop-color="#D6248E"/>
<stop offset="0.6969" stop-color="#EF30A2"/>
<stop offset="0.8618" stop-color="#F276C0"/>
<stop offset="1" stop-color="#FFADDE"/>
</linearGradient>
<linearGradient id="paint53_linear_228_3587" x1="344.487" y1="553.509" x2="336.284" y2="556.254" gradientUnits="userSpaceOnUse">
<stop stop-color="#1BBEE9"/>
<stop offset="0.1063" stop-color="#15A9D0"/>
<stop offset="0.2375" stop-color="#0C89A9"/>
<stop offset="0.3819" stop-color="#057D9B"/>
<stop offset="0.5356" stop-color="#D6248E"/>
<stop offset="0.6969" stop-color="#EF30A2"/>
<stop offset="0.8618" stop-color="#F276C0"/>
<stop offset="1" stop-color="#FFADDE"/>
</linearGradient>
<linearGradient id="paint54_linear_228_3587" x1="344.487" y1="543.725" x2="336.284" y2="546.47" gradientUnits="userSpaceOnUse">
<stop stop-color="#1BBEE9"/>
<stop offset="0.1063" stop-color="#15A9D0"/>
<stop offset="0.2375" stop-color="#0C89A9"/>
<stop offset="0.3819" stop-color="#057D9B"/>
<stop offset="0.5356" stop-color="#D6248E"/>
<stop offset="0.6969" stop-color="#EF30A2"/>
<stop offset="0.8618" stop-color="#F276C0"/>
<stop offset="1" stop-color="#FFADDE"/>
</linearGradient>
<linearGradient id="paint55_linear_228_3587" x1="344.487" y1="533.989" x2="336.284" y2="536.734" gradientUnits="userSpaceOnUse">
<stop stop-color="#1BBEE9"/>
<stop offset="0.1063" stop-color="#15A9D0"/>
<stop offset="0.2375" stop-color="#0C89A9"/>
<stop offset="0.3819" stop-color="#057D9B"/>
<stop offset="0.5356" stop-color="#D6248E"/>
<stop offset="0.6969" stop-color="#EF30A2"/>
<stop offset="0.8618" stop-color="#F276C0"/>
<stop offset="1" stop-color="#FFADDE"/>
</linearGradient>
<linearGradient id="paint56_linear_228_3587" x1="344.487" y1="524.252" x2="336.284" y2="526.997" gradientUnits="userSpaceOnUse">
<stop stop-color="#1BBEE9"/>
<stop offset="0.1063" stop-color="#15A9D0"/>
<stop offset="0.2375" stop-color="#0C89A9"/>
<stop offset="0.3819" stop-color="#057D9B"/>
<stop offset="0.5356" stop-color="#D6248E"/>
<stop offset="0.6969" stop-color="#EF30A2"/>
<stop offset="0.8618" stop-color="#F276C0"/>
<stop offset="1" stop-color="#FFADDE"/>
</linearGradient>
<linearGradient id="paint57_linear_228_3587" x1="344.487" y1="514.468" x2="336.284" y2="517.213" gradientUnits="userSpaceOnUse">
<stop stop-color="#1BBEE9"/>
<stop offset="0.1063" stop-color="#15A9D0"/>
<stop offset="0.2375" stop-color="#0C89A9"/>
<stop offset="0.3819" stop-color="#057D9B"/>
<stop offset="0.5356" stop-color="#D6248E"/>
<stop offset="0.6969" stop-color="#EF30A2"/>
<stop offset="0.8618" stop-color="#F276C0"/>
<stop offset="1" stop-color="#FFADDE"/>
</linearGradient>
<linearGradient id="paint58_linear_228_3587" x1="344.487" y1="504.733" x2="336.284" y2="507.478" gradientUnits="userSpaceOnUse">
<stop stop-color="#1BBEE9"/>
<stop offset="0.1063" stop-color="#15A9D0"/>
<stop offset="0.2375" stop-color="#0C89A9"/>
<stop offset="0.3819" stop-color="#057D9B"/>
<stop offset="0.5356" stop-color="#D6248E"/>
<stop offset="0.6969" stop-color="#EF30A2"/>
<stop offset="0.8618" stop-color="#F276C0"/>
<stop offset="1" stop-color="#FFADDE"/>
</linearGradient>
<linearGradient id="paint59_linear_228_3587" x1="344.487" y1="494.945" x2="336.284" y2="497.69" gradientUnits="userSpaceOnUse">
<stop stop-color="#1BBEE9"/>
<stop offset="0.1063" stop-color="#15A9D0"/>
<stop offset="0.2375" stop-color="#0C89A9"/>
<stop offset="0.3819" stop-color="#057D9B"/>
<stop offset="0.5356" stop-color="#D6248E"/>
<stop offset="0.6969" stop-color="#EF30A2"/>
<stop offset="0.8618" stop-color="#F276C0"/>
<stop offset="1" stop-color="#FFADDE"/>
</linearGradient>
<linearGradient id="paint60_linear_228_3587" x1="344.487" y1="485.21" x2="336.284" y2="487.955" gradientUnits="userSpaceOnUse">
<stop stop-color="#1BBEE9"/>
<stop offset="0.1063" stop-color="#15A9D0"/>
<stop offset="0.2375" stop-color="#0C89A9"/>
<stop offset="0.3819" stop-color="#057D9B"/>
<stop offset="0.5356" stop-color="#D6248E"/>
<stop offset="0.6969" stop-color="#EF30A2"/>
<stop offset="0.8618" stop-color="#F276C0"/>
<stop offset="1" stop-color="#FFADDE"/>
</linearGradient>
<linearGradient id="paint61_linear_228_3587" x1="255.357" y1="-242.427" x2="5.6001" y2="-75.8546" gradientUnits="userSpaceOnUse">
<stop stop-color="#109AE4"/>
<stop offset="0.1063" stop-color="#27ABF1"/>
<stop offset="0.2375" stop-color="#2BAAEE"/>
<stop offset="0.3819" stop-color="#3BB1F0"/>
<stop offset="0.5356" stop-color="#7581F7"/>
<stop offset="0.6969" stop-color="#EF30A2"/>
<stop offset="0.8618" stop-color="#F276C0"/>
<stop offset="1" stop-color="#FFADDE"/>
</linearGradient>
<radialGradient id="paint62_radial_228_3587" cx="0" cy="0" r="1" gradientUnits="userSpaceOnUse" gradientTransform="translate(353.262 349.175) rotate(-90) scale(158.896 1.84782)">
<stop stop-color="white"/>
<stop offset="1" stop-color="white" stop-opacity="0"/>
</radialGradient>
<radialGradient id="paint63_radial_228_3587" cx="0" cy="0" r="1" gradientUnits="userSpaceOnUse" gradientTransform="translate(20.3806 573.31) rotate(-90) scale(104.046 1.86549)">
<stop stop-color="white"/>
<stop offset="1" stop-color="white" stop-opacity="0"/>
</radialGradient>
<radialGradient id="paint64_radial_228_3587" cx="0" cy="0" r="1" gradientUnits="userSpaceOnUse" gradientTransform="translate(97.0235 686.092) rotate(-180) scale(34.2957 5.66047)">
<stop stop-color="white"/>
<stop offset="1" stop-color="white" stop-opacity="0"/>
</radialGradient>
<radialGradient id="paint65_radial_228_3587" cx="0" cy="0" r="1" gradientUnits="userSpaceOnUse" gradientTransform="translate(193.501 9.14525) rotate(-180) scale(34.2957 5.66047)">
<stop stop-color="white"/>
<stop offset="1" stop-color="white" stop-opacity="0"/>
</radialGradient>
</defs>
</svg>
