<svg width="24" height="24" viewBox="0 0 24 24" fill="none" xmlns="http://www.w3.org/2000/svg">
<path d="M12.0075 1.50005C17.8136 1.51758 22.5004 6.2061 22.5 11.9964C22.4996 17.8072 17.7696 22.527 11.9737 22.5C6.17273 22.4735 1.48464 17.7666 1.50004 11.9836C1.51501 6.18856 6.23176 1.48294 12.0075 1.50005Z" fill="#29296A"/>
<path d="M5.11008 10.791C6.17764 10.5767 7.11859 10.7533 7.906 11.3162C8.38888 11.6614 8.84353 12.0424 9.25713 12.4483C10.2058 13.3794 11.2588 14.3414 12.5312 15.0685C13.6086 15.6848 14.6582 16.0445 15.7403 16.1694C17.9284 16.4222 19.9861 15.2425 20.8595 13.2353C20.8916 13.1617 20.9703 12.956 21.0473 12.746C21.126 12.5317 21.188 12.3085 21.2325 12.0826L21.3561 11.4501C20.7466 11.711 20.1696 11.9659 19.585 12.1964C18.993 12.4299 18.3797 12.5762 17.733 12.5283C17.1008 12.4817 16.5427 12.2216 16.0414 11.8709C15.0675 11.1896 14.1142 10.4779 13.1694 9.75635C12.2904 9.08528 11.4393 8.37913 10.4102 7.93432C9.36234 7.48095 8.27554 7.24357 7.13699 7.39156C5.45396 7.61012 4.16186 8.45912 3.27993 9.91118C2.94375 10.4651 2.70466 11.0583 2.63623 11.7075C3.34494 11.3525 4.18324 10.977 5.11051 10.791H5.11008Z" fill="#FAFAFA"/>
<path d="M16.3277 16.629C16.1172 16.629 15.9055 16.617 15.6917 16.5922C14.5514 16.4609 13.4488 16.0833 12.3205 15.4383C11.0061 14.6872 9.92831 13.7035 8.95955 12.7523C8.56179 12.3618 8.12424 11.9953 7.65933 11.6629C6.96174 11.1642 6.15551 11.0154 5.19488 11.2087C4.45409 11.3575 3.76549 11.6377 3.15771 11.9272C3.24411 11.9461 3.33008 11.9666 3.41434 11.9931C4.23639 12.2514 4.9498 12.7159 5.61275 13.2472C6.62214 14.0564 7.59688 14.9088 8.6037 15.7214C10.2067 17.0165 11.9783 17.9468 14.0724 18.1341C15.4633 18.2586 16.7759 17.9904 17.9786 17.2749C19.1253 16.5922 19.9585 15.6693 20.556 14.5692C19.55 15.8609 18.003 16.629 16.3281 16.629H16.3277Z" fill="#EC5D2C"/>
<path d="M17.1335 5.93945C17.1993 6.03783 17.2519 6.09129 17.2746 6.15502C17.3529 6.37742 17.4247 6.60197 17.4919 6.82823C17.5612 7.06133 17.7083 7.2076 17.9418 7.27518C18.1749 7.34233 18.4076 7.4129 18.6369 7.49246C18.6937 7.51213 18.7361 7.57286 18.7848 7.61478C18.7352 7.66354 18.6942 7.73368 18.6343 7.75678C18.4341 7.83419 18.2297 7.90519 18.0222 7.95866C17.7301 8.03393 17.5543 8.20459 17.4838 8.50056C17.4324 8.71612 17.3597 8.92698 17.2844 9.1357C17.2648 9.18959 17.1993 9.22681 17.1544 9.27214C17.1099 9.22638 17.0454 9.18831 17.0253 9.13399C16.941 8.90645 16.8649 8.67592 16.7956 8.44325C16.7263 8.20972 16.5822 8.06344 16.3461 7.998C16.1121 7.93342 15.8794 7.86199 15.6506 7.78244C15.5937 7.76277 15.5527 7.69904 15.5039 7.65541C15.5535 7.6058 15.5942 7.53309 15.654 7.51085C15.8747 7.42873 16.1006 7.35901 16.3268 7.29229C16.5672 7.22129 16.7199 7.07416 16.7862 6.82865C16.8473 6.60112 16.9192 6.37614 16.9949 6.15288C17.0167 6.08958 17.0693 6.03654 17.1339 5.93945H17.1335Z" fill="#FAFAFA"/>
<path d="M6.80142 17.2943C6.80356 17.6155 6.56062 17.8623 6.24112 17.8649C5.91008 17.8674 5.65859 17.6189 5.66115 17.2917C5.66372 16.9735 5.91051 16.7314 6.233 16.7314C6.55591 16.7314 6.79971 16.9731 6.80185 17.2943H6.80142Z" fill="#FAFAFA"/>
</svg>
