<svg width="22" height="22" viewBox="0 0 22 22" fill="none" xmlns="http://www.w3.org/2000/svg">
<path fill-rule="evenodd" clip-rule="evenodd" d="M6.90909 18.028L6.90907 18.028C6.89032 18.1266 6.86997 18.2224 6.8501 18.316L6.85008 18.316C6.80717 18.518 6.76646 18.7096 6.74883 18.8965C6.73593 19.0332 6.809 19.2862 6.89629 19.3093C7.02723 19.3441 7.2744 19.2928 7.3688 19.2011C7.61862 18.9637 7.88002 18.6826 8.05412 18.3784C8.60983 17.428 9.12189 16.4659 9.61791 15.4763C9.9109 14.9 10.0948 14.2947 10.0328 13.6476C9.98866 13.2855 9.8617 12.9716 9.46888 12.8674C9.07607 12.7632 8.78839 12.9672 8.59246 13.2656C8.40232 13.5422 8.27187 13.858 8.16323 14.1796C8.02277 14.6211 7.88921 15.0587 7.75566 15.4963C7.62209 15.9339 7.48853 16.3715 7.34806 16.8131C7.21628 17.2219 7.06269 17.6249 6.90909 18.028ZM14.16 3.01645C14.1684 2.80847 14.1608 2.57288 13.8669 2.44821C13.8149 2.55609 13.7618 2.66462 13.7082 2.77398L13.7082 2.774L13.7082 2.77403C13.4946 3.21047 13.2745 3.66014 13.0926 4.13486C12.52 5.50126 11.9911 6.87922 11.4622 8.25719L11.4621 8.25727C11.3882 8.4479 11.3522 8.67192 11.3437 8.8799C11.3589 9.35109 11.6444 9.68374 12.0328 9.71665C12.4211 9.74957 12.671 9.51217 12.7983 9.03206C12.9269 8.45887 13.0832 7.86964 13.2337 7.30224C13.3149 6.9959 13.3986 6.69021 13.482 6.38533C13.6483 5.778 13.8136 5.1739 13.9571 4.57434C14.068 4.15606 14.1032 3.71769 14.1383 3.27931C14.1453 3.19164 14.1524 3.10397 14.16 3.01645ZM2.4191 8.35858C2.53114 8.36313 2.6456 8.36493 2.76084 8.36674C3.07345 8.37165 3.3918 8.37666 3.68304 8.43683L3.89773 8.47282L3.89774 8.47283C5.50166 8.74173 7.08683 9.00749 8.68139 9.31855C8.94906 9.36618 9.23722 9.51267 9.44834 9.68545C9.74096 9.90319 9.62654 10.2466 9.2805 10.3183C9.08277 10.3593 8.87479 10.3509 8.7002 10.3046C6.60964 9.82025 4.53065 9.29227 2.50374 8.56789C2.4601 8.55631 2.42224 8.52292 2.38438 8.48952L2.4191 8.35858ZM12.8957 12.4526C12.6353 12.4069 12.3749 12.3612 12.1164 12.3082C12.1048 12.3519 12.0933 12.3955 12.0541 12.4552C12.1385 12.4893 12.216 12.5273 12.2935 12.5654C12.371 12.6035 12.4485 12.6416 12.5329 12.6756C13.2844 12.9684 14.0305 13.2597 14.7767 13.5509C15.5228 13.8422 16.2689 14.1335 17.0205 14.4263C17.1485 14.4719 17.2751 14.523 17.4017 14.5741C17.5283 14.6252 17.6549 14.6763 17.783 14.7219C18.0012 14.7798 18.1989 14.7388 18.3004 14.5321C18.4078 14.3037 18.3231 14.0944 18.1222 13.971C17.9811 13.8869 17.818 13.7969 17.6435 13.7506C17.3852 13.6707 17.126 13.5892 16.8661 13.5074C16.0616 13.2544 15.2508 12.9993 14.4426 12.785C13.9372 12.6354 13.4164 12.544 12.8957 12.4526Z" fill="#C7CBD2"/>
</svg>
